<svg width="44" height="45" viewBox="0 0 44 45" fill="none" xmlns="http://www.w3.org/2000/svg">
<rect x="1.25" y="0.75" width="41.2886" height="42.5606" rx="20.6443" stroke="#573E3E" stroke-width="1.5"/>
<path d="M30.3841 30.2854C29.3587 30.2602 28.3578 30.2602 27.3325 30.2854C27.1128 30.2854 27.064 30.2351 27.064 30.0089C27.064 28.1486 27.064 26.2633 27.064 24.4031C27.064 23.9757 27.0395 23.5484 26.9175 23.1461C26.5513 21.839 25.0866 21.3613 24.0368 22.2412C23.4753 22.6937 23.2556 23.3221 23.2556 24.0763C23.2556 25.8359 23.2556 27.5956 23.2556 29.3553C23.2556 29.5815 23.2312 29.8077 23.2556 30.0591C23.28 30.2602 23.1824 30.3105 23.0115 30.2854C21.9618 30.2854 20.9364 30.2854 19.8867 30.2854C19.6914 30.2854 19.6426 30.2351 19.6426 30.034C19.667 28.4503 19.667 26.8666 19.667 25.2577C19.667 23.297 19.667 21.3362 19.6426 19.4006C19.6426 19.1743 19.6914 19.1241 19.8867 19.1241C20.9364 19.1241 21.9618 19.1241 23.0115 19.1241C23.2068 19.1241 23.2556 19.1743 23.2556 19.3754C23.2556 19.7776 23.2556 20.1799 23.2556 20.6575C23.3289 20.5821 23.3533 20.5569 23.3777 20.5318C24.3298 19.0989 25.6725 18.6967 27.2593 18.9481C29.0902 19.2497 30.262 20.5569 30.5549 22.568C30.6282 23.0456 30.6526 23.5232 30.6526 24.0008C30.6526 26.0119 30.6526 27.9978 30.6526 30.0089C30.6526 30.21 30.6038 30.2854 30.3841 30.2854Z" fill="#573E3E"/>
<path d="M17.6882 24.7052C17.6882 26.4649 17.6882 28.2245 17.6882 29.9842C17.6882 30.2104 17.6394 30.2859 17.4197 30.2859C16.3944 30.2607 15.3691 30.2859 14.3437 30.2859C14.1484 30.2859 14.0996 30.2356 14.0996 30.0345C14.0996 26.49 14.0996 22.9204 14.0996 19.3759C14.0996 19.1999 14.1484 19.1245 14.3437 19.1245C15.3935 19.1245 16.4432 19.1245 17.4929 19.1245C17.7127 19.1245 17.7371 19.1999 17.7371 19.401C17.6882 21.1607 17.6882 22.9204 17.6882 24.7052Z" fill="#573E3E"/>
<path d="M17.862 16.2084C17.6179 17.214 16.617 17.7922 15.4696 17.591C14.2489 17.3899 13.5654 16.1582 14.0048 14.9515C14.2978 14.1974 15.0057 13.7449 15.909 13.77C17.2761 13.7449 18.1793 14.8761 17.862 16.2084Z" fill="#573E3E"/>
</svg>
