<svg width="36" height="36" viewBox="0 0 36 36" fill="none" xmlns="http://www.w3.org/2000/svg">
<path d="M36 24.48C36 30.8423 30.8423 36 24.48 36L3.2 36C1.43269 36 3.93744e-06 34.5673 4.08886e-06 32.8L6.35066e-06 6.4C6.65348e-06 2.86538 2.86538 8.5886e-07 6.40001 1.17417e-06L32.8 3.52924e-06C34.5673 3.68689e-06 36 1.43269 36 3.2L36 24.48Z" fill="#FFF7C5"/>
<path d="M27 14.377C27 14.0029 26.9988 13.8887 26.9902 13.8027C26.8962 12.8542 26.1458 12.1038 25.1973 12.0098C25.1117 12.0013 24.9893 12 24.5947 12C24.467 12 24.358 12.0001 24.2598 11.9941C23.1032 11.9239 22.0905 11.1942 21.6582 10.1191C21.6217 10.0282 21.5897 9.93025 21.5518 9.81641C21.5054 9.67724 21.4949 9.64822 21.4863 9.62695C21.3423 9.2686 21.0047 9.02538 20.6192 9.00195C20.5963 9.00057 20.5656 9 20.419 9H15.5811C15.4344 9 15.4038 9.00057 15.3809 9.00195C14.9954 9.02538 14.6578 9.2686 14.5137 9.62695C14.5051 9.64822 14.4946 9.67723 14.4483 9.81641C14.4103 9.93025 14.3784 10.0282 14.3418 10.1191C13.9095 11.1942 12.8968 11.9239 11.7402 11.9941C11.6421 12.0001 11.533 12 11.4053 12C11.0107 12 10.8883 12.0013 10.8027 12.0098C9.85418 12.1038 9.1038 12.8542 9.00978 13.8027C9.00126 13.8887 9.00001 14.0029 9.00001 14.377V22.2002L9.0049 23.2969C9.00969 23.6057 9.01874 23.8638 9.03712 24.0889C9.07294 24.5273 9.1381 24.7518 9.21779 24.9082C9.40952 25.2845 9.71556 25.5905 10.0918 25.7822C10.2482 25.8619 10.4727 25.9271 10.9111 25.9629C11.3612 25.9997 11.9434 26 12.7998 26H23.2002C24.0566 26 24.6388 25.9997 25.0889 25.9629C25.5273 25.9271 25.7518 25.8619 25.9082 25.7822C26.2845 25.5905 26.5905 25.2845 26.7822 24.9082C26.8619 24.7518 26.9271 24.5273 26.9629 24.0889C26.9997 23.6388 27 23.0566 27 22.2002V14.377ZM21 18.5C21 16.8431 19.6569 15.5 18 15.5C16.3432 15.5 15 16.8431 15 18.5C15 20.1569 16.3432 21.5 18 21.5C19.6569 21.5 21 20.1569 21 18.5ZM23 18.5C23 21.2614 20.7614 23.5 18 23.5C15.2386 23.5 13 21.2614 13 18.5C13 15.7386 15.2386 13.5 18 13.5C20.7614 13.5 23 15.7386 23 18.5ZM29 22.2002C29 23.0237 29.001 23.7016 28.9561 24.252C28.9101 24.814 28.8117 25.3311 28.5645 25.8164C28.181 26.5689 27.5689 27.181 26.8164 27.5645C26.3311 27.8117 25.814 27.9101 25.252 27.9561C24.7016 28.001 24.0237 28 23.2002 28H12.7998C11.9763 28 11.2984 28.001 10.7481 27.9561C10.186 27.9101 9.66891 27.8117 9.18361 27.5645C8.4311 27.181 7.81903 26.5689 7.43556 25.8164C7.18828 25.3311 7.08989 24.814 7.04396 24.252C7.02147 23.9767 7.01032 23.6694 7.0049 23.3281L7.00001 22.2002V14.377C7.00001 14.0507 6.99883 13.8145 7.01954 13.6055C7.20758 11.7083 8.70834 10.2076 10.6055 10.0195C10.8149 9.99879 11.0618 10 11.4053 10C11.5621 10 11.5965 9.99942 11.6192 9.99805C12.0047 9.97462 12.3423 9.7314 12.4863 9.37305C12.4949 9.35178 12.5054 9.32277 12.5518 9.18359C12.5897 9.06975 12.6217 8.97179 12.6582 8.88086C13.0905 7.80577 14.1032 7.07607 15.2598 7.00586C15.3577 6.99993 15.461 7 15.5811 7H20.419C20.5391 7 20.6424 6.99993 20.7402 7.00586C21.8968 7.07607 22.9095 7.80577 23.3418 8.88086C23.3784 8.97179 23.4103 9.06975 23.4483 9.18359C23.4946 9.32276 23.5051 9.35178 23.5137 9.37305C23.6578 9.7314 23.9954 9.97462 24.3809 9.99805C24.4035 9.99942 24.4379 10 24.5947 10C24.9382 10 25.1852 9.99879 25.3945 10.0195C27.2917 10.2076 28.7924 11.7083 28.9805 13.6055C29.0012 13.8145 29 14.0507 29 14.377V22.2002Z" fill="#F1A501"/>
</svg>
