<svg width="60" height="53" viewBox="0 0 60 53" fill="none" xmlns="http://www.w3.org/2000/svg">
<path d="M55.819 0.473541H12.703C10.4593 0.473541 8.63432 2.2985 8.63432 4.54226V19.3551H3.92184C1.75936 19.3551 0 21.1144 0 23.2769V48.0985C0 50.261 1.75936 52.0203 3.92184 52.0203H47.3314C49.4939 52.0203 51.2533 50.261 51.2533 48.0985V33.1361H55.8126C58.0595 33.1361 59.8877 31.3079 59.8877 29.0611V4.54266C59.8877 2.2989 58.0628 0.473541 55.819 0.473541ZM12.703 2.71106H55.819C56.8284 2.71106 57.6472 3.5329 57.6472 4.53922V6.97674L10.872 6.97987V4.54235C10.872 3.53299 11.6936 2.71106 12.703 2.71106ZM57.647 9.2173V13.0891H10.875V9.2173H57.647ZM49.0126 48.0989C49.0126 49.0271 48.2595 49.7802 47.3314 49.7802H3.92176C2.9936 49.7802 2.24048 49.0271 2.24048 48.0989V23.2773C2.24048 22.3491 2.99361 21.596 3.92176 21.596H9.73112C9.73737 21.596 9.74675 21.5991 9.753 21.5991C9.75925 21.5991 9.76862 21.596 9.77487 21.596H47.3309C48.259 21.596 49.0121 22.3491 49.0121 23.2773L49.0153 48.0989H49.0126ZM55.8158 30.8989H51.2564V23.2802C51.2564 21.1177 49.497 19.3583 47.3346 19.3583L10.8722 19.3552V15.3303H57.6474V29.0615C57.6474 30.0739 56.8252 30.8989 55.8158 30.8989ZM31.063 41.6117C31.063 42.2305 30.5598 42.7304 29.9442 42.7304H5.88504C5.26629 42.7304 4.76632 42.2273 4.76632 41.6117C4.76632 40.993 5.26945 40.493 5.88504 40.493L29.9442 40.4899C30.563 40.4899 31.063 40.993 31.063 41.6117ZM29.9442 44.4742H5.88504C5.26629 44.4742 4.76632 44.9773 4.76632 45.5929C4.76632 46.2117 5.26945 46.7116 5.88504 46.7116L29.9442 46.7147C30.563 46.7147 31.063 46.2116 31.063 45.596C31.063 44.9773 30.563 44.4742 29.9442 44.4742ZM7.64744 38.8023H11.3756C12.9631 38.8023 14.2569 37.5086 14.2569 35.9211V34.6555C14.2569 33.0679 12.9631 31.7742 11.3756 31.7742H7.64744C6.05992 31.7742 4.76616 33.0679 4.76616 34.6555V35.9211C4.76304 37.5117 6.0568 38.8023 7.64744 38.8023ZM7.00369 34.6555C7.00369 34.3023 7.29119 34.0148 7.64431 34.0148H11.3725C11.7256 34.0148 12.0131 34.3023 12.0131 34.6555V35.9211C12.0131 36.2742 11.7256 36.5617 11.3725 36.5617H7.64431C7.29118 36.5617 7.00369 36.2742 7.00369 35.9211V34.6555ZM43.2941 24.0555H31.7069C30.1194 24.0555 28.8256 25.3492 28.8256 26.9367V28.2023C28.8256 29.7899 30.1194 31.0836 31.7069 31.0836H43.2973C44.8848 31.0836 46.1786 29.7899 46.1786 28.2023V26.9367C46.1754 25.3492 44.8847 24.0555 43.2941 24.0555ZM43.9378 28.2023C43.9378 28.5555 43.6503 28.843 43.2972 28.843L31.7068 28.8461C31.3537 28.8461 31.0662 28.5586 31.0662 28.2055V26.9399C31.0662 26.5867 31.3537 26.2992 31.7068 26.2992H43.2972C43.6503 26.2992 43.9378 26.5867 43.9378 26.9399V28.2023Z" fill="#2F2F2F"/>
</svg>
