<svg width="69" height="53" viewBox="0 0 69 53" fill="none" xmlns="http://www.w3.org/2000/svg">
<path d="M24.64 13.1717C19.92 12.2917 19.52 11.8917 18.64 7.17166C18.56 6.61166 18.08 6.29166 17.52 6.29166C16.96 6.29166 16.48 6.69166 16.4 7.17166C15.52 11.8917 15.12 12.2917 10.4 13.1717C9.84 13.2517 9.52 13.7317 9.52 14.2917C9.52 14.8517 9.92 15.3317 10.4 15.4117C15.12 16.2917 15.52 16.6917 16.4 21.4117C16.48 21.9717 16.96 22.2917 17.52 22.2917C18.08 22.2917 18.56 21.8917 18.64 21.4117C19.52 16.6917 19.92 16.2917 24.64 15.4117C25.2 15.3317 25.52 14.8517 25.52 14.2917C25.6 13.7317 25.2 13.2517 24.64 13.1717ZM17.6 16.9317C17.04 15.6517 16.24 14.8517 14.88 14.2117C16.16 13.6517 16.96 12.8517 17.6 11.4917C18.16 12.7717 18.96 13.5717 20.32 14.2117C18.96 14.8517 18.16 15.6517 17.6 16.9317ZM4.08 6.93166C6.96 7.41166 7.12 7.57166 7.68 10.2917C7.76 10.8517 8.24 11.1717 8.8 11.1717C9.36 11.1717 9.76 10.7717 9.92 10.2917C10.48 7.57166 10.56 7.41166 13.52 6.93166C14.08 6.85166 14.48 6.37166 14.48 5.81166C14.48 5.25166 14.08 4.77166 13.52 4.69166C10.64 4.21166 10.48 4.05166 9.92 1.33166C9.84 0.77166 9.36 0.45166 8.8 0.45166C8.24 0.45166 7.84 0.85166 7.68 1.33166C7.12 4.05166 7.04 4.21166 4.08 4.69166C3.52 4.77166 3.12 5.25166 3.12 5.81166C3.12 6.37166 3.52 6.85166 4.08 6.93166ZM8.72 5.01166C8.96 5.33166 9.2 5.65166 9.6 5.89166C9.28 6.13166 8.96 6.37166 8.72 6.77166C8.48 6.45166 8.24 6.13166 7.84 5.89166C8.24 5.65166 8.48 5.33166 8.72 5.01166ZM54 23.3317C56.88 23.8117 57.04 23.9717 57.6 26.6917C57.68 27.2517 58.16 27.5717 58.72 27.5717C59.28 27.5717 59.68 27.1717 59.84 26.6917C60.4 23.9717 60.48 23.8117 63.44 23.3317C64 23.2517 64.4 22.7717 64.4 22.2117C64.4 21.6517 64 21.1717 63.44 21.0917C60.56 20.6117 60.4 20.4517 59.84 17.7317C59.76 17.1717 59.28 16.8517 58.72 16.8517C58.16 16.8517 57.76 17.2517 57.6 17.7317C57.04 20.4517 56.96 20.6117 54 21.0917C53.44 21.1717 53.04 21.6517 53.04 22.2117C53.12 22.7717 53.44 23.2517 54 23.3317ZM58.64 21.4117C58.88 21.7317 59.12 22.0517 59.52 22.2917C59.2 22.5317 58.88 22.7717 58.64 23.1717C58.4 22.8517 58.16 22.5317 57.76 22.2917C58.16 21.9717 58.4 21.7317 58.64 21.4117ZM25.12 36.4517V31.7317V27.0117C25.12 23.4917 14.64 23.3317 12.56 23.3317C11.84 23.3317 11.12 23.3317 10.4 23.4117C9.92 23.4117 9.52 23.4917 9.12 23.4917C5.12 23.7317 0.4 24.6117 0 26.7717C0 26.8517 0 26.9317 0 27.0117V31.7317V36.4517V41.1717V45.8917C0 49.4117 10.48 49.5717 12.56 49.5717C14.64 49.5717 25.12 49.4117 25.12 45.8917V41.1717V36.4517ZM3.12 34.3717C3.28 34.4517 3.44 34.4517 3.52 34.5317V36.9317C3.36 36.8517 3.28 36.8517 3.12 36.7717C2.88 36.6917 2.64 36.6117 2.4 36.4517C2.32 36.4517 2.32 36.3717 2.24 36.3717C2.16 36.3717 2.16 36.2917 2.08 36.2917V34.0517C2.4 34.1317 2.72 34.2117 3.12 34.3717C3.04 34.3717 3.04 34.3717 3.12 34.3717ZM6.88 30.3717V32.8517C6.48 32.7717 6.16 32.7717 5.76 32.6917V30.2117C6.16 30.2117 6.56 30.2917 6.88 30.3717ZM6.88 35.0917V37.5717C6.72 37.5717 6.64 37.5717 6.48 37.4917C6.24 37.4917 6 37.4117 5.84 37.4117C5.84 37.4117 5.84 37.4117 5.76 37.4117V34.9317C6.16 35.0117 6.48 35.0117 6.88 35.0917ZM2.88 41.4117C2.8 41.4117 2.8 41.3317 2.72 41.3317C2.72 41.3317 2.72 41.3317 2.64 41.3317C2.64 41.3317 2.64 41.3317 2.56 41.3317C2.32 41.2517 2.24 41.1717 2.16 41.0917C2.16 41.0917 2.16 41.0917 2.08 41.0917V38.8517C2.48 39.0117 2.96 39.1717 3.52 39.3317V41.7317C3.44 41.7317 3.36 41.6517 3.28 41.6517C3.2 41.4917 3.04 41.4117 2.88 41.4117ZM6.88 42.2917C6.48 42.2117 6.16 42.2117 5.76 42.1317V39.6517C6.16 39.7317 6.48 39.7317 6.88 39.8117V42.2917ZM9.76 37.8117C9.52 37.8117 9.28 37.8117 9.12 37.8117V35.2517C10.24 35.3317 11.36 35.4117 12.48 35.4117C12.72 35.4117 12.96 35.4117 13.2 35.4117V37.8917C12.96 37.8917 12.72 37.8917 12.48 37.8917C12.08 37.8917 11.68 37.8917 11.28 37.8917L9.76 37.8117ZM19.12 42.1317V39.6517C19.36 39.5717 19.68 39.5717 19.92 39.4917V41.9717C19.84 41.9717 19.68 42.0517 19.6 42.0517C19.44 42.1317 19.28 42.1317 19.12 42.1317ZM19.92 37.2517C19.68 37.3317 19.52 37.3317 19.28 37.3317H19.04V34.8517C19.36 34.7717 19.6 34.7717 19.84 34.6917V37.2517H19.92ZM22.88 34.0517V36.2917C22.88 36.2917 22.8 36.3717 22.72 36.3717C22.72 36.3717 22.64 36.3717 22.64 36.4517C22.56 36.5317 22.48 36.5317 22.4 36.6117L22.24 36.6917V34.3717C22.4 34.2917 22.56 34.2917 22.72 34.2117C22.72 34.0517 22.8 34.0517 22.88 34.0517ZM16.88 37.7317C16.56 37.7317 16.24 37.8117 15.84 37.8117H15.44V35.3317C15.6 35.3317 15.76 35.3317 15.92 35.3317C16.24 35.3317 16.48 35.2517 16.8 35.2517V37.4917C16.88 37.5717 16.88 37.6517 16.88 37.7317ZM15.52 40.0517H16.08C16.16 40.0517 16.16 40.0517 16.24 40.0517C16.48 40.0517 16.72 40.0517 16.96 39.9717V42.4517C16.64 42.4517 16.32 42.5317 15.92 42.5317C15.84 42.5317 15.68 42.5317 15.6 42.5317V40.0517H15.52ZM22.4 41.2517C22.32 41.2517 22.24 41.3317 22.24 41.3317V38.9317C22.32 38.9317 22.4 38.8517 22.48 38.8517C22.56 38.8517 22.64 38.7717 22.72 38.7717C22.8 38.7717 22.88 38.6917 22.96 38.6917V40.9317C22.96 40.9317 22.96 40.9317 22.88 41.0117C22.64 41.0917 22.48 41.2517 22.4 41.2517ZM22.8 31.4917C22.8 31.5717 22.8 31.5717 22.8 31.4917C22.64 31.6517 22.48 31.7317 22.32 31.8117C22.24 31.8117 22.24 31.8917 22.16 31.8917C22.16 31.8917 22.16 31.8917 22.08 31.8917V29.5717C22.32 29.4917 22.56 29.4117 22.72 29.3317V31.4917H22.8ZM19.92 32.5317C19.84 32.5317 19.68 32.6117 19.6 32.6117C19.44 32.6117 19.28 32.6917 19.12 32.6917V30.2117C19.44 30.1317 19.68 30.1317 19.92 30.0517V32.5317ZM16.88 32.9317C16.56 32.9317 16.16 33.0117 15.84 33.0117C15.76 33.0117 15.6 33.0117 15.52 33.0117V30.5317C16 30.5317 16.48 30.4517 16.88 30.4517V32.9317ZM13.28 33.1717C13.04 33.1717 12.8 33.1717 12.56 33.1717C11.44 33.1717 10.32 33.0917 9.2 33.0117V30.5317C9.6 30.5317 9.92 30.6117 10.4 30.6117C11.12 30.6117 11.84 30.6917 12.56 30.6917C12.8 30.6917 13.04 30.6917 13.28 30.6917V33.1717ZM2.16 43.4917C2.4 43.5717 2.72 43.7317 3.04 43.8117H3.12C3.28 43.8917 3.44 43.8917 3.52 43.9717V46.3717C2.8 46.1317 2.32 45.8917 2.08 45.7317V43.4917H2.16ZM5.76 44.3717C6.08 44.4517 6.48 44.4517 6.88 44.5317V47.0117C6.48 46.9317 6.08 46.9317 5.76 46.8517V44.3717ZM9.12 40.0517C9.28 40.0517 9.52 40.0517 9.68 40.0517H9.92C10.32 40.0517 10.72 40.0517 11.12 40.1317H11.44C11.76 40.1317 12.16 40.1317 12.48 40.1317C12.72 40.1317 12.88 40.1317 13.12 40.1317H13.2V42.6117C12.96 42.6117 12.72 42.6117 12.48 42.6117C11.36 42.6117 10.24 42.5317 9.12 42.4517V40.0517ZM15.52 44.7717C15.68 44.7717 15.84 44.7717 16 44.7717C16.32 44.7717 16.56 44.6917 16.88 44.6917V46.9317C16.88 47.0117 16.88 47.0917 16.88 47.1717C16.48 47.2517 16 47.2517 15.52 47.2517V44.7717ZM19.12 44.4517C19.44 44.3717 19.68 44.3717 19.92 44.2917V46.7717C19.68 46.8517 19.36 46.8517 19.12 46.9317V44.4517ZM22.16 43.7317C22.4 43.6517 22.56 43.5717 22.72 43.4917H22.8V45.7317C22.64 45.8117 22.48 45.9717 22.16 46.1317V43.7317ZM9.2 25.6517C9.6 25.6517 10 25.5717 10.4 25.5717C11.04 25.5717 11.76 25.4917 12.48 25.4917C18 25.4917 21.44 26.3717 22.56 26.9317C21.92 27.2517 20.24 27.8917 16.88 28.2117C15.52 28.3717 14 28.4517 12.48 28.4517C11.76 28.4517 11.04 28.4517 10.4 28.3717C9.44 28.2917 8.72 28.2917 8.08 28.2117C7.12 28.1317 6 27.9717 4.96 27.7317C4.96 27.7317 4.96 27.7317 4.88 27.7317C4.8 27.7317 4.8 27.7317 4.72 27.7317C4.16 27.5717 3.6 27.4917 3.12 27.2517C2.88 27.1717 2.56 27.0917 2.4 26.9317C3.2 26.5317 5.36 25.8917 9.2 25.6517ZM3.52 29.7317V32.1317C3.44 32.1317 3.36 32.0517 3.28 32.0517C3.12 31.9717 2.96 31.9717 2.8 31.8917C2.8 31.8917 2.8 31.8917 2.72 31.8917C2.64 31.8917 2.64 31.8117 2.56 31.8117H2.48C2.48 31.8117 2.48 31.8117 2.4 31.8117C2.16 31.7317 2.08 31.6517 2 31.5717C2 31.5717 2 31.5717 1.92 31.5717V29.3317C2 29.3317 2.08 29.4117 2.16 29.4117C2.8 29.4917 3.12 29.6517 3.52 29.7317ZM9.12 47.2517V44.7717C10.24 44.8517 11.36 44.9317 12.48 44.9317C12.72 44.9317 12.96 44.9317 13.2 44.9317V47.4117C12.96 47.4117 12.72 47.4117 12.48 47.4117C11.28 47.4117 10.16 47.3317 9.12 47.2517ZM68.08 42.4517V37.7317C68.08 34.6917 60.4 34.1317 56.96 34.0517C55.92 31.0117 53.92 28.4517 51.28 26.7717V22.2917V17.5717V12.8517C51.28 9.33166 40.8 9.17166 38.72 9.17166C38 9.17166 37.28 9.17166 36.56 9.25166C36.08 9.25166 35.68 9.33166 35.28 9.33166C31.28 9.57166 26.56 10.4517 26.16 12.6117C26.16 12.6917 26.16 12.7717 26.16 12.8517V17.5717V22.2917V27.0117V31.7317C26.16 32.2117 26.32 32.6917 26.72 33.0917C26 34.7717 25.6 36.6117 25.6 38.5317C25.6 46.0517 31.6 52.2117 39.04 52.4517C39.12 52.4517 39.12 52.4517 39.2 52.4517H43.76C46.24 52.4517 48.56 51.8117 50.56 50.6917C50.64 50.6917 50.8 50.6917 50.88 50.6917C52.32 50.8517 53.92 50.9317 55.44 50.9317C57.52 50.9317 67.6 50.7717 68 47.4117C68 47.3317 68 47.2517 68 47.1717V42.4517H68.08ZM48.56 49.1717C49.28 48.5317 49.92 47.8917 50.56 47.0917H51.68C50.8 47.9717 49.76 48.6117 48.56 49.1717ZM29.36 20.1317C29.52 20.2117 29.68 20.2117 29.84 20.2917V22.6917C29.04 22.4517 28.64 22.2117 28.4 22.0517V19.8117C28.64 19.8917 28.96 20.0517 29.36 20.1317C29.28 20.1317 29.28 20.1317 29.36 20.1317ZM33.12 16.1317V18.6117C32.72 18.5317 32.4 18.5317 32 18.4517V15.9717C32.4 16.0517 32.8 16.1317 33.12 16.1317ZM65.84 42.2917C65.76 42.3717 65.76 42.3717 65.68 42.3717C65.6 42.3717 65.6 42.4517 65.52 42.4517L65.28 42.5317C65.2 42.5317 65.12 42.6117 65.12 42.6117V40.2117C65.36 40.1317 65.6 40.0517 65.76 39.9717V42.2917H65.84ZM62.96 43.2517H62.8C62.72 43.2517 62.64 43.2517 62.56 43.3317C62.4 43.3317 62.24 43.4117 62.08 43.4117V40.9317C62.4 40.8517 62.64 40.8517 62.88 40.7717V43.2517H62.96ZM59.92 43.7317C59.6 43.7317 59.2 43.8117 58.88 43.8117C58.8 43.8117 58.64 43.8117 58.56 43.8117V41.3317C59.04 41.3317 59.52 41.2517 59.92 41.2517V43.7317ZM55.44 37.3317H53.52C53.44 36.4517 53.28 35.6517 53.12 34.8517H54.96C55.2 35.6517 55.36 36.5317 55.44 37.3317ZM53.52 39.5717H55.44C55.36 39.9717 55.36 40.4517 55.28 40.8517H53.36C53.44 40.4517 53.52 40.0517 53.52 39.5717ZM28.88 29.4917C28.72 29.7317 28.56 29.9717 28.4 30.2117V29.3317C28.56 29.3317 28.72 29.4117 28.88 29.4917ZM45.36 20.7717C45.68 20.6917 45.92 20.6917 46.16 20.6117V23.0917C45.92 23.1717 45.6 23.1717 45.36 23.2517V20.7717ZM49.12 19.8117V22.0517C49.04 22.1317 48.8 22.2917 48.48 22.4517V20.0517C48.64 19.9717 48.8 19.8917 49.12 19.8117C49.04 19.8117 49.04 19.8117 49.12 19.8117ZM43.12 23.4917C42.64 23.5717 42.16 23.5717 41.68 23.5717V21.0917C41.84 21.0917 42 21.0917 42.16 21.0917C42.48 21.0917 42.72 21.0117 43.04 21.0117V23.2517C43.12 23.3317 43.12 23.4117 43.12 23.4917ZM39.52 23.6517C39.28 23.6517 39.04 23.6517 38.8 23.6517C37.6 23.6517 36.48 23.6517 35.44 23.5717V21.0917C36.56 21.1717 37.68 21.2517 38.8 21.2517C39.04 21.2517 39.28 21.2517 39.52 21.2517V23.6517ZM32 20.6917C32.32 20.7717 32.72 20.7717 33.12 20.8517V23.3317C32.72 23.2517 32.32 23.2517 32 23.1717V20.6917ZM48.48 24.7717C48.64 24.6917 48.88 24.6117 49.04 24.6117C49.04 24.6117 49.04 24.6117 49.12 24.6117V25.6517C48.96 25.5717 48.72 25.4917 48.56 25.4117V24.7717H48.48ZM49.12 17.3317C49.04 17.3317 49.04 17.3317 49.12 17.3317C48.96 17.4917 48.8 17.5717 48.64 17.6517C48.56 17.6517 48.48 17.6517 48.4 17.6517V15.3317C48.64 15.2517 48.88 15.1717 49.04 15.0917V17.3317H49.12ZM46.16 18.2917C46.08 18.2917 45.92 18.3717 45.84 18.3717C45.68 18.3717 45.52 18.4517 45.36 18.4517V15.9717C45.68 15.8917 45.92 15.8917 46.16 15.8117V18.2917ZM43.12 18.7717C42.8 18.7717 42.4 18.8517 42.08 18.8517C42 18.8517 41.84 18.8517 41.76 18.8517V16.3717C42.24 16.3717 42.72 16.2917 43.12 16.2917V18.7717ZM39.52 18.9317C39.28 18.9317 39.04 18.9317 38.8 18.9317C37.68 18.9317 36.56 18.8517 35.44 18.7717V16.2917C35.84 16.2917 36.16 16.3717 36.64 16.3717C37.36 16.3717 38.08 16.4517 38.8 16.4517C39.04 16.4517 39.28 16.4517 39.52 16.4517V18.9317ZM30.8 27.6517C30.56 27.5717 30.24 27.4917 29.92 27.4117C29.92 27.4117 29.92 27.4117 29.84 27.4117C29.76 27.4117 29.68 27.3317 29.52 27.3317C29.44 27.2517 29.2 27.2517 29.12 27.1717H29.04H28.96C28.88 27.1717 28.88 27.0917 28.8 27.0917C28.72 27.0117 28.64 27.0117 28.56 26.9317C28.56 26.9317 28.48 26.9317 28.48 26.8517V24.6117H28.56C29.92 25.1717 31.6 25.4917 33.36 25.6517V26.0517C32.32 26.5317 31.52 27.0117 30.8 27.6517ZM50.4 28.8517H49.68C49.36 28.5317 48.96 28.1317 48.56 27.8117C49.2 28.1317 49.84 28.4517 50.4 28.8517ZM52.88 31.0917C53.28 31.5717 53.6 32.1317 53.92 32.6117H52.32C52.08 32.0517 51.76 31.5717 51.44 31.0917H52.88ZM52.8 43.0917H54.56C54.32 43.7317 54 44.2917 53.6 44.8517H52C52.32 44.2917 52.56 43.7317 52.8 43.0917ZM58.48 46.0517C58.64 46.0517 58.8 46.0517 58.96 46.0517C59.28 46.0517 59.6 45.9717 59.84 45.9717V48.2117C59.84 48.2917 59.84 48.3717 59.84 48.4517C59.36 48.5317 58.96 48.5317 58.4 48.5317V46.0517H58.48ZM62.16 45.7317C62.48 45.6517 62.72 45.6517 62.96 45.5717V48.0517C62.72 48.1317 62.4 48.1317 62.16 48.2117V45.7317ZM65.2 45.0117C65.28 45.0117 65.36 45.0117 65.36 44.9317C65.44 44.9317 65.6 44.8517 65.68 44.8517L65.76 44.7717V47.0117C65.6 47.0917 65.44 47.2517 65.12 47.4117V45.0117H65.2ZM65.6 37.7317C64.96 38.0517 63.28 38.6917 59.92 39.0117C59.2 39.0917 58.48 39.1717 57.68 39.1717C57.68 38.9317 57.68 38.7717 57.68 38.5317C57.68 37.8117 57.6 37.0917 57.52 36.3717C61.92 36.5317 64.64 37.1717 65.6 37.7317ZM35.44 11.4117C35.84 11.4117 36.24 11.3317 36.64 11.3317C37.28 11.3317 38 11.2517 38.72 11.2517C44.24 11.2517 47.68 12.1317 48.8 12.6917C48.16 13.0117 46.48 13.6517 43.12 13.9717C41.76 14.1317 40.24 14.2117 38.72 14.2117C38 14.2117 37.28 14.2117 36.64 14.1317C35.68 14.0517 34.96 14.0517 34.32 13.9717C33.36 13.8917 32.24 13.7317 31.2 13.4917C31.2 13.4917 31.2 13.4917 31.12 13.4917C31.04 13.4917 31.04 13.4917 30.96 13.4917C30.4 13.3317 29.84 13.2517 29.36 13.0117C29.12 12.9317 28.8 12.8517 28.64 12.6917C29.44 12.2917 31.6 11.6517 35.44 11.4117ZM29.76 15.4917V17.8917C29.68 17.8917 29.6 17.8117 29.52 17.8117C29.36 17.7317 29.2 17.7317 29.04 17.6517C28.96 17.6517 28.96 17.5717 28.88 17.5717C28.88 17.5717 28.88 17.5717 28.8 17.5717C28.8 17.5717 28.8 17.5717 28.72 17.5717C28.48 17.4917 28.4 17.4117 28.32 17.3317C28.32 17.3317 28.32 17.3317 28.24 17.3317V15.0917C28.32 15.0917 28.4 15.1717 28.48 15.1717C29.04 15.3317 29.36 15.4117 29.76 15.4917ZM27.84 38.4517C27.84 31.9717 33.12 26.7717 39.52 26.6917H39.6C46.08 26.6917 51.28 31.9717 51.28 38.4517C51.28 44.9317 46 50.2117 39.52 50.2117C33.04 50.2117 27.84 44.9317 27.84 38.4517ZM53.36 48.6117C54.16 47.8917 54.8 47.0917 55.44 46.1317H55.52C55.76 46.1317 56 46.1317 56.24 46.1317V48.6117C56 48.6117 55.76 48.6117 55.52 48.6117C54.8 48.6917 54.08 48.6117 53.36 48.6117ZM39.6 49.4117C33.6 49.4117 28.64 44.5317 28.64 38.4517C28.64 32.3717 33.6 27.5717 39.6 27.5717C40.72 27.5717 41.76 27.7317 42.8 28.0517C43.36 28.2117 43.76 28.8517 43.52 29.4117C43.36 29.9717 42.72 30.3717 42.16 30.1317C41.36 29.8917 40.48 29.7317 39.6 29.7317C34.8 29.7317 30.88 33.6517 30.88 38.4517C30.88 43.2517 34.8 47.1717 39.6 47.1717C44.4 47.1717 48.32 43.2517 48.32 38.4517C48.32 37.4917 48.16 36.5317 47.84 35.5717C47.6 35.0117 47.92 34.3717 48.56 34.1317C49.12 33.8917 49.76 34.2117 50 34.8517C50.4 36.0517 50.64 37.2517 50.64 38.4517C50.56 44.5317 45.6 49.4117 39.6 49.4117ZM45.36 31.9717C44.88 31.5717 44.88 30.8517 45.28 30.3717C45.68 29.8917 46.4 29.8917 46.88 30.2917C47.2 30.5317 47.52 30.8517 47.76 31.1717C48.16 31.6517 48.16 32.3717 47.68 32.7717C47.44 32.9317 47.2 33.0917 46.96 33.0917C46.64 33.0917 46.32 32.9317 46.16 32.6917C45.84 32.4517 45.6 32.2117 45.36 31.9717ZM37.04 38.4517C37.04 39.9717 38.24 41.1717 39.76 41.1717C40.48 41.1717 41.2 40.8517 41.68 40.3717C42.08 39.8917 42.8 39.8917 43.28 40.3717C43.76 40.7717 43.76 41.4917 43.28 41.9717C42.56 42.6917 41.68 43.1717 40.72 43.4117V44.3717C40.72 45.0117 40.24 45.4917 39.6 45.4917C38.96 45.4917 38.48 45.0117 38.48 44.3717V43.2517C36.32 42.6917 34.8 40.7717 34.8 38.4517C34.8 36.1317 36.4 34.2117 38.48 33.6517V32.6917C38.48 32.0517 38.96 31.5717 39.6 31.5717C40.24 31.5717 40.72 32.0517 40.72 32.6917V33.6517C41.68 33.8117 42.64 34.2917 43.28 35.0917C43.68 35.5717 43.68 36.2117 43.28 36.6917C42.8 37.0917 42.16 37.0917 41.68 36.6917C41.2 36.1317 40.48 35.8917 39.76 35.8917C38.24 35.7317 37.04 37.0117 37.04 38.4517Z" fill="white"/>
</svg>
