<svg width="32" height="32" viewBox="0 0 32 32" fill="none" xmlns="http://www.w3.org/2000/svg">
<path fill-rule="evenodd" clip-rule="evenodd" d="M16 27.3333L15.3528 28.4986C15.7554 28.7222 16.2445 28.7222 16.6471 28.4986L16 27.3333Z" fill="#CB5037"/>
<path fill-rule="evenodd" clip-rule="evenodd" d="M22.8854 23.996C25.9173 21.3009 29.3332 17.289 29.3333 12.6666C29.3333 10.4001 28.6679 8.54087 27.5208 7.17701C26.3773 5.81767 24.8217 5.03062 23.1901 4.7955C20.6165 4.4247 17.8311 5.42023 16 7.68613C14.1688 5.42023 11.3834 4.4247 8.80986 4.7955C7.17821 5.03062 5.62261 5.81767 4.47913 7.17701C3.33201 8.54087 2.66663 10.4001 2.66663 12.6666C2.66669 17.289 6.08258 21.3009 9.11454 23.996C10.6733 25.3816 12.2255 26.5027 13.3854 27.276C13.9666 27.6635 14.4524 27.9661 14.7955 28.1731C14.9671 28.2766 15.1032 28.3567 15.1979 28.4114C15.23 28.4299 15.2575 28.4453 15.28 28.4579L15.3086 28.4739L15.3385 28.4908L15.3528 28.4986C15.3528 28.4986 15.3524 28.4988 16 27.3333C16.6475 28.4988 16.6471 28.4986 16.6471 28.4986L16.6614 28.4908L16.6914 28.4739L16.7199 28.4579C16.7424 28.4453 16.7699 28.4299 16.802 28.4114C16.8968 28.3567 17.0328 28.2766 17.2044 28.1731C17.5475 27.9661 18.0333 27.6635 18.6145 27.276C19.7745 26.5027 21.3266 25.3816 22.8854 23.996ZM26.6666 12.6666C26.6666 10.9333 26.1651 9.70867 25.4791 8.89316C24.7893 8.07333 23.8447 7.58395 22.8099 7.43482C20.7273 7.13473 18.3173 8.22119 17.2265 10.7812C17.0171 11.2728 16.5344 11.5924 16 11.5924C15.4655 11.5924 14.9829 11.2728 14.7734 10.7812C13.6826 8.22119 11.2726 7.13473 9.19006 7.43482C8.15521 7.58395 7.21061 8.07333 6.52079 8.89316C5.83478 9.70867 5.33329 10.9333 5.33329 12.6666C5.33336 16.0442 7.91741 19.3656 10.8854 22.0038C12.3266 23.285 13.7745 24.3305 14.8645 25.0572C15.3143 25.3571 15.7025 25.5989 16 25.7812C16.2974 25.5989 16.6856 25.3571 17.1354 25.0572C18.2254 24.3305 19.6733 23.285 21.1145 22.0038C24.0825 19.3656 26.6666 16.0442 26.6666 12.6666Z" fill="#CB5037"/>
<path fill-rule="evenodd" clip-rule="evenodd" d="M26.6666 12.6666C26.6666 10.9333 26.1651 9.70867 25.4791 8.89316C24.7893 8.07333 23.8447 7.58395 22.8099 7.43482C20.7273 7.13473 18.3173 8.22119 17.2265 10.7812C17.0171 11.2728 16.5344 11.5924 16 11.5924C15.4655 11.5924 14.9829 11.2728 14.7734 10.7812C13.6826 8.22119 11.2726 7.13473 9.19006 7.43482C8.15521 7.58395 7.21061 8.07333 6.52079 8.89316C5.83478 9.70867 5.33329 10.9333 5.33329 12.6666C5.33336 16.0442 7.91741 19.3656 10.8854 22.0038C12.3266 23.285 13.7745 24.3305 14.8645 25.0572C15.3143 25.3571 15.7025 25.5989 16 25.7812C16.2974 25.5989 16.6856 25.3571 17.1354 25.0572C18.2254 24.3305 19.6733 23.285 21.1145 22.0038C24.0825 19.3656 26.6666 16.0442 26.6666 12.6666Z" fill="#CB5037"/>
</svg>
