<svg width="32" height="32" viewBox="0 0 32 32" fill="none" xmlns="http://www.w3.org/2000/svg">
<path d="M16.6471 28.4986C16.2445 28.7222 15.7554 28.7222 15.3528 28.4986L16 27.3333L16.6471 28.4986ZM26.6666 12.6666C26.6666 10.9333 26.1651 9.70867 25.4791 8.89316C24.7893 8.07333 23.8447 7.58395 22.8099 7.43482C20.7273 7.13473 18.3173 8.22119 17.2265 10.7812C17.0171 11.2728 16.5344 11.5924 16 11.5924C15.4655 11.5924 14.9829 11.2728 14.7734 10.7812C13.6826 8.22119 11.2726 7.13473 9.19006 7.43482C8.15521 7.58395 7.21061 8.07333 6.52079 8.89316C5.83478 9.70867 5.33329 10.9333 5.33329 12.6666C5.33336 16.0442 7.91741 19.3656 10.8854 22.0038C12.3266 23.285 13.7745 24.3305 14.8645 25.0572C15.3143 25.3571 15.7025 25.5989 16 25.7812C16.2974 25.5989 16.6856 25.3571 17.1354 25.0572C18.2254 24.3305 19.6733 23.285 21.1145 22.0038C24.0825 19.3656 26.6666 16.0442 26.6666 12.6666ZM29.3333 12.6666C29.3332 17.289 25.9173 21.3009 22.8854 23.996C21.3266 25.3816 19.7745 26.5027 18.6145 27.276C18.0333 27.6635 17.5475 27.9661 17.2044 28.1731C17.0328 28.2766 16.8968 28.3567 16.802 28.4114C16.7547 28.4387 16.7173 28.4592 16.6914 28.4739C16.6788 28.481 16.6687 28.4867 16.6614 28.4908C16.6579 28.4928 16.6545 28.4948 16.6523 28.496L16.6497 28.4973L16.6484 28.4986C16.648 28.4988 16.6475 28.4988 16 27.3333C15.3524 28.4988 15.3519 28.4988 15.3515 28.4986L15.3502 28.4973L15.3476 28.496C15.3454 28.4948 15.342 28.4928 15.3385 28.4908C15.3312 28.4867 15.3211 28.481 15.3086 28.4739C15.2826 28.4592 15.2452 28.4387 15.1979 28.4114C15.1032 28.3567 14.9671 28.2766 14.7955 28.1731C14.4524 27.9661 13.9666 27.6635 13.3854 27.276C12.2255 26.5027 10.6733 25.3816 9.11454 23.996C6.08258 21.3009 2.66669 17.289 2.66663 12.6666C2.66663 10.4001 3.33201 8.54087 4.47913 7.17701C5.62261 5.81767 7.17821 5.03062 8.80986 4.7955C11.3834 4.4247 14.1688 5.42023 16 7.68613C17.8311 5.42023 20.6166 4.4247 23.1901 4.7955C24.8217 5.03062 26.3773 5.81767 27.5208 7.17701C28.6679 8.54087 29.3333 10.4001 29.3333 12.6666Z" fill="#676767"/>
</svg>
