<svg width="46" height="47" viewBox="0 0 46 47" fill="none" xmlns="http://www.w3.org/2000/svg">
<rect x="1.25" y="0.75" width="43.5" height="44.8378" rx="21.75" stroke="#573E3E" stroke-width="1.5"/>
<path fill-rule="evenodd" clip-rule="evenodd" d="M13.1562 16.0325C13.1562 14.3756 14.4994 13.0325 16.1562 13.0325H29.8438C31.5006 13.0325 32.8438 14.3756 32.8438 16.0325V30.3052C32.8438 31.9621 31.5006 33.3052 29.8438 33.3052H16.1562C14.4994 33.3052 13.1562 31.9621 13.1562 30.3052V16.0325ZM26.6934 23.169C26.6934 21.0285 25.0153 19.3389 23 19.3389C20.9847 19.3389 19.3066 21.0285 19.3066 23.169C19.3067 25.3094 20.9847 26.9991 23 26.9991C25.0153 26.9991 26.6933 25.3094 26.6934 23.169ZM28.4941 23.169C28.4941 26.2534 26.0587 28.7989 23 28.7989C19.9413 28.7989 17.5059 26.2534 17.5059 23.169C17.5059 20.0845 19.9412 17.5381 23 17.5381C26.0588 17.5381 28.4941 20.0845 28.4941 23.169ZM28.9062 18.4386C29.6311 18.4386 30.2188 17.8335 30.2188 17.0871C30.2188 16.3406 29.6311 15.7355 28.9062 15.7355C28.1814 15.7355 27.5938 16.3406 27.5938 17.0871C27.5938 17.8335 28.1814 18.4386 28.9062 18.4386Z" fill="#573E3E"/>
</svg>
