<svg width="23" height="21" viewBox="0 0 23 21" fill="none" xmlns="http://www.w3.org/2000/svg">
<path d="M20.1847 2.80468C19.0575 1.67709 17.5629 0.991518 15.9729 0.872657C14.3829 0.753797 12.8031 1.20954 11.5207 2.157C10.1697 1.15218 8.48822 0.696541 6.81479 0.881848C5.14136 1.06716 3.60029 1.87964 2.50192 3.15569C1.40354 4.43174 0.829459 6.07657 0.895267 7.75894C0.961074 9.44132 1.66189 11.0363 2.85658 12.2226L10.7668 20.1329C10.8655 20.2324 10.9829 20.3114 11.1123 20.3653C11.2417 20.4192 11.3805 20.4469 11.5207 20.4469C11.6608 20.4469 11.7996 20.4192 11.929 20.3653C12.0584 20.3114 12.1758 20.2324 12.2745 20.1329L20.1847 12.2226C20.8034 11.6044 21.2942 10.8703 21.629 10.0623C21.9638 9.25432 22.1362 8.38827 22.1362 7.51366C22.1362 6.63904 21.9638 5.77299 21.629 4.96501C21.2942 4.15702 20.8034 3.42293 20.1847 2.80468V2.80468ZM18.6876 10.7255L11.5207 17.8819L4.35368 10.7255C3.72211 10.0913 3.29188 9.28475 3.11695 8.40697C2.94203 7.52919 3.03021 6.61931 3.37042 5.79145C3.71064 4.96359 4.28774 4.25464 5.02934 3.75351C5.77093 3.25238 6.64399 2.9814 7.539 2.97457C8.73468 2.9775 9.88032 3.45485 10.7243 4.30179C10.823 4.4013 10.9405 4.4803 11.0699 4.5342C11.1992 4.5881 11.338 4.61586 11.4782 4.61586C11.6184 4.61586 11.7571 4.5881 11.8865 4.5342C12.0159 4.4803 12.1333 4.4013 12.2321 4.30179C13.1009 3.54886 14.2234 3.15416 15.3723 3.19757C16.5212 3.24097 17.6107 3.71924 18.4203 4.53558C19.2299 5.35191 19.6991 6.44534 19.7329 7.59455C19.7668 8.74377 19.3628 9.86293 18.6027 10.7255H18.6876Z" fill="#535399"/>
</svg>
