<svg width="20" height="20" viewBox="0 0 20 20" fill="none" xmlns="http://www.w3.org/2000/svg">
<path d="M13.137 7.76355H10.3056V4.93215C10.3056 4.68184 10.2062 4.44178 10.0292 4.26478C9.85221 4.08778 9.61215 3.98835 9.36184 3.98835C9.11153 3.98835 8.87147 4.08778 8.69448 4.26478C8.51748 4.44178 8.41804 4.68184 8.41804 4.93215V7.76355H5.58664C5.33633 7.76355 5.09627 7.86298 4.91927 8.03998C4.74228 8.21698 4.64284 8.45704 4.64284 8.70735C4.64284 8.95766 4.74228 9.19772 4.91927 9.37472C5.09627 9.55171 5.33633 9.65115 5.58664 9.65115H8.41804V12.4825C8.41804 12.7329 8.51748 12.9729 8.69448 13.1499C8.87147 13.3269 9.11153 13.4263 9.36184 13.4263C9.61215 13.4263 9.85221 13.3269 10.0292 13.1499C10.2062 12.9729 10.3056 12.7329 10.3056 12.4825V9.65115H13.137C13.3874 9.65115 13.6274 9.55171 13.8044 9.37472C13.9814 9.19772 14.0808 8.95766 14.0808 8.70735C14.0808 8.45704 13.9814 8.21698 13.8044 8.03998C13.6274 7.86298 13.3874 7.76355 13.137 7.76355ZM19.4699 17.4753L15.9684 14.0021C17.3276 12.3074 17.9858 10.1564 17.8077 7.99129C17.6296 5.82621 16.6288 3.81165 15.011 2.36184C13.3932 0.912036 11.2813 0.13718 9.10977 0.196602C6.9382 0.256024 4.87192 1.14521 3.33581 2.68132C1.7997 4.21743 0.910519 6.28371 0.851097 8.45528C0.791675 10.6269 1.56653 12.7387 3.01634 14.3565C4.46615 15.9743 6.48071 16.9751 8.64578 17.1532C10.8109 17.3313 12.9619 16.6731 14.6566 15.3139L18.1297 18.7871C18.2175 18.8756 18.3219 18.9458 18.4369 18.9937C18.5519 19.0416 18.6753 19.0663 18.7998 19.0663C18.9244 19.0663 19.0478 19.0416 19.1628 18.9937C19.2778 18.9458 19.3822 18.8756 19.4699 18.7871C19.6401 18.6111 19.7351 18.376 19.7351 18.1312C19.7351 17.8864 19.6401 17.6512 19.4699 17.4753V17.4753ZM9.36184 15.3139C8.05518 15.3139 6.77786 14.9265 5.69141 14.2005C4.60496 13.4746 3.75818 12.4428 3.25814 11.2356C2.7581 10.0284 2.62727 8.70002 2.88219 7.41846C3.1371 6.13691 3.76632 4.95973 4.69027 4.03578C5.61422 3.11183 6.7914 2.48261 8.07296 2.22769C9.35451 1.97277 10.6829 2.10361 11.8901 2.60364C13.0973 3.10368 14.1291 3.95047 14.855 5.03692C15.581 6.12337 15.9684 7.40069 15.9684 8.70735C15.9684 10.4595 15.2724 12.1399 14.0334 13.3789C12.7944 14.6179 11.114 15.3139 9.36184 15.3139V15.3139Z" fill="#535399"/>
</svg>
