<svg width="32" height="32" viewBox="0 0 32 32" fill="none" xmlns="http://www.w3.org/2000/svg">
<path d="M13.3334 24C13.3334 25.4728 14.5273 26.6667 16.0001 26.6667C17.4728 26.6667 18.6667 25.4728 18.6667 24H13.3334ZM7.28654 1.543C7.86457 1.19303 8.62502 1.33155 9.04045 1.88284C9.48359 2.47092 9.36678 3.30685 8.77873 3.75003L8.47274 3.98831C6.96261 5.20472 5.7677 6.77003 4.99357 8.55211C4.70018 9.22752 3.91507 9.53691 3.23967 9.24352C2.56437 8.95007 2.25489 8.16496 2.54826 7.48961C3.55742 5.16659 5.15053 3.14409 7.17326 1.61982L7.28654 1.543ZM22.9597 1.88284C23.375 1.33171 24.1357 1.19342 24.7136 1.543L24.8269 1.61982L25.2019 1.91149C26.9242 3.29893 28.3102 5.0584 29.2566 7.05732L29.4532 7.48961L29.5014 7.61722C29.7067 8.2609 29.3946 8.96823 28.7618 9.24352C28.0864 9.53691 27.3 9.22752 27.0066 8.55211C26.2325 6.77028 25.0386 5.20462 23.5287 3.98831L23.2227 3.75003L23.1173 3.66279C22.6215 3.20373 22.5445 2.43418 22.9597 1.88284ZM8.00008 18.2969C8 18.8881 7.76467 19.4541 7.34774 19.8711L6.82821 20.3907C6.74399 20.4749 6.7017 20.5178 6.67196 20.5495C6.67077 20.5508 6.66909 20.5523 6.66805 20.5534V20.5573C6.66668 20.6011 6.66675 20.6612 6.66675 20.7813C6.66675 21.0532 6.66716 21.2019 6.67326 21.3099C6.67354 21.3149 6.67427 21.3198 6.67456 21.3242C6.67899 21.3245 6.68385 21.3266 6.68888 21.3269C6.79564 21.3329 6.94274 21.3334 7.21232 21.3334H24.7878C25.0576 21.3334 25.2055 21.3329 25.3126 21.3269C25.3167 21.3266 25.3206 21.3258 25.3243 21.3256C25.3246 21.3208 25.3266 21.3154 25.3269 21.3099C25.333 21.2019 25.3334 21.0531 25.3334 20.7813C25.3334 20.662 25.3322 20.6019 25.3308 20.5586C25.3307 20.5565 25.3309 20.554 25.3308 20.5521L25.3295 20.5508C25.2993 20.5186 25.2567 20.4754 25.172 20.3907L24.6524 19.8711C24.2349 19.4536 24.0002 18.8874 24.0001 18.2969V13.3334C24.0001 8.91507 20.4184 5.33335 16.0001 5.33336C11.5818 5.33337 8.00008 8.9151 8.00008 13.3334V18.2969ZM26.6667 18.1146L27.0574 18.5052C27.1849 18.6328 27.3586 18.8004 27.5001 18.9974C27.6814 19.25 27.8153 19.5295 27.8985 19.8229L27.9636 20.1211L27.9858 20.2982C28.0013 20.4746 28.0001 20.643 28.0001 20.7813C28.0001 21.1877 28.017 21.7193 27.8595 22.1862C27.5938 22.9732 26.9769 23.594 26.1863 23.8607C25.8369 23.9785 25.4514 23.9976 25.1108 24H21.3334C21.3334 26.9455 18.9456 29.3334 16.0001 29.3334C13.0546 29.3334 10.6667 26.9455 10.6667 24H6.88941C6.54906 23.9976 6.16441 23.9784 5.81519 23.8607C5.02671 23.5947 4.40571 22.9756 4.13941 22.1862C3.9819 21.7193 4.00008 21.1877 4.00008 20.7813C4.00008 20.5999 3.99602 20.3604 4.03524 20.1211C4.1016 19.7167 4.26005 19.3318 4.50008 18.9974C4.64127 18.8008 4.81301 18.635 4.94279 18.5052L5.33342 18.1146V13.3334C5.33342 7.44233 10.1091 2.66671 16.0001 2.66669C21.8911 2.66668 26.6667 7.44232 26.6667 13.3334V18.1146Z" fill="#C2BDAF"/>
</svg>
