<svg width="27" height="28" viewBox="0 0 27 28" fill="none" xmlns="http://www.w3.org/2000/svg">
<path d="M2.79636 5.25743C2.79636 5.03449 2.88492 4.82069 3.04255 4.66305C3.20019 4.50541 3.41399 4.41685 3.63693 4.41685H4.26231C5.32704 4.41685 5.96587 5.13302 6.33012 5.79876C6.57333 6.24258 6.74929 6.75701 6.88714 7.22324C6.92443 7.2203 6.96181 7.21881 6.99922 7.21876H21.0065C21.9367 7.21876 22.6092 8.10865 22.3537 9.00414L20.3049 16.1871C20.1212 16.8314 19.7326 17.3983 19.1979 17.8019C18.6632 18.2056 18.0116 18.424 17.3416 18.4241H10.6753C10.0001 18.4242 9.34346 18.2024 8.80647 17.793C8.26948 17.3836 7.88182 16.8091 7.70305 16.158L6.85128 13.0512L5.43911 8.29021L5.43799 8.28124C5.26315 7.64577 5.09952 7.05065 4.8552 6.60683C4.62096 6.17533 4.43267 6.098 4.26343 6.098H3.63693C3.41399 6.098 3.20019 6.00944 3.04255 5.8518C2.88492 5.69416 2.79636 5.48036 2.79636 5.25743ZM8.48198 12.6433L9.32368 15.713C9.49179 16.3205 10.0443 16.743 10.6753 16.743H17.3416C17.6461 16.743 17.9424 16.6438 18.1854 16.4604C18.4285 16.2769 18.6052 16.0193 18.6888 15.7265L20.6355 8.89991H7.37467L8.46629 12.5839L8.48198 12.6433Z" fill="#535399"/>
<path d="M12.3228 21.7887C12.3228 22.3832 12.0867 22.9533 11.6663 23.3737C11.246 23.794 10.6758 24.0302 10.0813 24.0302C9.48683 24.0302 8.91669 23.794 8.49633 23.3737C8.07596 22.9533 7.8398 22.3832 7.8398 21.7887C7.8398 21.1942 8.07596 20.624 8.49633 20.2037C8.91669 19.7833 9.48683 19.5471 10.0813 19.5471C10.6758 19.5471 11.246 19.7833 11.6663 20.2037C12.0867 20.624 12.3228 21.1942 12.3228 21.7887V21.7887ZM10.6417 21.7887C10.6417 21.64 10.5827 21.4975 10.4776 21.3924C10.3725 21.2873 10.2299 21.2283 10.0813 21.2283C9.9327 21.2283 9.79017 21.2873 9.68507 21.3924C9.57998 21.4975 9.52094 21.64 9.52094 21.7887C9.52094 21.9373 9.57998 22.0798 9.68507 22.1849C9.79017 22.29 9.9327 22.349 10.0813 22.349C10.2299 22.349 10.3725 22.29 10.4776 22.1849C10.5827 22.0798 10.6417 21.9373 10.6417 21.7887Z" fill="#535399"/>
<path d="M20.1682 21.7887C20.1682 22.3832 19.932 22.9533 19.5117 23.3737C19.0913 23.794 18.5212 24.0302 17.9267 24.0302C17.3322 24.0302 16.762 23.794 16.3417 23.3737C15.9213 22.9533 15.6851 22.3832 15.6851 21.7887C15.6851 21.1942 15.9213 20.624 16.3417 20.2037C16.762 19.7833 17.3322 19.5471 17.9267 19.5471C18.5212 19.5471 19.0913 19.7833 19.5117 20.2037C19.932 20.624 20.1682 21.1942 20.1682 21.7887V21.7887ZM18.487 21.7887C18.487 21.64 18.428 21.4975 18.3229 21.3924C18.2178 21.2873 18.0753 21.2283 17.9267 21.2283C17.778 21.2283 17.6355 21.2873 17.5304 21.3924C17.4253 21.4975 17.3663 21.64 17.3663 21.7887C17.3663 21.9373 17.4253 22.0798 17.5304 22.1849C17.6355 22.29 17.778 22.349 17.9267 22.349C18.0753 22.349 18.2178 22.29 18.3229 22.1849C18.428 22.0798 18.487 21.9373 18.487 21.7887Z" fill="#535399"/>
</svg>
