<svg width="18" height="18" viewBox="0 0 18 18" fill="none" xmlns="http://www.w3.org/2000/svg">
<path d="M15.2659 5.91491L11.0536 5.30273L9.17063 1.48531C9.1192 1.3808 9.03459 1.29619 8.93007 1.24476C8.66795 1.11535 8.34941 1.22319 8.21835 1.48531L6.33536 5.30273L2.1231 5.91491C2.00697 5.9315 1.90079 5.98625 1.8195 6.0692C1.72122 6.17021 1.66706 6.30611 1.66893 6.44703C1.6708 6.58795 1.72853 6.72236 1.82945 6.82073L4.87708 9.79205L4.15706 13.9877C4.14018 14.0853 4.15098 14.1857 4.18824 14.2775C4.2255 14.3692 4.28773 14.4487 4.36787 14.507C4.44801 14.5652 4.54286 14.5997 4.64166 14.6068C4.74046 14.6138 4.83926 14.5931 4.92685 14.5468L8.69449 12.5659L12.4621 14.5468C12.565 14.6016 12.6844 14.6198 12.7989 14.5999C13.0876 14.5501 13.2817 14.2764 13.2319 13.9877L12.5119 9.79205L15.5595 6.82073C15.6425 6.73944 15.6972 6.63327 15.7138 6.51713C15.7586 6.2268 15.5562 5.95804 15.2659 5.91491Z" fill="#FFC107"/>
</svg>
