<svg width="17" height="18" viewBox="0 0 17 18" fill="none" xmlns="http://www.w3.org/2000/svg">
<path d="M15.086 6.33056L10.8737 5.71838L8.9907 1.90096C8.93927 1.79645 8.85466 1.71184 8.75014 1.66041C8.48802 1.531 8.16948 1.63884 8.03842 1.90096L6.15543 5.71838L1.94317 6.33056C1.82704 6.34715 1.72086 6.4019 1.63957 6.48485C1.54129 6.58586 1.48713 6.72176 1.489 6.86268C1.49087 7.0036 1.5486 7.13801 1.64952 7.23638L4.69715 10.2077L3.97713 14.4034C3.96025 14.501 3.97105 14.6013 4.00831 14.6931C4.04557 14.7849 4.1078 14.8644 4.18794 14.9226C4.26808 14.9808 4.36293 15.0154 4.46173 15.0224C4.56053 15.0295 4.65933 15.0087 4.74692 14.9625L8.51456 12.9816L12.2822 14.9625C12.3851 15.0172 12.5045 15.0355 12.619 15.0155C12.9077 14.9658 13.1018 14.692 13.052 14.4034L12.332 10.2077L15.3796 7.23638C15.4626 7.15509 15.5173 7.04891 15.5339 6.93278C15.5787 6.64245 15.3763 6.37369 15.086 6.33056Z" fill="#B2B2B2"/>
</svg>
