<svg width="25" height="24" viewBox="0 0 25 24" fill="none" xmlns="http://www.w3.org/2000/svg">
<path d="M18.5065 6.7176C18.3819 6.65321 18.2606 6.58261 18.1431 6.50609C17.8013 6.28013 17.4879 6.01388 17.2097 5.71309C16.5136 4.91663 16.2537 4.10863 16.1579 3.54292H16.1618C16.0818 3.07335 16.1148 2.76953 16.1198 2.76953H12.9494V15.0291C12.9494 15.1937 12.9494 15.3564 12.9425 15.5171C12.9425 15.5371 12.9405 15.5556 12.9394 15.5771C12.9394 15.586 12.9394 15.5952 12.9375 15.6044C12.9375 15.6067 12.9375 15.609 12.9375 15.6113C12.904 16.0512 12.763 16.4761 12.5269 16.8487C12.2907 17.2213 11.9665 17.5301 11.583 17.7481C11.1832 17.9755 10.7311 18.0948 10.2712 18.0942C8.79403 18.0942 7.59684 16.8897 7.59684 15.4021C7.59684 13.9146 8.79403 12.7101 10.2712 12.7101C10.5508 12.7098 10.8287 12.7538 11.0946 12.8405L11.0984 9.61232C10.2913 9.50806 9.47139 9.57221 8.69033 9.8007C7.90928 10.0292 7.18405 10.4171 6.5604 10.9399C6.01394 11.4147 5.55453 11.9812 5.20284 12.6139C5.06901 12.8447 4.56406 13.7719 4.50291 15.2768C4.46445 16.1309 4.72097 17.0158 4.84326 17.3815V17.3892C4.92018 17.6046 5.21823 18.3395 5.70395 18.9591C6.09562 19.4561 6.55836 19.8926 7.07727 20.2547V20.247L7.08496 20.2547C8.61981 21.2977 10.3216 21.2292 10.3216 21.2292C10.6162 21.2173 11.603 21.2292 12.7236 20.6981C13.9666 20.1094 14.6742 19.2321 14.6742 19.2321C15.1263 18.708 15.4857 18.1107 15.7372 17.4658C16.0241 16.7116 16.1198 15.8071 16.1198 15.4456V8.94161C16.1583 8.96469 16.6706 9.3035 16.6706 9.3035C16.6706 9.3035 17.4086 9.77653 18.56 10.0846C19.3861 10.3038 20.499 10.3499 20.499 10.3499V7.20255C20.1091 7.24486 19.3172 7.12179 18.5065 6.7176Z" fill="#C2BDAF"/>
</svg>
