<svg width="25" height="24" viewBox="0 0 25 24" fill="none" xmlns="http://www.w3.org/2000/svg">
<path d="M5.5 17.7998V7H4.5C3.94772 7 3.5 6.55229 3.5 6C3.5 5.44772 3.94772 5 4.5 5H7.51562C7.5181 4.94421 7.51792 4.89008 7.52148 4.83789C7.54399 4.50816 7.5936 4.17835 7.72852 3.85254C8.03279 3.11795 8.61611 2.5332 9.35156 2.22852C9.67753 2.0935 10.008 2.04398 10.3379 2.02148C10.6587 1.99962 11.0479 2 11.5 2H13.5C13.9521 2 14.3413 1.99961 14.6621 2.02148C14.9919 2.04399 15.3225 2.09351 15.6484 2.22852C16.3836 2.53317 16.9672 3.11788 17.2715 3.85254C17.4064 4.17827 17.456 4.50814 17.4785 4.83789C17.4821 4.89008 17.4819 4.94422 17.4844 5H20.5C21.0523 5 21.5 5.44772 21.5 6C21.5 6.55229 21.0523 7 20.5 7H19.5V17.8027C19.5 18.345 19.501 18.8122 19.4697 19.1953C19.4374 19.5902 19.3655 19.9832 19.1729 20.3613C18.8851 20.926 18.4256 21.3853 17.8613 21.6729C17.4833 21.8655 17.0902 21.9374 16.6953 21.9697C16.3123 22.001 15.845 22 15.3027 22H9.69727C9.1548 22 8.687 22.001 8.30371 21.9697C7.90888 21.9374 7.51581 21.8655 7.1377 21.6729C6.57245 21.3848 6.11428 20.9249 5.82715 20.3613C5.6345 19.9832 5.56259 19.5904 5.53027 19.1953C5.49892 18.8117 5.5 18.3433 5.5 17.7998ZM9.5 17V10C9.5 9.44772 9.94772 9 10.5 9C11.0523 9 11.5 9.44772 11.5 10V17C11.5 17.5523 11.0523 18 10.5 18C9.94772 18 9.5 17.5523 9.5 17ZM13.5 17V10C13.5 9.44772 13.9477 9 14.5 9C15.0523 9 15.5 9.44772 15.5 10V17C15.5 17.5523 15.0523 18 14.5 18C13.9477 18 13.5 17.5523 13.5 17ZM11.5 4C11.0204 4 10.7107 4.00043 10.4736 4.0166C10.2457 4.03215 10.1588 4.05895 10.1172 4.07617C9.87271 4.17744 9.67789 4.37187 9.57617 4.61719C9.55893 4.65882 9.53216 4.74592 9.5166 4.97363C9.51602 4.98223 9.51617 4.99121 9.51562 5H15.4844C15.4838 4.99124 15.484 4.9822 15.4834 4.97363C15.4678 4.74602 15.4411 4.65888 15.4238 4.61719C15.3222 4.37204 15.1274 4.17752 14.8828 4.07617C14.8412 4.05894 14.7543 4.03216 14.5264 4.0166C14.2894 4.00043 13.9796 4 13.5 4H11.5ZM7.5 17.7998C7.5 18.3764 7.50029 18.749 7.52344 19.0322C7.54559 19.3031 7.58416 19.4036 7.60938 19.4531C7.70569 19.6422 7.85861 19.7962 8.0459 19.8916C8.0952 19.9167 8.19594 19.9544 8.4668 19.9766C8.74974 19.9997 9.12182 20 9.69727 20H15.3027C15.8779 20 16.2496 19.9996 16.5322 19.9766C16.8025 19.9545 16.9037 19.9167 16.9531 19.8916C17.1415 19.7956 17.2958 19.6411 17.3916 19.4531C17.4167 19.4037 17.4545 19.303 17.4766 19.0332C17.4997 18.7504 17.5 18.3782 17.5 17.8027V7H7.5V17.7998Z" fill="#C2BDAF"/>
</svg>
