<svg width="44" height="45" viewBox="0 0 44 45" fill="none" xmlns="http://www.w3.org/2000/svg">
<rect x="1.25" y="0.75" width="41.2886" height="42.5606" rx="20.6443" stroke="#573E3E" stroke-width="1.5"/>
<path d="M29.6676 17.8931C29.6676 18.0793 29.6676 18.2656 29.6676 18.4252C29.6676 23.9328 25.727 30.2918 18.5443 30.2918C16.3246 30.2918 14.2795 29.6 12.5337 28.4293C12.833 28.4559 13.1572 28.4825 13.4565 28.4825C15.2771 28.4825 16.973 27.8173 18.3198 26.6999C16.5989 26.6733 15.1524 25.4494 14.6785 23.7997C14.9279 23.853 15.1524 23.8796 15.4268 23.8796C15.7759 23.8796 16.1251 23.8264 16.4493 23.7199C14.6536 23.3474 13.3068 21.6712 13.3068 19.6491C13.3068 19.6225 13.3068 19.6225 13.3068 19.5959C13.8306 19.9152 14.4291 20.1014 15.0776 20.128C14.0301 19.383 13.3318 18.1059 13.3318 16.6426C13.3318 15.871 13.5313 15.1526 13.8555 14.5406C15.7759 17.0683 18.669 18.7179 21.9112 18.9041C21.8364 18.6115 21.8114 18.2656 21.8114 17.9463C21.8114 15.6315 23.5572 13.769 25.727 13.769C26.8493 13.769 27.8719 14.2746 28.5702 15.0728C29.4681 14.8865 30.2911 14.5406 31.0642 14.0617C30.7649 15.0462 30.1414 15.8444 29.3434 16.3765C30.1414 16.2701 30.8897 16.0572 31.588 15.7113C31.0892 16.5627 30.4407 17.3077 29.6676 17.8931Z" fill="#573E3E"/>
</svg>
