<svg width="25" height="24" viewBox="0 0 25 24" fill="none" xmlns="http://www.w3.org/2000/svg">
<path d="M12.5 2C18.0228 2 22.5 6.47715 22.5 12C22.5 17.5228 18.0228 22 12.5 22C6.97715 22 2.5 17.5228 2.5 12C2.5 6.47715 6.97715 2 12.5 2ZM9.52637 13C9.62806 14.9665 10.0235 16.6947 10.585 17.958C10.9129 18.696 11.2784 19.2311 11.6328 19.5684C11.982 19.9006 12.2731 20 12.5 20C12.7269 20 13.018 19.9006 13.3672 19.5684C13.7216 19.2311 14.0871 18.696 14.415 17.958C14.9765 16.6947 15.3719 14.9665 15.4736 13H9.52637ZM4.56445 13C4.90263 15.7111 6.59575 17.9992 8.94629 19.167C8.88161 19.0373 8.81782 18.9055 8.75781 18.7705C8.06803 17.2185 7.6266 15.204 7.52344 13H4.56445ZM17.4766 13C17.3734 15.204 16.932 17.2185 16.2422 18.7705C16.1821 18.9056 16.1175 19.0372 16.0527 19.167C18.4037 17.9994 20.0973 15.7114 20.4355 13H17.4766ZM16.0527 4.83203C16.1176 4.96209 16.182 5.09409 16.2422 5.22949C16.932 6.7815 17.3734 8.79597 17.4766 11H20.4355C20.0973 8.28848 18.4039 5.9996 16.0527 4.83203ZM12.5 4C12.2731 4 11.982 4.09945 11.6328 4.43164C11.2784 4.76891 10.9129 5.30403 10.585 6.04199C10.0235 7.30527 9.62806 9.03348 9.52637 11H15.4736C15.3719 9.03348 14.9765 7.30527 14.415 6.04199C14.0871 5.30403 13.7216 4.76891 13.3672 4.43164C13.018 4.09945 12.7269 4 12.5 4ZM8.94629 4.83203C6.59555 5.99972 4.90265 8.28879 4.56445 11H7.52344C7.6266 8.79597 8.06803 6.7815 8.75781 5.22949C8.81794 5.09422 8.88147 4.96197 8.94629 4.83203Z" fill="#C2BDAF"/>
</svg>
