<svg width="652" height="116" viewBox="0 0 652 116" fill="none" xmlns="http://www.w3.org/2000/svg">
<path d="M170.192 46.9971C170.192 60.3971 170.192 73.7971 170.192 87.3971C170.192 93.3971 170.192 99.1971 170.592 105.197C170.992 111.597 167.992 114.597 161.592 114.397C158.592 114.397 155.592 114.197 152.592 114.197C151.392 114.197 150.792 113.997 150.592 112.597C150.192 108.997 150.192 105.397 150.192 101.797C150.192 88.1971 150.192 74.5971 149.992 60.9971C149.992 43.7971 149.792 26.7971 149.592 9.5971C149.592 3.9971 151.592 1.99708 157.192 1.79708C159.592 1.79708 161.992 1.59709 164.392 1.99709C170.992 2.79709 175.392 6.59709 177.992 12.3971C185.792 29.7971 195.392 46.3971 204.392 62.9971C204.592 63.3971 204.792 63.7971 205.392 64.5971C206.792 61.9971 208.192 59.5971 209.392 56.9971C217.592 41.3971 225.992 25.7971 233.992 9.9971C235.192 7.5971 236.992 5.7971 239.192 4.5971C243.592 2.1971 248.392 0.997089 253.392 1.39709C258.392 1.79709 259.792 3.5971 259.792 8.5971C259.792 22.5971 259.992 36.7971 259.992 50.7971C259.992 69.7971 259.992 88.7971 259.792 107.597C259.792 108.197 259.792 108.797 259.792 109.197C259.592 112.197 258.792 112.997 255.792 113.197C251.992 113.397 248.392 114.397 244.592 113.797C241.392 113.397 239.992 111.997 239.392 108.797C238.992 106.797 238.992 104.597 238.792 102.597C238.792 84.5971 238.792 66.3971 238.792 48.3971C238.792 47.5971 239.392 46.3971 237.992 45.9971C236.592 45.5971 236.392 46.5971 235.792 47.5971C229.392 59.5971 223.392 71.7971 216.592 83.7971C214.992 86.5971 212.992 88.9971 210.192 90.7971C204.792 94.3971 198.992 93.3971 195.192 87.9971C193.392 85.5971 192.192 82.7971 190.792 79.9971C184.792 68.9971 178.392 58.1971 171.392 47.7971C171.192 47.3971 170.792 46.9971 170.392 46.5971C170.592 46.7971 170.392 46.9971 170.192 46.9971Z" fill="#252525"/>
<path d="M92.5916 57.3968C92.5916 74.9968 92.5916 92.7968 92.5916 110.397C92.5916 112.197 92.1916 112.997 90.1916 113.197C86.5916 113.597 82.9916 114.397 79.1916 114.397C74.1916 114.397 72.3916 112.597 71.7916 107.597C71.1916 102.797 71.3916 98.1968 71.3916 93.3968C71.3916 85.9968 71.3916 78.5968 71.3916 71.3968C71.3916 68.9968 70.7915 68.1969 68.1916 68.1969C54.1916 68.3969 40.3916 68.1969 26.3916 68.1969C24.3916 68.1969 23.9916 68.7968 23.9916 70.5968C23.9916 83.5968 23.9916 96.5968 23.9916 109.597C23.9916 111.397 23.5916 112.197 21.5916 112.397C16.3916 112.597 11.3916 112.997 6.19156 113.197C1.99156 113.397 0.791553 111.997 0.791553 107.997C0.791553 86.3968 0.591553 64.9968 0.591553 43.3968C0.591553 33.9968 0.591553 24.5968 0.591553 15.3968C0.591553 12.5968 0.791554 9.59685 1.99155 6.99685C4.19155 1.39685 8.79155 -0.603167 15.5916 0.796833C21.5916 2.19683 23.1916 4.19686 23.3916 10.1969C23.7916 21.1969 23.7916 32.1969 23.5916 43.1969C23.5916 45.1969 24.1916 45.7968 26.1916 45.7968C40.1916 45.7968 54.3916 45.7968 68.3916 45.7968C70.3916 45.7968 70.9916 45.3968 70.9916 43.3968C70.9916 31.7968 70.9916 19.9968 70.9916 8.39684C70.9916 2.99684 72.3916 1.59685 77.9916 1.59685C81.9916 1.59685 85.9916 1.59685 89.9916 1.59685C91.7916 1.59685 92.1916 1.99683 92.1916 3.79683C92.5916 21.7968 92.5916 39.5968 92.5916 57.3968Z" fill="#252525"/>
<path d="M355.391 73.5969C355.391 61.3969 355.391 49.1969 355.391 37.1969C355.391 35.5969 355.591 34.9969 357.391 34.5969C360.991 33.9969 364.591 33.1969 368.391 33.1969C371.391 33.3969 373.791 34.3969 374.791 37.3969C375.191 38.7969 375.791 38.3969 376.791 38.1969C381.791 36.7969 386.591 34.7969 391.591 33.7969C397.791 32.3969 403.591 33.5969 409.191 35.9969C412.591 37.5969 416.191 39.1969 419.591 40.7969C420.791 41.3969 421.791 41.3969 422.991 40.7969C426.191 38.9969 429.191 37.3969 432.591 35.7969C452.591 26.3969 472.391 38.7969 472.991 60.9969C473.391 76.3969 473.191 91.5969 473.191 106.997C473.191 112.197 471.391 113.997 466.391 113.997C463.191 113.997 459.791 114.597 456.591 114.197C454.191 113.797 452.791 112.397 452.391 109.997C451.991 107.797 451.991 105.397 451.991 102.997C451.991 90.9969 451.991 78.9969 451.791 66.9969C451.791 65.3969 451.591 63.5969 451.391 61.9969C449.791 53.9969 443.591 51.7969 435.991 52.7969C428.991 53.7969 425.191 58.3969 425.191 66.5969C424.991 81.1969 425.191 95.7969 425.191 110.197C425.191 112.197 424.591 112.597 422.791 112.597C417.191 112.397 411.591 112.397 405.991 112.597C404.191 112.597 403.791 112.197 403.791 110.397C403.991 96.3969 403.991 82.5969 403.991 68.5969C403.991 65.3969 403.791 61.9969 402.591 58.9969C401.591 55.9969 399.391 53.9969 396.391 53.1969C392.391 52.1969 388.391 52.1969 384.591 53.3969C378.991 55.1969 375.991 59.7969 375.791 66.7969C374.991 81.1969 375.591 95.5969 375.591 109.997C375.591 112.197 374.991 112.797 372.791 112.597C367.991 112.397 362.991 112.397 358.191 112.597C356.591 112.597 355.991 112.197 355.991 110.397C355.591 98.1969 355.391 85.9969 355.391 73.5969Z" fill="#252525"/>
<path d="M504.192 106.997C502.192 112.597 500.192 113.597 494.392 113.597C486.792 113.597 485.792 111.197 485.792 104.597C485.792 71.1971 485.792 37.9971 485.592 4.59708C485.592 2.39708 486.192 1.99707 488.192 1.99707C492.792 2.19707 497.392 2.19707 502.192 1.99707C504.592 1.99707 505.392 2.39707 505.392 4.99707C505.192 16.1971 505.392 27.3971 505.392 38.5971C505.392 39.3971 505.192 40.1971 505.592 40.9971C508.392 39.5971 511.192 37.9971 513.992 36.7971C538.592 25.3971 555.592 40.7971 561.792 56.7971C566.392 68.7971 566.392 80.9971 561.592 92.7971C554.792 109.597 539.792 119.597 519.192 113.197C513.992 111.597 508.992 109.397 504.192 106.997ZM525.192 96.3971C529.992 96.3971 534.192 94.7971 537.392 91.7971C546.192 83.1971 546.392 65.7971 537.592 56.7971C527.992 46.9971 512.792 49.9971 507.592 62.7971C505.592 67.5971 505.392 72.5971 505.792 77.5971C506.792 88.7971 514.592 96.3971 525.192 96.3971Z" fill="#252525"/>
<path d="M320.992 104.997C320.392 105.797 319.792 106.797 318.992 107.597C308.192 118.397 287.592 116.197 278.792 106.397C272.792 99.5971 270.792 91.3971 273.592 82.7971C276.592 73.5971 283.592 68.1972 292.792 66.1972C300.792 64.3972 308.992 65.1972 317.192 65.3972C318.992 65.3972 319.992 65.1972 320.192 63.1972C320.992 58.9972 319.792 55.3972 316.592 52.5972C310.992 47.9972 303.992 47.5972 299.192 51.3972C297.992 52.3972 297.192 53.5971 296.192 54.7971C294.192 57.3971 291.592 58.9972 288.192 58.9972C285.592 59.1972 282.992 59.1971 280.392 58.7971C276.192 58.3971 274.792 55.9972 276.192 52.1972C278.792 44.1972 284.192 38.5972 291.792 34.9972C300.792 30.7972 310.392 30.3972 319.792 32.9972C330.792 35.9972 338.792 45.7972 339.992 57.1972C340.392 59.9972 340.392 62.9971 340.392 65.7971C340.392 80.5971 340.392 95.3972 340.392 110.197C340.392 111.997 339.992 112.597 337.992 112.597C333.992 112.397 329.792 112.397 325.792 112.597C323.392 112.797 322.592 111.797 322.392 109.597C322.192 107.997 321.792 106.597 321.392 104.997C321.392 105.197 321.192 104.997 320.992 104.997ZM305.992 98.1972C307.792 97.9972 309.992 97.5972 311.792 96.1972C317.192 92.5972 319.192 86.9972 320.192 80.9972C320.392 79.5972 319.392 79.9972 318.792 79.9972C312.992 79.9972 307.392 79.9972 301.592 79.9972C299.392 79.9972 297.392 80.3971 295.392 81.7971C293.392 83.1971 292.392 84.9972 292.792 87.5972C293.792 92.9972 299.992 98.1972 305.992 98.1972Z" fill="#252525"/>
<path d="M571.592 72.9969C571.792 61.1969 574.792 50.3969 583.992 42.1969C592.192 34.7969 601.992 32.1969 612.592 32.3969C634.792 32.7969 649.992 47.3969 651.792 69.5969C652.592 79.5969 651.192 88.9969 645.792 97.5969C638.992 108.397 628.992 113.597 616.592 114.997C609.392 115.797 602.192 115.197 595.392 112.397C582.392 107.197 575.192 96.9969 572.592 83.5969C571.792 79.9969 571.592 76.5969 571.592 72.9969ZM611.792 96.3969C620.592 96.5969 627.792 91.7969 630.392 83.3969C632.792 76.1969 632.392 68.9969 629.192 61.9969C625.792 54.7969 619.992 50.7968 611.992 50.7968C604.192 50.5968 598.192 54.1969 594.392 61.1969C591.792 65.9969 591.392 71.3968 591.792 76.7968C592.592 88.3969 600.392 95.9969 611.792 96.3969Z" fill="#252525"/>
<path d="M111.792 73.3968C111.792 61.3968 111.792 49.3968 111.792 37.3968C111.792 35.1968 112.392 34.5968 114.592 34.7968C119.592 34.9968 124.592 34.7968 129.392 34.7968C130.792 34.7968 131.192 35.1968 131.192 36.5968C131.192 61.3968 131.192 85.9968 131.192 110.797C131.192 112.197 130.792 112.597 129.192 112.597C123.992 112.597 118.992 112.597 113.792 112.597C112.192 112.597 111.592 111.997 111.592 110.397C111.792 97.9968 111.792 85.7968 111.792 73.3968Z" fill="#252525"/>
<path d="M109.391 12.1972C109.391 5.59722 115.192 -0.202788 121.792 -0.00278817C128.192 0.197212 134.391 6.3972 134.391 12.7972C134.391 18.9972 128.192 24.7972 121.792 24.7972C114.992 24.7972 109.191 18.7972 109.391 12.1972Z" fill="#252525"/>
</svg>
