<svg width="200" height="37" viewBox="0 0 200 37" fill="none" xmlns="http://www.w3.org/2000/svg">
<path d="M5.21886 29.9095C4.20436 32.0164 2.72548 33.6475 0.503583 34.5395C0.475005 34.5515 0.448809 34.5634 0.422613 34.5778C-0.106069 34.8696 -0.137028 35.6229 0.320211 36.0175C0.429758 36.1132 0.546449 36.1873 0.672666 36.2184C3.05412 36.8043 5.2784 36.5461 7.12878 34.7285C8.88153 33.0089 9.78649 30.7752 10.8319 28.6204C11.1582 27.9508 11.4821 27.2763 11.8083 26.6067C10.8867 25.1957 9.53167 24.1314 8.31237 23.3853C7.23833 25.5377 6.26194 27.7403 5.21648 29.9095H5.21886Z" fill="#CB5037"/>
<path d="M24.3276 23.9592C24.3538 23.3303 24.3729 22.7013 24.38 22.0723C24.3991 20.3265 24.0085 18.6619 22.7868 17.3179C20.896 15.2372 17.3952 14.7661 14.5446 16.1795C11.8393 17.5212 10.1485 19.8314 8.81009 22.4119C8.64339 22.7348 8.47907 23.06 8.31475 23.3853C9.53405 24.1314 10.8891 25.1957 11.8107 26.6067C12.4442 25.3105 13.0919 24.0214 13.8111 22.7778C14.3065 21.9192 15.0924 21.1707 15.8925 20.5656C16.7213 19.939 17.7667 19.664 18.7884 20.1782C19.8267 20.6995 19.9458 21.7112 19.9434 22.7372C19.9386 24.4782 19.9243 26.2169 19.9124 27.9579C21.6009 27.195 23.206 25.4253 24.3253 23.9569L24.3276 23.9592Z" fill="#FFE146"/>
<path d="M32.4603 27.9508C32.4174 27.9914 32.3746 28.0297 32.3341 28.0704C31.11 29.2063 30.0241 30.5456 28.65 31.4496C26.309 32.9922 24.1419 31.7366 24.149 28.9481C24.1538 27.2835 24.261 25.6214 24.3276 23.9569C23.2084 25.4253 21.6033 27.195 19.9148 27.9579C19.9148 28.2019 19.91 28.4458 19.91 28.6898C19.8981 29.1896 19.7957 31.5716 20.1125 32.9611C20.5888 35.0513 21.9652 36.3284 24.0728 36.7924C26.4471 37.3161 28.6785 36.8402 30.6004 35.4698C32.2293 34.3075 33.651 32.8511 35.1299 31.4855C35.2895 31.3372 35.4466 31.1889 35.6038 31.0407C35.2418 29.4311 33.5891 28.4482 32.4603 27.9508Z" fill="#F1A501"/>
<path d="M47.13 24.77C47.6992 24.2462 47.4563 23.4833 47.0634 22.8783C46.4061 21.8666 45.3702 21.4361 44.2604 21.1372C41.8718 20.4963 39.8309 21.429 38.071 22.8256C36.092 24.3969 34.3131 26.2217 32.4579 27.9508C33.5867 28.4458 35.2395 29.4288 35.6014 31.0407C37.1327 29.5938 38.5973 28.0703 40.2072 26.7239C41.6837 25.4899 43.3959 24.8106 45.4416 25.3344C45.9369 25.4612 46.7204 25.1479 47.13 24.77Z" fill="#0DBFA8"/>
<path d="M28.0093 27.5012C28.3522 27.9245 28.8595 28.3478 29.2072 28.276C29.5834 28.1995 29.8097 27.7953 29.9859 27.274C30.055 27.0133 30.1407 26.59 30.124 26.3173C30.0407 25.0881 29.9026 23.8612 29.8692 22.6319C29.7287 17.4255 31.7339 13.135 35.6061 9.68879C35.0203 10.9587 34.4107 12.2167 33.8582 13.5009C32.8294 15.8877 31.7363 18.2649 31.5481 20.9124C31.4148 22.7946 32.215 23.3255 33.882 22.4717C36.6492 21.0535 38.883 19.0207 40.5096 16.3684C43.3863 11.6834 43.1911 6.67064 41.9741 1.56226C41.8122 0.880663 41.374 0.777826 40.8144 0.988284C39.857 1.34463 38.8902 1.6914 37.9614 2.1171C33.339 4.22407 29.6382 7.31875 27.5759 12.1067C26.0279 15.6964 25.9755 19.4368 26.6781 23.2011C26.9519 24.6695 27.0686 26.3389 28.0117 27.5035L28.0093 27.5012Z" fill="#597F31"/>
<g clip-path="url(#clip0_813_1162)">
<path d="M113.579 13.5283V36.6356H110.944C109.904 36.6356 109.068 35.7086 109.068 34.5691V20.7029L103.643 32.1068C103.322 32.7827 102.68 33.2173 101.98 33.2173H100.483C99.7733 33.2173 99.1317 32.7827 98.8109 32.0875L93.5901 20.7125V34.5788C93.5901 35.7182 92.754 36.6452 91.7137 36.6452H89.1179V13.5283C89.1179 12.3889 89.954 11.4619 90.9943 11.4619H93.0651C93.804 11.4619 94.4748 11.9447 94.7762 12.6882L101.202 25.7337L107.901 12.6882C108.202 11.9447 108.873 11.4619 109.612 11.4619H111.712C112.752 11.4619 113.588 12.3889 113.588 13.5283H113.579Z" fill="#763426"/>
<path d="M160.236 25.0114V36.6442H157.579C156.419 36.6442 155.472 35.7343 155.472 34.6092V25.9995C155.472 23.8471 154.593 22.7807 152.873 22.7807C151.009 22.7807 149.646 24.2287 149.608 26.9486V34.3353C149.608 35.6071 148.545 36.6344 147.221 36.6344H144.835V25.9898C144.835 23.8373 143.955 22.7709 142.236 22.7709C140.332 22.7709 138.97 24.2874 138.97 27.154V34.5994C138.97 35.7246 138.023 36.6344 136.864 36.6344H134.236V19.826C134.236 19.2096 134.728 18.7205 135.327 18.7205H136.487C137.53 18.7205 138.41 19.4542 138.564 20.4424L138.661 21.049C139.646 19.2488 141.298 18.3291 143.608 18.3291C146.207 18.3291 148.004 19.3857 148.922 21.4795C149.839 19.6401 151.781 18.3291 154.274 18.3291C158.12 18.3291 160.207 20.8729 160.207 25.0114H160.236Z" fill="#763426"/>
<path d="M124.207 17.9482C120.728 17.9482 118.192 19.6506 117.228 22.2824C116.875 23.2412 117.681 24.2392 118.85 24.2392H119.499C120.393 24.2392 121.288 23.8576 121.73 23.1043C122.172 22.3411 123.087 21.8715 124.217 21.8715C125.937 21.8715 126.812 22.7912 126.812 24.5914V25.2665L122.015 26.1176C118.388 26.6851 116.265 28.2016 116.265 31.4889C116.265 34.7762 118.536 36.6449 121.897 36.6449C124.276 36.6449 126.035 35.7937 127.205 34.062L127.264 34.4827C127.402 35.4904 128.296 36.2536 129.348 36.2536H131.559V24.4935C131.559 20.2181 128.738 17.958 124.207 17.958V17.9482ZM122.674 33.0641C121.868 32.9369 120.855 32.0564 120.551 31.2737C120.128 30.1975 121.022 29.4637 122.113 29.268C123.421 29.0332 124.728 28.8571 126.153 28.6418C126.301 31.5085 124.797 33.3967 122.674 33.0543V33.0641Z" fill="#763426"/>
<path d="M83.0004 16.4223C84.4786 16.4223 85.6769 15.3118 85.6769 13.9421C85.6769 12.5723 84.4786 11.4619 83.0004 11.4619C81.5223 11.4619 80.324 12.5723 80.324 13.9421C80.324 15.3118 81.5223 16.4223 83.0004 16.4223Z" fill="#763426"/>
<path d="M85.2945 18.7104H80.7063V36.2624H85.2945V18.7104Z" fill="#763426"/>
<path d="M197.43 21.9303C199.15 23.5521 200 25.6442 200 28.2352C200 30.8263 199.16 32.9471 197.43 34.5689C195.74 36.1907 193.58 37.0256 190.981 37.0256C188.381 37.0256 186.251 36.2003 184.56 34.5689C182.87 32.9471 182.03 30.8263 182.03 28.2352C182.03 25.6442 182.87 23.5617 184.56 21.9303C186.251 20.3085 188.381 19.4736 190.981 19.4736C193.58 19.4736 195.74 20.2989 197.43 21.9303ZM187.805 24.7805C186.964 25.673 186.554 26.8341 186.554 28.2256C186.554 29.6171 186.964 30.7783 187.805 31.7092C188.645 32.6016 189.7 33.0719 191.01 33.0719C193.609 33.0719 195.437 31.0182 195.437 28.2352C195.437 25.4522 193.678 23.389 191.01 23.389C189.691 23.389 188.645 23.8496 187.805 24.7805Z" fill="#763426"/>
<path d="M76.4906 12.5552V36.6355H73.5977C72.456 36.6355 71.5369 35.7745 71.5369 34.7199V26.6802H60.7683V36.6452H57.9141C56.7724 36.6452 55.8533 35.7842 55.8533 34.7296V13.3775C55.8533 12.323 56.7724 11.4619 57.9141 11.4619H59.5976C60.2458 11.4619 60.778 11.9553 60.778 12.5552V22.3556H71.5466V13.3775C71.5466 12.3133 72.4657 11.4619 73.6074 11.4619H75.3199C75.9681 11.4619 76.5003 11.9553 76.5003 12.5552H76.4906Z" fill="#763426"/>
<path d="M178.01 21.3783C176.569 19.8851 174.502 19.1097 172.416 19.1576C170.244 19.2055 168.629 19.9329 167.572 21.34V12.5435C167.572 11.9405 167.081 11.4619 166.485 11.4619H165.197C164.14 11.4619 163.294 12.3138 163.294 13.3571V36.2911H165.332C166.274 36.2911 167.081 35.6019 167.216 34.6639L167.312 34.0321C168.504 35.7837 170.301 36.6452 172.656 36.6452C174.887 36.6452 176.742 35.822 178.241 34.1278C179.741 32.4432 180.5 30.3566 180.5 27.8775C180.5 25.2548 179.683 23.1107 178.01 21.3687V21.3783ZM171.763 32.6155C170.599 32.6155 169.6 32.2231 168.773 31.3903C167.947 30.5671 167.514 29.409 167.514 27.9828V27.7818C167.552 26.3556 167.975 25.2644 168.812 24.4412C169.638 23.618 170.638 23.1873 171.772 23.1873C174.166 23.1873 176.021 25.1017 176.021 27.887C176.021 30.6724 174.194 32.6155 171.772 32.6155H171.763Z" fill="#763426"/>
</g>
<defs>
<clipPath id="clip0_813_1162">
<rect width="144.147" height="25.9464" fill="white" transform="translate(55.8533 11.0537)"/>
</clipPath>
</defs>
</svg>
