<svg width="651" height="495" viewBox="0 0 651 495" fill="none" xmlns="http://www.w3.org/2000/svg">
<path d="M486.581 123.892C469.577 138.606 455.19 155.609 443.092 174.574C424.781 203.349 414.644 234.74 411.374 268.419C409.412 290.327 411.047 311.908 412.682 333.816C413.663 344.279 414.971 354.416 410.72 364.879C405.489 377.305 398.295 378.94 388.485 369.457C379.33 360.629 374.425 349.838 371.809 337.74C365.269 306.349 359.384 274.632 360.038 242.26C361.019 181.114 382.6 128.797 424.127 84.3267C458.133 48.0315 500.314 24.4886 546.092 7.15842C551.324 5.19651 556.228 3.2346 561.46 1.59968C569.308 -1.01619 574.213 1.59968 576.174 9.77429C582.06 32.9902 585.984 56.8601 587.292 80.7299C588.927 109.178 586.638 137.298 577.809 164.765C559.171 222.314 522.222 265.149 469.251 293.924C464.019 296.867 458.46 299.483 452.247 301.117C441.13 303.406 434.59 298.829 432.955 287.711C431.32 278.556 432.955 269.4 434.263 260.571C438.514 234.086 448.651 209.562 459.114 185.038C467.289 165.746 476.117 146.781 485.273 127.816C485.927 126.835 485.927 125.527 486.581 124.546C486.908 124.219 487.235 123.892 486.908 123.565C487.235 123.238 486.581 123.565 486.581 123.892Z" fill="#065109"/>
<path d="M348.593 422.101C365.596 431.257 380.637 426.352 395.024 416.543C407.777 407.714 418.24 396.27 429.358 385.479C461.075 354.743 491.485 322.698 526.472 295.559C540.859 284.114 556.882 275.612 575.52 273.651C599.39 271.035 621.952 275.939 640.263 292.616C645.821 297.52 649.418 304.06 650.726 311.581C651.707 317.466 650.072 322.371 645.494 325.968C637.974 331.854 629.799 334.797 619.663 332.508C594.485 326.949 572.577 335.451 553.285 351.473C533.339 368.149 515.355 387.114 496.39 404.771C473.501 426.352 451.593 448.914 426.742 468.533C410.066 481.613 391.428 490.768 370.174 493.384C349.574 496 329.627 494.038 310.662 484.556C318.51 478.016 324.723 470.168 330.281 461.667C338.456 449.241 344.015 436.162 348.593 422.101Z" fill="#38D4A0"/>
<path d="M348.593 422.102C344.015 435.836 338.456 449.242 330.609 461.34C325.05 469.842 318.837 477.363 310.99 484.229C293.005 475.728 282.542 461.013 277.31 442.375C274.04 429.95 273.386 417.197 273.386 404.445C273.386 368.15 273.386 331.527 273.386 295.232C273.386 286.404 271.751 277.902 265.539 271.362C256.056 261.226 240.688 258.937 226.955 265.477C221.069 268.42 216.164 272.67 210.932 276.594C204.72 256.321 194.583 238.337 181.504 221.661C199.488 208.581 219.434 200.734 241.996 199.753C259.98 198.772 276.983 202.042 292.678 210.543C316.548 223.623 329.301 244.55 333.551 271.035C336.494 290 334.532 309.293 333.878 328.585C333.224 348.858 331.917 369.131 332.571 389.731C332.571 402.483 337.802 413.928 348.593 422.102Z" fill="#F7D524"/>
<path d="M180.85 221.006C193.929 237.682 204.065 255.666 210.278 275.939C193.275 290 184.119 309.292 174.31 328.257C159.596 357.359 146.189 387.114 131.802 416.216C122.973 434.2 112.183 451.203 97.4685 465.59C79.1574 483.575 56.9225 491.095 31.4177 489.133C24.224 488.479 17.0304 487.498 10.1637 485.863C4.27799 484.229 0.681162 479.978 0.0271929 474.092C-0.299792 468.86 2.31608 464.61 8.2018 461.994C37.6304 449.568 57.5764 427.333 71.3098 398.886C86.3511 367.168 100.411 335.124 116.107 303.733C126.897 282.152 138.996 261.225 155.345 243.241C163.192 235.066 171.367 227.219 180.85 221.006Z" fill="#9D1C23"/>
<path d="M486.58 123.892C486.907 123.565 487.234 123.238 487.234 123.238C487.561 123.565 487.561 123.892 486.907 124.219L486.58 123.892Z" fill="white"/>
</svg>
