<svg width="37" height="37" viewBox="0 0 37 37" fill="none" xmlns="http://www.w3.org/2000/svg">
<path fill-rule="evenodd" clip-rule="evenodd" d="M23.75 21.5H22.565L22.145 21.095C23.945 18.995 24.875 16.13 24.365 13.085C23.66 8.91502 20.18 5.58502 15.98 5.07502C9.63502 4.29502 4.29502 9.63502 5.07502 15.98C5.58502 20.18 8.91502 23.66 13.085 24.365C16.13 24.875 18.995 23.945 21.095 22.145L21.5 22.565V23.75L27.875 30.125C28.49 30.74 29.495 30.74 30.11 30.125C30.725 29.51 30.725 28.505 30.11 27.89L23.75 21.5ZM14.75 21.5C11.015 21.5 8 18.485 8 14.75C8 11.015 11.015 8 14.75 8C18.485 8 21.5 11.015 21.5 14.75C21.5 18.485 18.485 21.5 14.75 21.5Z" fill="#FF2AAA"/>
</svg>
