<svg width="32" height="32" viewBox="0 0 32 32" fill="none" xmlns="http://www.w3.org/2000/svg">
<g clip-path="url(#clip0_859_5775)">
<mask id="mask0_859_5775" style="mask-type:alpha" maskUnits="userSpaceOnUse" x="0" y="0" width="32" height="32">
<path d="M16 32C24.8366 32 32 24.8366 32 16C32 7.16344 24.8366 0 16 0C7.16344 0 0 7.16344 0 16C0 24.8366 7.16344 32 16 32Z" fill="white"/>
</mask>
<g mask="url(#mask0_859_5775)">
<path d="M0 0H9.04375L11.2937 15.9125L9.04375 32H0V0Z" fill="#0052B4"/>
<path d="M22.9562 0H32V32H22.9562L21.1 15.9187L22.9562 0Z" fill="#D80027"/>
<path d="M9.0437 0H22.9562V32H9.0437V0Z" fill="#FFDA44"/>
<path d="M16 22.1562V16H20.175V18.9562L16 22.1562ZM11.825 11.825H16V16H11.825V11.825Z" fill="#D80027"/>
<path d="M18.0875 10.4375C18.087 10.1933 18.0225 9.95359 17.9003 9.74226C17.778 9.53092 17.6025 9.3554 17.3911 9.23326C17.1797 9.11111 16.9399 9.04663 16.6958 9.04627C16.4517 9.04591 16.2117 9.10968 16 9.2312C15.7893 9.10858 15.55 9.04389 15.3062 9.0437C14.5375 9.0437 13.9125 9.6687 13.9125 10.4375H10.4375V17.3937C10.4375 19.9812 12.4937 21.4812 14.1062 22.2562C13.9826 22.4687 13.9178 22.7103 13.9187 22.9562C13.9198 23.1994 13.9845 23.4381 14.1064 23.6486C14.2283 23.8591 14.4032 24.034 14.6136 24.1559C14.824 24.2779 15.0627 24.3427 15.3059 24.3438C15.5491 24.345 15.7884 24.2824 16 24.1625C16.2107 24.2851 16.45 24.3498 16.6938 24.35C16.9383 24.349 17.1782 24.2838 17.3896 24.1608C17.6009 24.0378 17.7762 23.8614 17.8978 23.6493C18.0194 23.4371 18.083 23.1967 18.0823 22.9522C18.0816 22.7077 18.0166 22.4676 17.8937 22.2562C19.5062 21.4812 21.5625 19.9812 21.5625 17.3937V10.4375H18.0875ZM19.4813 17.3937C19.4813 17.7562 19.4813 18.8562 17.7625 19.95C17.2087 20.2934 16.6173 20.5723 16 20.7812C15.5625 20.6312 14.8875 20.3625 14.2375 19.95C12.5188 18.8562 12.5188 17.7562 12.5188 17.3875V12.5187H19.4813V17.3937Z" fill="#FF9811"/>
</g>
</g>
<defs>
<clipPath id="clip0_859_5775">
<rect width="32" height="32" fill="white"/>
</clipPath>
</defs>
</svg>
