<svg width="32" height="32" viewBox="0 0 32 32" fill="none" xmlns="http://www.w3.org/2000/svg">
<g clip-path="url(#clip0_859_5785)">
<mask id="mask0_859_5785" style="mask-type:alpha" maskUnits="userSpaceOnUse" x="0" y="0" width="32" height="32">
<path d="M16 32C24.8366 32 32 24.8366 32 16C32 7.16344 24.8366 0 16 0C7.16344 0 0 7.16344 0 16C0 24.8366 7.16344 32 16 32Z" fill="white"/>
</mask>
<g mask="url(#mask0_859_5785)">
<path d="M0 0H10.4375L13.7063 15.75L10.4375 32H0V0Z" fill="#A2001D"/>
<path d="M10.4375 10.4374L21.1125 7.6499L32 10.4374V21.5624L21.175 23.8687L10.4375 21.5624V10.4374Z" fill="#EEEEEE"/>
<path d="M10.4375 0H32V10.4375H10.4375V0Z" fill="#6DA544"/>
<path d="M10.4375 21.5625H32V32H10.4375V21.5625Z" fill="#333333"/>
</g>
</g>
<defs>
<clipPath id="clip0_859_5785">
<rect width="32" height="32" fill="white"/>
</clipPath>
</defs>
</svg>
