<svg width="32" height="32" viewBox="0 0 32 32" fill="none" xmlns="http://www.w3.org/2000/svg">
<g clip-path="url(#clip0_859_5815)">
<mask id="mask0_859_5815" style="mask-type:alpha" maskUnits="userSpaceOnUse" x="0" y="0" width="32" height="32">
<path d="M16 32C24.8366 32 32 24.8366 32 16C32 7.16344 24.8366 0 16 0C7.16344 0 0 7.16344 0 16C0 24.8366 7.16344 32 16 32Z" fill="white"/>
</mask>
<g mask="url(#mask0_859_5815)">
<path d="M16 0H32V32H0V16L16 0Z" fill="#0052B4"/>
<path d="M27.0625 18.35C27.5634 17.6717 27.8309 16.8493 27.825 16.0062V9.04995C27.2231 9.50196 26.4903 9.74551 25.7375 9.7437C25.198 9.74419 24.6659 9.61906 24.1831 9.37823C23.7004 9.13741 23.2803 8.78749 22.9563 8.3562C22.6322 8.78749 22.2122 9.13741 21.7294 9.37823C21.2467 9.61906 20.7145 9.74419 20.175 9.7437C19.4223 9.74551 18.6894 9.50196 18.0875 9.04995V16.0062C18.0875 16.9437 18.4 17.7125 18.8563 18.35H27.0563H27.0625Z" fill="#EEEEEE"/>
<path d="M25.6124 14.7187C25.8329 14.1678 25.9657 13.5857 26.0062 12.9937C26.0062 12.3625 25.1812 11.85 25.1812 11.85C25.1812 11.85 24.3562 12.3625 24.3562 12.9937C24.3967 13.5857 24.5295 14.1678 24.75 14.7187L24.275 15.7875C24.8558 16.025 25.5066 16.025 26.0875 15.7875L25.6124 14.7187ZM22.3937 11.2437C21.8076 11.3277 21.2383 11.5028 20.7062 11.7625C20.1562 12.075 20.125 13.0437 20.125 13.0437C20.125 13.0437 20.9812 13.5062 21.525 13.1875C21.8687 12.9937 22.4625 12.45 22.825 11.9875L23.9874 11.8625C23.9471 11.5545 23.8473 11.2574 23.6937 10.9875C23.5383 10.7192 23.3324 10.4836 23.0875 10.2937L22.3937 11.2437ZM20.9937 15.7562C21.3594 16.2233 21.7959 16.6303 22.2875 16.9625C22.8375 17.275 23.6937 16.8187 23.6937 16.8187C23.6937 16.8187 23.6562 15.85 23.1124 15.5375C22.5807 15.2756 22.0114 15.0985 21.4249 15.0125L20.7312 14.0687C20.4868 14.2568 20.281 14.4902 20.125 14.7562C19.9692 15.0257 19.8673 15.3228 19.825 15.6312L20.9937 15.7562Z" fill="#FF9811"/>
<path d="M18.6875 18.0938C19.9813 20.175 22.9563 20.875 22.9563 20.875C22.9563 20.875 25.9313 20.175 27.2313 18.0938H18.6813H18.6875Z" fill="#338AF3"/>
<path d="M16 0H6.2625L4.16875 0.93125L2.0875 0H0V2.0875L0.98125 4.04375L0 6.2625V16H2.0875L4.2125 15.15L6.2625 16H8.35V11.3L13.05 16H16L15.5188 14.6687L16 14.0312V13.05L11.3 8.35H16V6.2625L15.2625 4.175L16 2.0875V0Z" fill="#EEEEEE"/>
<path d="M16 14.0312L10.3125 8.34375H8.34998L16 16V14.0312Z" fill="#D80027"/>
<path d="M2.0875 0V2.0875H0V6.2625H2.0875V16H6.2625V6.2625H16V2.0875H6.2625V0H2.0875Z" fill="#D80027"/>
</g>
</g>
<defs>
<clipPath id="clip0_859_5815">
<rect width="32" height="32" fill="white"/>
</clipPath>
</defs>
</svg>
