<svg width="32" height="32" viewBox="0 0 32 32" fill="none" xmlns="http://www.w3.org/2000/svg">
<g clip-path="url(#clip0_859_5827)">
<mask id="mask0_859_5827" style="mask-type:alpha" maskUnits="userSpaceOnUse" x="0" y="0" width="32" height="32">
<path d="M16 32C24.8366 32 32 24.8366 32 16C32 7.16344 24.8366 0 16 0C7.16344 0 0 7.16344 0 16C0 24.8366 7.16344 32 16 32Z" fill="white"/>
</mask>
<g mask="url(#mask0_859_5827)">
<path d="M0 0H32V32H0V0Z" fill="#D80027"/>
<path d="M25.0438 11.8749H19.25C19.5341 11.58 19.7248 11.2078 19.7984 10.8051C19.872 10.4023 19.8251 9.98672 19.6636 9.61044C19.5022 9.23416 19.2333 8.91387 18.8907 8.68965C18.5481 8.46543 18.147 8.34725 17.7375 8.3499C17.3935 8.34943 17.0548 8.43425 16.7515 8.59676C16.4483 8.75928 16.1901 8.99442 16 9.28115C15.8403 9.03921 15.6319 8.8332 15.3881 8.67626C15.1443 8.51931 14.8705 8.41488 14.5841 8.3696C14.2977 8.32433 14.005 8.33921 13.7247 8.41329C13.4444 8.48738 13.1826 8.61904 12.956 8.7999C12.7294 8.98076 12.5429 9.20684 12.4085 9.46374C12.2741 9.72064 12.1946 10.0027 12.1753 10.292C12.1559 10.5813 12.197 10.8715 12.296 11.144C12.3949 11.4165 12.5496 11.6654 12.75 11.8749H6.9563C6.97751 12.6221 7.29014 13.3313 7.82737 13.851C8.36461 14.3708 9.08383 14.6597 9.8313 14.6561H9.73755C9.73755 16.1936 10.9875 17.4436 12.5188 17.4436C12.5188 17.9436 12.65 18.4061 12.8813 18.8061L10.5688 21.1186L12.3438 22.8874L14.8563 20.3749C14.9558 20.4126 15.0582 20.4418 15.1625 20.4624L13.6438 23.8874L16 26.4374L18.3563 23.8874L16.8375 20.4624C16.9419 20.4419 17.0443 20.4126 17.1438 20.3749L19.6563 22.8874L21.425 21.1186L19.1125 18.8061C19.3514 18.3916 19.4784 17.9221 19.4813 17.4436C21.0125 17.4436 22.2625 16.1936 22.2625 14.6561H22.1688C23.7063 14.6561 25.0438 13.4124 25.0438 11.8749Z" fill="#333333"/>
</g>
</g>
<defs>
<clipPath id="clip0_859_5827">
<rect width="32" height="32" fill="white"/>
</clipPath>
</defs>
</svg>
