<svg width="32" height="32" viewBox="0 0 32 32" fill="none" xmlns="http://www.w3.org/2000/svg">
<g clip-path="url(#clip0_859_5842)">
<mask id="mask0_859_5842" style="mask-type:alpha" maskUnits="userSpaceOnUse" x="0" y="0" width="32" height="32">
<path d="M16 32C24.8366 32 32 24.8366 32 16C32 7.16344 24.8366 0 16 0C7.16344 0 0 7.16344 0 16C0 24.8366 7.16344 32 16 32Z" fill="white"/>
</mask>
<g mask="url(#mask0_859_5842)">
<path d="M0 0H32V16L16.1875 18.2875L0 16V0Z" fill="#D80027"/>
<path d="M0 16H32V32H0V16Z" fill="#333333"/>
<path d="M13.8063 12.725L15.1625 13.7125L14.6438 15.3062L16 14.3125L17.3563 15.2937L16.8375 13.7L18.1938 12.7188H16.5188L16 11.125L15.4813 12.7188L13.8063 12.725Z" fill="#FFDA44"/>
<path d="M20 9.06866C18.7839 8.36755 17.4038 8.00097 16 8.00616V10.0874C17.0383 10.0861 18.0583 10.36 18.9563 10.8812C20.2302 11.706 21.1386 12.9887 21.4938 14.4642C21.8489 15.9397 21.6238 17.4952 20.8648 18.8095C20.1058 20.1237 18.8709 21.0961 17.4154 21.5259C15.9599 21.9556 14.3949 21.8098 13.0438 21.1187C12.2491 20.6605 11.5727 20.0227 11.0688 19.2562L9.32501 20.4062C10.0772 21.5432 11.1073 22.4693 12.3177 23.0967C13.528 23.7241 14.8785 24.0321 16.2412 23.9914C17.604 23.9507 18.9337 23.5627 20.1045 22.8642C21.2752 22.1657 22.2482 21.1798 22.9313 19.9999C23.9912 18.1614 24.2778 15.9773 23.7281 13.9276C23.1785 11.8779 21.8376 10.1302 20 9.06866Z" fill="#FFDA44"/>
<path d="M11.3875 14.6062C11.2554 14.847 11.172 15.1115 11.1423 15.3846C11.1125 15.6576 11.137 15.9339 11.2142 16.1975C11.2914 16.4611 11.4199 16.7069 11.5923 16.9207C11.7647 17.1346 11.9776 17.3123 12.2188 17.4437L18.9938 21.1437C18.5313 21.9875 18.7813 23.0187 19.6188 23.475L21.45 24.475C21.6502 24.5852 21.8702 24.655 22.0974 24.6801C22.3246 24.7052 22.5545 24.6853 22.7739 24.6214C22.9934 24.5576 23.1981 24.451 23.3763 24.3079C23.5545 24.1648 23.7028 23.9879 23.8125 23.7875L24.8125 21.9562L11.3875 14.6062Z" fill="#FFDA44"/>
</g>
</g>
<defs>
<clipPath id="clip0_859_5842">
<rect width="32" height="32" fill="white"/>
</clipPath>
</defs>
</svg>
