<svg width="32" height="32" viewBox="0 0 32 32" fill="none" xmlns="http://www.w3.org/2000/svg">
<g clip-path="url(#clip0_859_5868)">
<mask id="mask0_859_5868" style="mask-type:alpha" maskUnits="userSpaceOnUse" x="0" y="0" width="32" height="32">
<path d="M16 32C24.8366 32 32 24.8366 32 16C32 7.16344 24.8366 0 16 0C7.16344 0 0 7.16344 0 16C0 24.8366 7.16344 32 16 32Z" fill="white"/>
</mask>
<g mask="url(#mask0_859_5868)">
<path d="M32 1.2749V30.6249L1.48749 15.9874L32 1.2749Z" fill="#EEEEEE"/>
<path d="M27.825 15.4063H25.9188C26.4188 14.8063 26.3875 13.925 25.825 13.3625C26.1082 13.079 26.2673 12.6946 26.2673 12.2938C26.2673 11.893 26.1082 11.5086 25.825 11.225L25.7938 11.2563C26.0805 10.9689 26.2442 10.5811 26.25 10.1751C26.2558 9.76915 26.1034 9.37684 25.825 9.0813L17.2625 17.6438C17.4014 17.7844 17.5669 17.896 17.7493 17.9722C17.9317 18.0484 18.1274 18.0876 18.325 18.0876C18.5227 18.0876 18.7184 18.0484 18.9007 17.9722C19.0831 17.896 19.2486 17.7844 19.3875 17.6438L19.55 17.4875L23.65 17.1125V18.8813H25.0438V16.9938L27.1313 16.8063L27.825 15.4063Z" fill="#A2001D"/>
<path d="M17.3937 19.4812L16 18.7812L17.3937 18.0874H26.4375V19.4812H17.3937Z" fill="#FFDA44"/>
<path d="M0 0V32H32L1.79375 16.0125L32 0H0Z" fill="#0052B4"/>
<path d="M32 0L0 16L32 32V30.625L2.7375 16L32 1.275V0Z" fill="#D80027"/>
</g>
</g>
<defs>
<clipPath id="clip0_859_5868">
<rect width="32" height="32" fill="white"/>
</clipPath>
</defs>
</svg>
