<svg width="32" height="32" viewBox="0 0 32 32" fill="none" xmlns="http://www.w3.org/2000/svg">
<g clip-path="url(#clip0_859_5894)">
<mask id="mask0_859_5894" style="mask-type:alpha" maskUnits="userSpaceOnUse" x="0" y="0" width="32" height="32">
<path d="M16 32C24.8366 32 32 24.8366 32 16C32 7.16344 24.8366 0 16 0C7.16344 0 0 7.16344 0 16C0 24.8366 7.16344 32 16 32Z" fill="white"/>
</mask>
<g mask="url(#mask0_859_5894)">
<path d="M0 20.1749L15.85 19.0249L32 20.1749V22.2624L15.875 23.2187L0 22.2624V20.1749ZM0 24.3499L16.075 23.4874L32 24.3499V26.4374L16.1875 27.4937L0 26.4374V24.3499Z" fill="#FFDA44"/>
<path d="M0 0H32V20.175H0V0ZM0 22.2625H32V24.35H0V22.2625ZM0 26.4375H32V32H0V26.4375Z" fill="#338AF3"/>
<path d="M7.33124 10.0938L4.20624 8.71255L7.33124 7.33755L8.70624 4.2063L10.0937 7.3313L13.2187 8.7063L10.0937 10.0938L8.71249 13.2188L7.33124 10.0938Z" fill="#EEEEEE"/>
<path d="M8.71249 5.93115L9.56249 7.8624L11.5 8.7124L9.56249 9.5624L8.71249 11.4999L7.86249 9.5624L5.92499 8.7124L7.86249 7.8624L8.71249 5.93115Z" fill="#D80027"/>
</g>
</g>
<defs>
<clipPath id="clip0_859_5894">
<rect width="32" height="32" fill="white"/>
</clipPath>
</defs>
</svg>
