<svg width="32" height="32" viewBox="0 0 32 32" fill="none" xmlns="http://www.w3.org/2000/svg">
<g clip-path="url(#clip0_859_5911)">
<mask id="mask0_859_5911" style="mask-type:alpha" maskUnits="userSpaceOnUse" x="0" y="0" width="32" height="32">
<path d="M16 32C24.8366 32 32 24.8366 32 16C32 7.16344 24.8366 0 16 0C7.16344 0 0 7.16344 0 16C0 24.8366 7.16344 32 16 32Z" fill="white"/>
</mask>
<g mask="url(#mask0_859_5911)">
<path d="M0 10.4313L15.8125 8.44385L32 10.4313V21.5563L15.9062 23.8938L0 21.5626V10.4313Z" fill="#D80027"/>
<path d="M0 0H32V10.4312H0V0Z" fill="#338AF3"/>
<path d="M0 21.5562H32V31.9999H0V21.5562Z" fill="#6DA544"/>
<path d="M16.35 20.5126C15.6633 20.5107 14.9861 20.3523 14.3698 20.0495C13.7535 19.7466 13.2143 19.3073 12.7932 18.7649C12.3721 18.2224 12.0801 17.5912 11.9396 16.919C11.799 16.2469 11.8134 15.5515 11.9818 14.8858C12.1502 14.2201 12.4681 13.6015 12.9114 13.077C13.3546 12.5525 13.9116 12.136 14.54 11.859C15.1683 11.582 15.8515 11.4519 16.5377 11.4785C17.2239 11.5051 17.895 11.6878 18.5 12.0126C17.7171 11.2474 16.7258 10.7303 15.6503 10.526C14.5748 10.3216 13.463 10.4392 12.454 10.8639C11.445 11.2887 10.5838 12.0017 9.9782 12.9136C9.37262 13.8256 9.04959 14.896 9.04959 15.9907C9.04959 17.0855 9.37262 18.1558 9.9782 19.0678C10.5838 19.9798 11.445 20.6928 12.454 21.1175C13.463 21.5422 14.5748 21.6598 15.6503 21.4555C16.7258 21.2511 17.7171 20.734 18.5 19.9689C17.8399 20.3266 17.1008 20.5135 16.35 20.5126Z" fill="#EEEEEE"/>
<path d="M19.825 12.875L20.425 14.55L22.0375 13.7812L21.275 15.3938L22.9563 15.9937L21.2688 16.5938L22.0375 18.2062L20.425 17.4375L19.825 19.125L19.225 17.4375L17.6125 18.2062L18.3813 16.5938L16.6938 15.9937L18.3813 15.3938L17.6125 13.7812L19.225 14.55L19.825 12.875Z" fill="#EEEEEE"/>
</g>
</g>
<defs>
<clipPath id="clip0_859_5911">
<rect width="32" height="32" fill="white"/>
</clipPath>
</defs>
</svg>
