<svg width="32" height="32" viewBox="0 0 32 32" fill="none" xmlns="http://www.w3.org/2000/svg">
<g clip-path="url(#clip0_859_6005)">
<mask id="mask0_859_6005" style="mask-type:alpha" maskUnits="userSpaceOnUse" x="0" y="0" width="32" height="32">
<path d="M16 32C24.8366 32 32 24.8366 32 16C32 7.16344 24.8366 0 16 0C7.16344 0 0 7.16344 0 16C0 24.8366 7.16344 32 16 32Z" fill="white"/>
</mask>
<g mask="url(#mask0_859_6005)">
<path d="M16 0H32V32H0V16L16 0Z" fill="#D80027"/>
<path d="M0 0H2.0875L4.075 1.025L6.2625 0H16V8.35L15.4187 10.4563L16 13.05V16H13.05L10.5938 15.5625L8.35 16.0063L0 16V6.2625L0.9625 4.10625L0 2.0875V0Z" fill="#EEEEEE"/>
<path d="M16.6875 14.7188L10.3125 8.34375H8.34998L16.6875 16.6875V14.7188Z" fill="#D80027"/>
<path d="M2.0875 0V2.0875H0V6.2625H2.0875V16.925H6.2625V6.2625H16.9V2.0875H6.2625V0H2.0875Z" fill="#D80027"/>
<path d="M11.3 8.3501H16V13.0501L11.3 8.3501ZM8.34998 11.3001V16.0063L13.05 16.0001L8.34998 11.3001Z" fill="#0052B4"/>
<path d="M18.0875 8.3501V16.0001C18.0875 19.7251 27.825 19.7251 27.825 16.0001V8.3501H18.0875Z" fill="#EEEEEE"/>
<path d="M18.0875 16C18.0875 19.725 22.9562 20.875 22.9562 20.875C22.9562 20.875 27.8312 19.725 27.8312 16H18.0812H18.0875Z" fill="#6DA544"/>
<path d="M22.9562 12.9375L20.6937 13.9125V16L22.9562 17.3937L25.2187 16V13.9125L22.9562 12.9375Z" fill="#A2001D"/>
<path d="M20.6938 11.825H25.2188V13.9125H20.6875L20.6938 11.825Z" fill="#338AF3"/>
</g>
</g>
<defs>
<clipPath id="clip0_859_6005">
<rect width="32" height="32" fill="white"/>
</clipPath>
</defs>
</svg>
