<svg width="32" height="32" viewBox="0 0 32 32" fill="none" xmlns="http://www.w3.org/2000/svg">
<g clip-path="url(#clip0_859_6019)">
<mask id="mask0_859_6019" style="mask-type:alpha" maskUnits="userSpaceOnUse" x="0" y="0" width="32" height="32">
<path d="M16 32C24.8366 32 32 24.8366 32 16C32 7.16344 24.8366 0 16 0C7.16344 0 0 7.16344 0 16C0 24.8366 7.16344 32 16 32Z" fill="white"/>
</mask>
<g mask="url(#mask0_859_6019)">
<path d="M0 0H32V20.4188L30.7938 25.2L32 30.0562V32H0V11.575L1.3375 6.79375L0 1.9375V0Z" fill="#FFDA44"/>
<path d="M0 1.9375V9.2625L32 27.7437V20.4188L0 1.9375Z" fill="#EEEEEE"/>
<path d="M0 6.76245V11.575L32 30.0625V25.25L0 6.76245Z" fill="#333333"/>
<path d="M20.5188 14.2625C20.5169 14.9492 20.3585 15.6265 20.0556 16.2428C19.7528 16.8591 19.3135 17.3983 18.771 17.8194C18.2286 18.2405 17.5973 18.5324 16.9252 18.673C16.253 18.8136 15.5577 18.7992 14.892 18.6308C14.2262 18.4624 13.6076 18.1445 13.0832 17.7012C12.5587 17.2579 12.1421 16.701 11.8652 16.0726C11.5882 15.4442 11.4581 14.761 11.4847 14.0748C11.5113 13.3887 11.6939 12.7176 12.0188 12.1125C11.2536 12.8955 10.7365 13.8868 10.5321 14.9622C10.3278 16.0377 10.4454 17.1496 10.8701 18.1586C11.2948 19.1676 12.0078 20.0288 12.9198 20.6344C13.8318 21.2399 14.9022 21.563 15.9969 21.563C17.0916 21.563 18.162 21.2399 19.074 20.6344C19.986 20.0288 20.699 19.1676 21.1237 18.1586C21.5484 17.1496 21.666 16.0377 21.4616 14.9622C21.2573 13.8868 20.7402 12.8955 19.975 12.1125C20.3328 12.7726 20.5197 13.5117 20.5188 14.2625Z" fill="#D80027"/>
<path d="M14.9562 9.0437H17.0437V19.4812H14.9562V9.0437Z" fill="#D80027"/>
<path d="M19.475 11.125H12.525C12.525 11.6125 12.9375 12 13.4187 12H13.3937C13.3937 12.231 13.485 12.4526 13.6478 12.6165C13.8105 12.7804 14.0315 12.8734 14.2625 12.875C14.2657 13.1038 14.3585 13.3222 14.5209 13.4835C14.6833 13.6447 14.9024 13.7359 15.1312 13.7375H16.8687C17.0997 13.7375 17.3213 13.6462 17.4852 13.4834C17.6492 13.3207 17.7421 13.0997 17.7437 12.8687C17.9725 12.8655 18.191 12.7727 18.3522 12.6103C18.5134 12.4479 18.6046 12.2288 18.6062 12H18.5812C19.0562 12 19.475 11.6125 19.475 11.1313V11.125ZM11.1312 20.1812H20.8687V22.2687H11.1312V20.1812Z" fill="#D80027"/>
<path d="M18.0875 20.8687H22.2625V22.9562H18.0875V20.8687ZM9.73749 20.8687H13.9125V22.9562H9.73749V20.8687Z" fill="#D80027"/>
</g>
</g>
<defs>
<clipPath id="clip0_859_6019">
<rect width="32" height="32" fill="white"/>
</clipPath>
</defs>
</svg>
