<svg width="32" height="32" viewBox="0 0 32 32" fill="none" xmlns="http://www.w3.org/2000/svg">
<g clip-path="url(#clip0_859_6057)">
<mask id="mask0_859_6057" style="mask-type:alpha" maskUnits="userSpaceOnUse" x="0" y="0" width="32" height="32">
<path d="M16 32C24.8366 32 32 24.8366 32 16C32 7.16344 24.8366 0 16 0C7.16344 0 0 7.16344 0 16C0 24.8366 7.16344 32 16 32Z" fill="white"/>
</mask>
<g mask="url(#mask0_859_6057)">
<path d="M0 0H32L17.5625 18.325L0 32V0Z" fill="#FFDA44"/>
<path d="M31.6688 0L0 31.6688V32H32V0H31.6688Z" fill="#FF9811"/>
<path d="M24.8875 8.87495V6.1062H19.5563L19.15 6.51245C17.7 7.96245 17.9438 9.64995 18.1188 10.8875C18.2875 12.0312 18.3063 12.4687 17.8813 12.8875C17.4563 13.325 17.0063 13.3 15.8688 13.1375C14.6375 12.95 12.9438 12.7125 11.4938 14.1625C10.0438 15.6125 10.2875 17.3062 10.4688 18.5375C10.6313 19.6812 10.6563 20.125 10.2188 20.55C9.80001 20.975 9.36251 20.9562 8.21876 20.7875C7.76876 20.725 7.31251 20.6625 6.81876 20.65L6.78751 23.4375C7.10001 23.4375 7.45001 23.4875 7.81876 23.5437C8.25626 23.6062 8.75626 23.6812 9.28751 23.6812C9.83126 23.6812 10.4125 23.6 10.975 23.3562V25.5812H15.15V23.4937H13.0625V22.1062H14.4563V20.0187H13.3313C13.3875 19.3437 13.2938 18.6937 13.2063 18.1437C13.05 16.9937 13.0188 16.5562 13.4563 16.1312C13.8813 15.7062 14.3188 15.725 15.4688 15.8937C16.3625 16.0187 17.5063 16.1875 18.6188 15.7062V17.9312H22.7938V15.8437H20.7125V14.4375H22.1063V12.35H20.9938C21.0247 11.7222 20.9828 11.093 20.8688 10.475C20.7563 9.67495 20.7125 9.22495 20.8438 8.87495H24.8875Z" fill="#EEEEEE"/>
</g>
</g>
<defs>
<clipPath id="clip0_859_6057">
<rect width="32" height="32" fill="white"/>
</clipPath>
</defs>
</svg>
