<svg width="32" height="32" viewBox="0 0 32 32" fill="none" xmlns="http://www.w3.org/2000/svg">
<g clip-path="url(#clip0_859_6073)">
<mask id="mask0_859_6073" style="mask-type:alpha" maskUnits="userSpaceOnUse" x="0" y="0" width="32" height="32">
<path d="M16 32C24.8366 32 32 24.8366 32 16C32 7.16344 24.8366 0 16 0C7.16344 0 0 7.16344 0 16C0 24.8366 7.16344 32 16 32Z" fill="white"/>
</mask>
<g mask="url(#mask0_859_6073)">
<path d="M0 0H9.7375L11.925 15.9125L9.7375 32H0V0Z" fill="#EEEEEE"/>
<path d="M9.73755 0H32V21.5688L20.5625 23.9062L9.73755 21.5688V0Z" fill="#A2001D"/>
<path d="M9.73755 21.5688H32V32.0001H9.73755V21.5688Z" fill="#6DA544"/>
<path d="M3.12505 0.0124512L1.3938 3.12495L3.1313 6.27495L4.8688 3.12495L3.12505 0.0124512ZM6.61255 0.0124512L4.87505 3.12495L6.6063 6.27495L8.3563 3.12495L6.61255 0.0124512ZM3.12505 8.5937L1.3938 11.6937L3.1313 14.85L4.86255 11.6937L3.12505 8.5937ZM6.61255 8.5937L4.87505 11.6937L6.6063 14.85L8.3563 11.6937L6.61255 8.5937ZM3.12505 17.1687L1.3938 20.275L3.1313 23.4249L4.8688 20.275L3.12505 17.1687ZM6.61255 17.1687L4.87505 20.275L6.6063 23.4249L8.3563 20.275L6.61255 17.1687ZM3.12505 25.75L1.3938 28.85L3.1313 32.0062L4.86255 28.85L3.12505 25.75ZM6.61255 25.75L4.87505 28.85L6.6063 32.0062L8.3563 28.85L6.61255 25.75Z" fill="#A2001D"/>
</g>
</g>
<defs>
<clipPath id="clip0_859_6073">
<rect width="32" height="32" fill="white"/>
</clipPath>
</defs>
</svg>
