<svg width="32" height="32" viewBox="0 0 32 32" fill="none" xmlns="http://www.w3.org/2000/svg">
<g clip-path="url(#clip0_859_6082)">
<mask id="mask0_859_6082" style="mask-type:alpha" maskUnits="userSpaceOnUse" x="0" y="0" width="32" height="32">
<path d="M16 32C24.8366 32 32 24.8366 32 16C32 7.16344 24.8366 0 16 0C7.16344 0 0 7.16344 0 16C0 24.8366 7.16344 32 16 32Z" fill="white"/>
</mask>
<g mask="url(#mask0_859_6082)">
<path d="M0 2.7813L16.1125 1.30005L32 2.7813V29.2188L16.2188 30.8438L0 29.2188V2.7813Z" fill="#0052B4"/>
<path d="M16 23.6501C20.225 23.6501 23.65 20.2251 23.65 16.0001C23.65 11.7751 20.225 8.3501 16 8.3501C11.775 8.3501 8.34998 11.7751 8.34998 16.0001C8.34998 20.2251 11.775 23.6501 16 23.6501Z" fill="#EEEEEE"/>
<path d="M16 22.2625C19.4587 22.2625 22.2625 19.4587 22.2625 16C22.2625 12.5414 19.4587 9.73755 16 9.73755C12.5414 9.73755 9.73755 12.5414 9.73755 16C9.73755 19.4587 12.5414 22.2625 16 22.2625Z" fill="#6DA544"/>
<path d="M16 20.175C18.3057 20.175 20.175 18.3057 20.175 16C20.175 13.6942 18.3057 11.825 16 11.825C13.6942 11.825 11.825 13.6942 11.825 16C11.825 18.3057 13.6942 20.175 16 20.175Z" fill="#EEEEEE"/>
<path d="M16 14.9563L13.7375 16V17.7375L16 19.1313L18.2625 17.7375V16L16 14.9563Z" fill="#0052B4"/>
<path d="M13.7375 13.9126H18.2625V16.0001H13.7375V13.9126Z" fill="#FFDA44"/>
<path d="M0 0H32V2.78125H0V0ZM0 29.2188H32V32H0V29.2188Z" fill="#A2001D"/>
</g>
</g>
<defs>
<clipPath id="clip0_859_6082">
<rect width="32" height="32" fill="white"/>
</clipPath>
</defs>
</svg>
