<svg width="32" height="32" viewBox="0 0 32 32" fill="none" xmlns="http://www.w3.org/2000/svg">
<g clip-path="url(#clip0_859_6102)">
<mask id="mask0_859_6102" style="mask-type:alpha" maskUnits="userSpaceOnUse" x="0" y="0" width="32" height="32">
<path d="M16 32C24.8366 32 32 24.8366 32 16C32 7.16344 24.8366 0 16 0C7.16344 0 0 7.16344 0 16C0 24.8366 7.16344 32 16 32Z" fill="white"/>
</mask>
<g mask="url(#mask0_859_6102)">
<path d="M0 0H32V32H0V0Z" fill="#6DA544"/>
<path d="M24.5625 22.9562L25 23.875L25.9937 23.6437L25.55 24.5625L26.3437 25.1875L25.35 25.4188V26.4375L24.5625 25.8L23.7687 26.4375V25.4188L22.775 25.1938L23.575 24.5625L23.1312 23.6437L24.125 23.875L24.5625 22.9562ZM20.475 13.2188L20.9125 14.1375L21.9125 13.9062L21.4625 14.825L22.2625 15.45L21.2625 15.675L21.2687 16.6938L20.475 16.0562L19.6812 16.6938V15.675L18.6937 15.4563L19.4875 14.825L19.05 13.9062L20.0375 14.1375L20.475 13.2188ZM24.5625 7.65625L25 8.56875L25.9937 8.34375L25.55 9.25625L26.3437 9.8875L25.35 10.1125V11.1313L24.5625 10.4937L23.7687 11.1313V10.1125L22.775 9.8875L23.575 9.2625L23.1312 8.34375L24.125 8.5625L24.5625 7.65625ZM28.125 11.825L28.5625 12.7437L29.5625 12.5125L29.1187 13.4312L29.9125 14.0625L28.9187 14.2875V15.3062L28.1312 14.6687L27.3375 15.3062V14.2875L26.3437 14.0625L27.1437 13.4312L26.7 12.5125L27.6875 12.75L28.125 11.825ZM25.575 16.7L25.925 17.7625H27.0437L26.1375 18.4125L26.4812 19.475L25.575 18.8188L24.675 19.4813L25.0187 18.4188L24.1125 17.7563H25.2375L25.575 16.7Z" fill="#FFDA44"/>
<path d="M17.7375 20.5188C17.0508 20.5169 16.3736 20.3585 15.7573 20.0556C15.141 19.7528 14.6018 19.3135 14.1807 18.771C13.7596 18.2286 13.4677 17.5973 13.3271 16.9252C13.1865 16.253 13.2009 15.5577 13.3693 14.892C13.5377 14.2262 13.8556 13.6076 14.2989 13.0832C14.7421 12.5587 15.2991 12.1421 15.9275 11.8652C16.5558 11.5882 17.2391 11.4581 17.9252 11.4847C18.6114 11.5113 19.2825 11.6939 19.8875 12.0188C19.1046 11.2536 18.1133 10.7365 17.0378 10.5321C15.9623 10.3278 14.8505 10.4454 13.8415 10.8701C12.8325 11.2948 11.9713 12.0078 11.3657 12.9198C10.7601 13.8318 10.4371 14.9022 10.4371 15.9969C10.4371 17.0916 10.7601 18.162 11.3657 19.074C11.9713 19.986 12.8325 20.699 13.8415 21.1237C14.8505 21.5484 15.9623 21.666 17.0378 21.4616C18.1133 21.2573 19.1046 20.7402 19.8875 19.975C19.2274 20.3328 18.4883 20.5197 17.7375 20.5188ZM10.0625 6.26252C9.81852 5.83936 9.46738 5.48794 9.04442 5.24359C8.62147 4.99925 8.14162 4.87061 7.65315 4.87061C7.16469 4.87061 6.68484 4.99925 6.26189 5.24359C5.83893 5.48794 5.48779 5.83936 5.24378 6.26252H10.0563H10.0625ZM10.0688 6.27502L7.65003 8.69377L5.23128 6.27502C4.9928 6.69398 4.86785 7.16794 4.86878 7.65002C4.86878 8.01526 4.94072 8.37692 5.08049 8.71435C5.22026 9.05179 5.42513 9.35839 5.68339 9.61666C5.94165 9.87492 6.24825 10.0798 6.58569 10.2196C6.92313 10.3593 7.28479 10.4313 7.65003 10.4313C8.01527 10.4313 8.37693 10.3593 8.71437 10.2196C9.0518 10.0798 9.35841 9.87492 9.61667 9.61666C9.87493 9.35839 10.0798 9.05179 10.2196 8.71435C10.3593 8.37692 10.4313 8.01526 10.4313 7.65002C10.4322 7.16794 10.3073 6.69398 10.0688 6.27502Z" fill="#FFDA44"/>
<path d="M6.9563 8V10.35C7.18296 10.4082 7.41604 10.4376 7.65005 10.4375C7.8938 10.4375 8.12505 10.4063 8.35005 10.35V8H6.9563Z" fill="#A2001D"/>
</g>
</g>
<defs>
<clipPath id="clip0_859_6102">
<rect width="32" height="32" fill="white"/>
</clipPath>
</defs>
</svg>
