<svg width="32" height="32" viewBox="0 0 32 32" fill="none" xmlns="http://www.w3.org/2000/svg">
<g clip-path="url(#clip0_859_6121)">
<mask id="mask0_859_6121" style="mask-type:alpha" maskUnits="userSpaceOnUse" x="0" y="0" width="32" height="32">
<path d="M16 32C24.8366 32 32 24.8366 32 16C32 7.16344 24.8366 0 16 0C7.16344 0 0 7.16344 0 16C0 24.8366 7.16344 32 16 32Z" fill="white"/>
</mask>
<g mask="url(#mask0_859_6121)">
<path d="M0 23.6501L15.8062 21.8501L32 23.6501V32.0001H20.175L16 30.0626L11.825 32.0001H0V23.6501Z" fill="#FFDA44"/>
<path d="M0 16L15.6125 14.25L32 16V23.65H0V16Z" fill="#6DA544"/>
<path d="M0 8.35005L15.9563 6.5813L32 8.35005V16H0V8.35005Z" fill="#EEEEEE"/>
<path d="M0 0H11.825L16 1.875L20.175 0H32V8.35H0V0Z" fill="#0052B4"/>
<path d="M8.60625 3.4812L9.0375 4.8062H10.4375L9.30625 5.62495L9.7375 6.9562L8.60625 6.13745L7.48125 6.9562L7.90625 5.62495L6.78125 4.81245H8.175L8.60625 3.4812Z" fill="#FFDA44"/>
<path d="M11.825 0H20.175V32H11.825V0Z" fill="#D80027"/>
</g>
</g>
<defs>
<clipPath id="clip0_859_6121">
<rect width="32" height="32" fill="white"/>
</clipPath>
</defs>
</svg>
