<svg width="32" height="32" viewBox="0 0 32 32" fill="none" xmlns="http://www.w3.org/2000/svg">
<g clip-path="url(#clip0_859_6182)">
<mask id="mask0_859_6182" style="mask-type:alpha" maskUnits="userSpaceOnUse" x="0" y="0" width="32" height="32">
<path d="M16 32C24.8366 32 32 24.8366 32 16C32 7.16344 24.8366 0 16 0C7.16344 0 0 7.16344 0 16C0 24.8366 7.16344 32 16 32Z" fill="white"/>
</mask>
<g mask="url(#mask0_859_6182)">
<path d="M0 0H32V32H0V0Z" fill="#D80027"/>
<path d="M8.75625 9.7374L10.1375 13.9874H14.6062L10.9937 16.6187L12.375 20.8687L8.75625 18.2437L5.1375 20.8687L6.525 16.6187L2.90625 13.9874H7.375L8.75625 9.7374ZM18.9688 24.7812L17.9125 23.4812L16.35 24.0874L17.2563 22.6812L16.2 21.3749L17.8188 21.8062L18.7313 20.3999L18.8188 22.0749L20.4438 22.5062L18.875 23.1062L18.9688 24.7812ZM21.0688 20.9687L21.5688 19.3687L20.2 18.3999L21.875 18.3749L22.3687 16.7749L22.9125 18.3624L24.5875 18.3437L23.2437 19.3437L23.7812 20.9312L22.4125 19.9624L21.0688 20.9687ZM23.9 11.7437L23.1625 13.2499L24.3625 14.4187L22.7062 14.1812L21.9688 15.6812L21.6812 14.0312L20.0187 13.7937L21.5063 13.0124L21.2188 11.3562L22.4188 12.5249L23.9 11.7437ZM19.0125 7.18115L18.8875 8.8499L20.4438 9.48115L18.8125 9.88115L18.6938 11.5562L17.8125 10.1312L16.1812 10.5312L17.2625 9.2499L16.375 7.83115L17.9312 8.4624L19.0125 7.18115Z" fill="#FFDA44"/>
</g>
</g>
<defs>
<clipPath id="clip0_859_6182">
<rect width="32" height="32" fill="white"/>
</clipPath>
</defs>
</svg>
