<svg width="32" height="32" viewBox="0 0 32 32" fill="none" xmlns="http://www.w3.org/2000/svg">
<g clip-path="url(#clip0_859_6215)">
<mask id="mask0_859_6215" style="mask-type:alpha" maskUnits="userSpaceOnUse" x="0" y="0" width="32" height="32">
<path d="M16 32C24.8366 32 32 24.8366 32 16C32 7.16344 24.8366 0 16 0C7.16344 0 0 7.16344 0 16C0 24.8366 7.16344 32 16 32Z" fill="white"/>
</mask>
<g mask="url(#mask0_859_6215)">
<path d="M0 0H32V16.0125L29.3813 20.0312L32 24.0125V32H0V24.0125L2.58125 20L0 16.0125V0Z" fill="#0052B4"/>
<path d="M0 16.0125H32V18.6937L31.0187 20.0437L32 21.3562V24.0125H0V21.3562L0.94375 20.0125L0 18.6875V16.0125Z" fill="#EEEEEE"/>
<path d="M0 18.6937H32V21.3562H0V18.6937Z" fill="#D80027"/>
<path d="M11.425 11.8999L11.75 12.9249H12.8188L11.9563 13.5499L12.2875 14.5687L11.425 13.9437L10.55 14.5687L10.8875 13.5499L10.0188 12.9249H11.0875L11.425 11.8999ZM11.425 25.2312L11.75 26.2499H12.8188L11.9563 26.8749L12.2875 27.8874L11.425 27.2624L10.55 27.8874L10.875 26.8749L10 26.2499H11.075L11.425 25.2312ZM5.225 20.7249L5.55 21.7374H6.61875L5.75625 22.3749L6.08125 23.3874L5.225 22.7624L4.35 23.3874L4.6875 22.3749L3.8125 21.7437H4.8875L5.225 20.7249ZM7.59375 13.2374L7.90625 14.2374H8.98125L8.11875 14.8812L8.44375 15.8937L7.5875 15.2687L6.7125 15.8937L7.05 14.8749L6.175 14.2437H7.25L7.59375 13.2374ZM3.81875 17.4249H4.88125L5.225 16.4124L5.55 17.4249H6.61875L5.75625 18.0624L6.08125 19.0874L5.225 18.4374L4.35 19.0812L4.6875 18.0562L3.81875 17.4249ZM6.725 26.3624L7.05625 25.3499L6.1875 24.7124H7.25625L7.59375 23.6999L7.91875 24.7187H8.9875L8.125 25.3499L8.45625 26.3624L7.59375 25.7374L6.725 26.3624ZM17.625 20.7249L17.2875 21.7374H16.225L17.0875 22.3749L16.7563 23.3874L17.625 22.7624L18.4875 23.3874L18.1625 22.3687L19.0187 21.7374H17.9562L17.625 20.7249ZM15.25 13.2374L14.9187 14.2499H13.85L14.725 14.8874L14.3875 15.8999L15.2563 15.2749L16.1187 15.8999L15.7875 14.8812L16.65 14.2499H15.5875L15.25 13.2374ZM19.0187 17.4249H17.9562L17.625 16.4124L17.2875 17.4249H16.225L17.0875 18.0562L16.7563 19.0812L17.625 18.4374L18.4875 19.0812L18.1625 18.0562L19.0187 17.4249ZM16.1187 26.3624L15.7875 25.3499L16.65 24.7124H15.5875L15.2563 23.6999L14.9187 24.7187H13.85L14.725 25.3499L14.3875 26.3624L15.2563 25.7374L16.1187 26.3624Z" fill="#FFDA44"/>
</g>
</g>
<defs>
<clipPath id="clip0_859_6215">
<rect width="32" height="32" fill="white"/>
</clipPath>
</defs>
</svg>
