<svg width="32" height="32" viewBox="0 0 32 32" fill="none" xmlns="http://www.w3.org/2000/svg">
<g clip-path="url(#clip0_859_6232)">
<mask id="mask0_859_6232" style="mask-type:alpha" maskUnits="userSpaceOnUse" x="0" y="0" width="32" height="32">
<path d="M16 32C24.8366 32 32 24.8366 32 16C32 7.16344 24.8366 0 16 0C7.16344 0 0 7.16344 0 16C0 24.8366 7.16344 32 16 32Z" fill="white"/>
</mask>
<g mask="url(#mask0_859_6232)">
<path d="M0 0L13.5562 18.85L32 32V0H0Z" fill="#6DA544"/>
<path d="M0 0L32 32H0V0Z" fill="#0052B4"/>
<path d="M16 20.175C18.3057 20.175 20.175 18.3057 20.175 16C20.175 13.6942 18.3057 11.825 16 11.825C13.6942 11.825 11.825 13.6942 11.825 16C11.825 18.3057 13.6942 20.175 16 20.175Z" fill="#FFDA44"/>
<path d="M5.9563 22.9563L6.3938 23.875L7.3938 23.6438L6.93755 24.5625L7.75005 25.1875L6.75005 25.4125L6.7563 26.4313L5.96255 25.7938L5.16255 26.4375V25.4188L4.1813 25.1875L4.9688 24.5625L4.5313 23.6438L5.5188 23.875L5.9563 22.9563ZM3.0813 15.3125L3.52505 16.2313L4.5188 16L4.07505 16.9125L4.8688 17.55L3.87505 17.7688V18.7875L3.08755 18.15L2.2938 18.7875V17.7688L1.30005 17.55L2.10005 16.9125L1.6563 16L2.6438 16.2313L3.0813 15.3125ZM5.9563 9.05005L6.3938 9.9688L7.3938 9.73755L6.9438 10.6563L7.7438 11.2813L6.7438 11.5125L6.75005 12.525L5.9563 11.8938L5.16255 12.525V11.5125L4.17505 11.2875L4.9688 10.6563L4.5313 9.73755L5.5188 9.9688L5.9563 9.05005ZM9.52505 13.925L9.96255 14.8375L10.9563 14.6063L10.5125 15.525L11.3063 16.1563L10.3188 16.3813V17.4L9.52505 16.75L8.7313 17.3875V16.375L7.7438 16.15L8.53755 15.5188L8.10005 14.6L9.08755 14.8313L9.52505 13.925ZM6.97505 18.0938L7.3188 19.1563H8.43755L7.5313 19.8125L7.8813 20.875L6.97505 20.2188L6.06255 20.8688L6.41255 19.8063L5.5063 19.15H6.62505L6.97505 18.0938Z" fill="#EEEEEE"/>
<path d="M16 18.7813H17.3937C17.3937 18.7813 17.9937 17.7188 17.3937 16.6938L18.7812 15.3063L18.0875 13.9126H17.3937C17.3937 13.9126 17.0437 14.9563 15.65 14.9563C14.2562 14.9563 13.9125 13.9126 13.9125 13.9126H13.2188L13.9125 15.3063L13.2188 16.6938L13.9125 17.3938C13.9125 17.3938 14.6063 16.0001 16 16.6876C16 16.6876 16.5938 17.5626 16 18.7751V18.7813Z" fill="#6DA544"/>
<path d="M26.3876 8.7624C26.5139 8.09574 26.3933 7.40589 26.0482 6.82164C25.7032 6.23739 25.1573 5.79868 24.5126 5.5874C24.9883 6.55327 25.1521 7.64311 24.9813 8.70615C24.8078 8.42899 24.588 8.18374 24.3313 7.98115C23.8595 7.60474 23.2805 7.38747 22.6776 7.36052C22.0746 7.33357 21.4786 7.49833 20.975 7.83115C21.7747 8.00651 22.5232 8.36365 23.1625 8.8749C23.6813 9.2874 24.1 9.84365 24.425 10.3812L20.175 11.7124C24.35 12.4124 27.8251 9.6249 27.8251 9.6249C27.4438 8.85615 26.8438 8.7249 26.3876 8.7624Z" fill="#FFDA44"/>
</g>
</g>
<defs>
<clipPath id="clip0_859_6232">
<rect width="32" height="32" fill="white"/>
</clipPath>
</defs>
</svg>
