<svg width="32" height="32" viewBox="0 0 32 32" fill="none" xmlns="http://www.w3.org/2000/svg">
<g clip-path="url(#clip0_859_6243)">
<mask id="mask0_859_6243" style="mask-type:alpha" maskUnits="userSpaceOnUse" x="0" y="0" width="32" height="32">
<path d="M16 32C24.8366 32 32 24.8366 32 16C32 7.16344 24.8366 0 16 0C7.16344 0 0 7.16344 0 16C0 24.8366 7.16344 32 16 32Z" fill="white"/>
</mask>
<g mask="url(#mask0_859_6243)">
<path d="M0 0H32V32H0V0Z" fill="#EEEEEE"/>
<path d="M25.0438 13.9126H22.9563C22.9563 15.7575 22.2234 17.5269 20.9189 18.8314C19.6143 20.136 17.845 20.8688 16 20.8688C14.1551 20.8688 12.3858 20.136 11.0812 18.8314C9.77669 17.5269 9.0438 15.7575 9.0438 13.9126H6.9563C6.9563 18.0501 9.73755 21.5376 13.5313 22.6126C13.3201 23.0122 13.2307 23.4649 13.274 23.9147C13.3173 24.3646 13.4915 24.7919 13.775 25.1438L16.0438 23.3188L18.3188 25.1438C18.6042 24.7888 18.7784 24.3574 18.8196 23.9038C18.8607 23.4501 18.7669 22.9944 18.55 22.5938C20.4246 22.0419 22.0702 20.898 23.2407 19.3332C24.4112 17.7684 25.0438 15.8667 25.0438 13.9126Z" fill="#6DA544"/>
<path d="M10.4375 13.2188C10.4375 13.2188 10.4375 16.6938 13.9125 16.6938L14.6062 17.3938H16C16 17.3938 16.6937 15.3063 18.0875 15.3063C18.0875 15.3063 18.0875 13.9126 19.4813 13.9126H21.5625C21.5625 13.9126 20.875 11.1313 24.35 9.04385L22.9562 8.3501C22.9562 8.3501 18.0812 11.8251 14.6062 11.1313V12.5188H13.2188L12.5188 11.8313L10.4375 13.2188Z" fill="#FFDA44"/>
</g>
</g>
<defs>
<clipPath id="clip0_859_6243">
<rect width="32" height="32" fill="white"/>
</clipPath>
</defs>
</svg>
