<svg width="32" height="32" viewBox="0 0 32 32" fill="none" xmlns="http://www.w3.org/2000/svg">
<g clip-path="url(#clip0_859_6297)">
<mask id="mask0_859_6297" style="mask-type:alpha" maskUnits="userSpaceOnUse" x="0" y="0" width="32" height="32">
<path d="M16 32C24.8366 32 32 24.8366 32 16C32 7.16344 24.8366 0 16 0C7.16344 0 0 7.16344 0 16C0 24.8366 7.16344 32 16 32Z" fill="white"/>
</mask>
<g mask="url(#mask0_859_6297)">
<path d="M2.21875 16H29.9688L32 11.825V0H20.175L16 1.9875V29.775L11.825 32H0V20.175L2.21875 16Z" fill="#D80027"/>
<path d="M29.9688 16H2.21875L0 11.825V0H11.825L16 1.9875V29.775L20.175 32H32V20.175L29.9688 16Z" fill="#0052B4"/>
<path d="M11.825 0H20.175V11.825H32V20.175H20.175V32H11.825V20.175H0V11.825H11.825V0Z" fill="#EEEEEE"/>
<path d="M20.175 16C20.175 16.5482 20.067 17.0911 19.8572 17.5977C19.6474 18.1042 19.3399 18.5644 18.9522 18.9521C18.5645 19.3398 18.1043 19.6473 17.5977 19.8571C17.0912 20.067 16.5483 20.175 16 20.175C15.4517 20.175 14.9088 20.067 14.4023 19.8571C13.8958 19.6473 13.4355 19.3398 13.0478 18.9521C12.6602 18.5644 12.3526 18.1042 12.1428 17.5977C11.933 17.0911 11.825 16.5482 11.825 16C11.825 13.6937 16 11.825 16 11.825C16 11.825 20.175 13.7 20.175 16Z" fill="#496E2D"/>
<path d="M11.825 16C11.825 15.4517 11.933 14.9088 12.1428 14.4022C12.3526 13.8957 12.6602 13.4355 13.0478 13.0478C13.4355 12.6601 13.8958 12.3526 14.4023 12.1428C14.9088 11.9329 15.4517 11.825 16 11.825C16.5483 11.825 17.0912 11.9329 17.5977 12.1428C18.1043 12.3526 18.5645 12.6601 18.9522 13.0478C19.3399 13.4355 19.6474 13.8957 19.8572 14.4022C20.067 14.9088 20.175 15.4517 20.175 16" fill="#0052B4"/>
<path d="M13.65 13.9126V16.5188C13.65 17.1421 13.8976 17.7398 14.3383 18.1805C14.779 18.6213 15.3768 18.8688 16 18.8688C16.6233 18.8688 17.221 18.6213 17.6617 18.1805C18.1024 17.7398 18.35 17.1421 18.35 16.5188V13.9126H13.65Z" fill="#D80027"/>
</g>
</g>
<defs>
<clipPath id="clip0_859_6297">
<rect width="32" height="32" fill="white"/>
</clipPath>
</defs>
</svg>
