<svg width="32" height="32" viewBox="0 0 32 32" fill="none" xmlns="http://www.w3.org/2000/svg">
<g clip-path="url(#clip0_859_6308)">
<mask id="mask0_859_6308" style="mask-type:alpha" maskUnits="userSpaceOnUse" x="0" y="0" width="32" height="32">
<path d="M16 32C24.8366 32 32 24.8366 32 16C32 7.16344 24.8366 0 16 0C7.16344 0 0 7.16344 0 16C0 24.8366 7.16344 32 16 32Z" fill="white"/>
</mask>
<g mask="url(#mask0_859_6308)">
<path d="M0 0H16L18.8312 15.7375L16 32H0V0Z" fill="#496E2D"/>
<path d="M16 0H32V32H16V0Z" fill="#EEEEEE"/>
<path d="M19.4375 12.9312L18.125 14.7437L16 14.0562L17.3125 15.8562L16 17.6687L18.125 16.9749L19.4375 18.7874V16.5499L21.5625 15.8562L19.4375 15.1687V12.9312Z" fill="#D80027"/>
<path d="M17.325 20.5187C16.6386 20.5158 15.9618 20.3566 15.3461 20.0532C14.7304 19.7497 14.1919 19.3099 13.7716 18.7673C13.3512 18.2246 13.06 17.5933 12.92 16.9213C12.7801 16.2493 12.7951 15.5542 12.9638 14.8889C13.1326 14.2235 13.4508 13.6054 13.8941 13.0813C14.3375 12.5573 14.8944 12.1412 15.5226 11.8645C16.1508 11.5878 16.8338 11.4579 17.5197 11.4847C18.2056 11.5114 18.8765 11.694 19.4812 12.0187C18.6983 11.2535 17.707 10.7364 16.6316 10.5321C15.5561 10.3278 14.4442 10.4453 13.4352 10.87C12.4262 11.2948 11.565 12.0078 10.9594 12.9197C10.3538 13.8317 10.0308 14.9021 10.0308 15.9968C10.0308 17.0916 10.3538 18.1619 10.9594 19.0739C11.565 19.9859 12.4262 20.6989 13.4352 21.1236C14.4442 21.5483 15.5561 21.6659 16.6316 21.4616C17.707 21.2572 18.6983 20.7401 19.4812 19.975C18.8193 20.3337 18.0779 20.5207 17.325 20.5187Z" fill="#D80027"/>
</g>
</g>
<defs>
<clipPath id="clip0_859_6308">
<rect width="32" height="32" fill="white"/>
</clipPath>
</defs>
</svg>
