<svg width="32" height="32" viewBox="0 0 32 32" fill="none" xmlns="http://www.w3.org/2000/svg">
<g clip-path="url(#clip0_859_6318)">
<mask id="mask0_859_6318" style="mask-type:alpha" maskUnits="userSpaceOnUse" x="0" y="0" width="32" height="32">
<path d="M16 32C24.8366 32 32 24.8366 32 16C32 7.16344 24.8366 0 16 0C7.16344 0 0 7.16344 0 16C0 24.8366 7.16344 32 16 32Z" fill="white"/>
</mask>
<g mask="url(#mask0_859_6318)">
<path d="M0 24L15.9187 21.9563L32 23.9938V32H0V24Z" fill="#D80027"/>
<path d="M0 16L15.9375 14.3125L32 16V24H0V16Z" fill="#0052B4"/>
<path d="M0 0H32V16H0V0Z" fill="#FFDA44"/>
<path d="M16 21.5625C19.0721 21.5625 21.5625 19.0721 21.5625 16C21.5625 12.9279 19.0721 10.4375 16 10.4375C12.9279 10.4375 10.4375 12.9279 10.4375 16C10.4375 19.0721 12.9279 21.5625 16 21.5625Z" fill="#FFDA44"/>
<path d="M16 19.4749C14.0812 19.4749 12.5187 17.9124 12.5187 15.9999V13.9124C12.5187 12.9891 12.8855 12.1036 13.5384 11.4508C14.1912 10.7979 15.0767 10.4312 16 10.4312C16.9233 10.4312 17.8087 10.7979 18.4616 11.4508C19.1145 12.1036 19.4812 12.9891 19.4812 13.9124V15.9999C19.4812 17.9124 17.9187 19.4749 16 19.4749Z" fill="#338AF3"/>
<path d="M21.5625 7.6501H17.3937C17.3937 7.28045 17.2469 6.92595 16.9855 6.66457C16.7242 6.40319 16.3696 6.25635 16 6.25635C15.6304 6.25635 15.2758 6.40319 15.0145 6.66457C14.7531 6.92595 14.6062 7.28045 14.6062 7.6501H10.4375C10.4489 8.02371 10.6053 8.3782 10.8737 8.6384C11.1421 8.89859 11.5012 9.04402 11.875 9.04385H11.825C11.825 9.8126 12.45 10.4376 13.2188 10.4376C13.2188 11.2063 13.8437 11.8251 14.6062 11.8251H17.3937C18.1625 11.8251 18.7812 11.2001 18.7812 10.4376C19.55 10.4376 20.175 9.8126 20.175 9.04385H20.125C20.4988 9.04402 20.8579 8.89859 21.1263 8.6384C21.3947 8.3782 21.5511 8.02371 21.5625 7.6501Z" fill="#333333"/>
</g>
</g>
<defs>
<clipPath id="clip0_859_6318">
<rect width="32" height="32" fill="white"/>
</clipPath>
</defs>
</svg>
