<svg width="32" height="32" viewBox="0 0 32 32" fill="none" xmlns="http://www.w3.org/2000/svg">
<g clip-path="url(#clip0_859_6337)">
<mask id="mask0_859_6337" style="mask-type:alpha" maskUnits="userSpaceOnUse" x="0" y="0" width="32" height="32">
<path d="M16 32C24.8366 32 32 24.8366 32 16C32 7.16344 24.8366 0 16 0C7.16344 0 0 7.16344 0 16C0 24.8366 7.16344 32 16 32Z" fill="white"/>
</mask>
<g mask="url(#mask0_859_6337)">
<path d="M0 10.4374L15.9125 8.1499L32 10.4312V21.5562L16.0875 23.8312L0 21.5562V10.4374Z" fill="#EEEEEE"/>
<path d="M0 0H32V10.4312H0V0Z" fill="#D80027"/>
<path d="M0 21.5563H32V32H0V21.5563Z" fill="#333333"/>
<path d="M21.5625 14.2624H17.3937C17.3937 13.8928 17.2469 13.5383 16.9855 13.2769C16.7242 13.0155 16.3696 12.8687 16 12.8687C15.6304 12.8687 15.2758 13.0155 15.0145 13.2769C14.7531 13.5383 14.6062 13.8928 14.6062 14.2624H10.4375C10.4505 14.6349 10.6076 14.9878 10.8758 15.2467C11.144 15.5056 11.5023 15.6501 11.875 15.6499H11.825C11.825 16.4187 12.45 17.0437 13.2188 17.0437C13.2188 17.8124 13.8437 18.4374 14.6062 18.4374H17.3937C18.1625 18.4374 18.7812 17.8124 18.7812 17.0437C19.55 17.0437 20.175 16.4187 20.175 15.6499H20.125C20.4977 15.6501 20.856 15.5056 21.1242 15.2467C21.3924 14.9878 21.5495 14.6349 21.5625 14.2624Z" fill="#FF9811"/>
</g>
</g>
<defs>
<clipPath id="clip0_859_6337">
<rect width="32" height="32" fill="white"/>
</clipPath>
</defs>
</svg>
