<svg width="32" height="32" viewBox="0 0 32 32" fill="none" xmlns="http://www.w3.org/2000/svg">
<g clip-path="url(#clip0_859_6346)">
<mask id="mask0_859_6346" style="mask-type:alpha" maskUnits="userSpaceOnUse" x="0" y="0" width="32" height="32">
<path d="M16 32C24.8366 32 32 24.8366 32 16C32 7.16344 24.8366 0 16 0C7.16344 0 0 7.16344 0 16C0 24.8366 7.16344 32 16 32Z" fill="white"/>
</mask>
<g mask="url(#mask0_859_6346)">
<path d="M5.63125 9.0501L18.7875 7.31885L32 9.0501V22.9626L18.9375 24.9876L5.625 22.9626L5.63125 9.0501Z" fill="#EEEEEE"/>
<path d="M0 0H32V9.05H1.7625L0 0Z" fill="#333333"/>
<path d="M2.46875 22.9625H32V32H0L2.46875 22.9625Z" fill="#496E2D"/>
<path d="M0 0.00634766V32.0001H0.00625L16 16.0063L0 0.00634766ZM22.8188 11.1376C22.1359 11.1499 21.4633 11.3055 20.8445 11.5944C20.2257 11.8833 19.6745 12.2989 19.2265 12.8144C18.7786 13.33 18.444 13.9338 18.2444 14.5869C18.0448 15.2401 17.9847 15.9278 18.0679 16.6056C18.1511 17.2835 18.3757 17.9363 18.7273 18.5217C19.0789 19.1072 19.5496 19.6122 20.1089 20.0042C20.6682 20.3961 21.3036 20.6661 21.9739 20.7968C22.6442 20.9274 23.3345 20.9158 24 20.7626C22.9199 20.5197 21.9546 19.9165 21.2629 19.052C20.5713 18.1876 20.1944 17.1134 20.1944 16.0063C20.1944 14.8993 20.5713 13.8251 21.2629 12.9607C21.9546 12.0962 22.9199 11.493 24 11.2501C23.6123 11.1648 23.2156 11.127 22.8188 11.1376Z" fill="#D80027"/>
<path d="M24.2062 12.8813L24.8937 15.0063H27.1312L25.3187 16.3188L26.0125 18.4438L24.2 17.1313L22.3937 18.4438L23.0875 16.3188L21.275 15.0063H23.5125L24.2062 12.8813Z" fill="#D80027"/>
</g>
</g>
<defs>
<clipPath id="clip0_859_6346">
<rect width="32" height="32" fill="white"/>
</clipPath>
</defs>
</svg>
