<svg width="32" height="32" viewBox="0 0 32 32" fill="none" xmlns="http://www.w3.org/2000/svg">
<g clip-path="url(#clip0_859_6356)">
<mask id="mask0_859_6356" style="mask-type:alpha" maskUnits="userSpaceOnUse" x="0" y="0" width="32" height="32">
<path d="M16 32C24.8366 32 32 24.8366 32 16C32 7.16344 24.8366 0 16 0C7.16344 0 0 7.16344 0 16C0 24.8366 7.16344 32 16 32Z" fill="white"/>
</mask>
<g mask="url(#mask0_859_6356)">
<path d="M0 0H32V16H3.875L0 0Z" fill="#6DA544"/>
<path d="M3.875 16H32V32H0L3.875 16Z" fill="#338AF3"/>
<path d="M0 0V32L32 16L0 0Z" fill="#D80027"/>
<path d="M8.34998 9.3938C5.28123 9.3938 2.78748 11.8938 2.78748 14.9563V17.0438C2.85527 18.4735 3.47092 19.8221 4.50666 20.8099C5.5424 21.7977 6.91872 22.3488 8.34998 22.3488C9.78124 22.3488 11.1575 21.7977 12.1933 20.8099C13.229 19.8221 13.8447 18.4735 13.9125 17.0438V14.9563C13.9125 11.8938 11.4125 9.3938 8.34998 9.3938ZM11.825 17.0438C11.825 18.6 10.8 19.9188 9.38748 20.3563V18.0875L10.8687 16.6125L9.39373 15.1375V13.9125H7.30623V16L5.83123 17.475L7.30623 18.95V20.3625C6.59978 20.1405 5.98254 19.699 5.54419 19.1022C5.10584 18.5054 4.86923 17.7843 4.86873 17.0438V14.9563C4.90676 14.0594 5.28983 13.2118 5.93794 12.5906C6.58605 11.9693 7.4491 11.6225 8.34685 11.6225C9.2446 11.6225 10.1076 11.9693 10.7558 12.5906C11.4039 13.2118 11.7869 14.0594 11.825 14.9563V17.0438Z" fill="#FFDA44"/>
</g>
</g>
<defs>
<clipPath id="clip0_859_6356">
<rect width="32" height="32" fill="white"/>
</clipPath>
</defs>
</svg>
