<svg width="32" height="32" viewBox="0 0 32 32" fill="none" xmlns="http://www.w3.org/2000/svg">
<g clip-path="url(#clip0_859_6401)">
<mask id="mask0_859_6401" style="mask-type:alpha" maskUnits="userSpaceOnUse" x="0" y="0" width="32" height="32">
<path d="M16 32C24.8366 32 32 24.8366 32 16C32 7.16344 24.8366 0 16 0C7.16344 0 0 7.16344 0 16C0 24.8366 7.16344 32 16 32Z" fill="white"/>
</mask>
<g mask="url(#mask0_859_6401)">
<path d="M0 21.5625L15.9812 19.625L32 21.5625V32H0V21.5625Z" fill="#D80027"/>
<path d="M0 10.4375L16.125 7.8938L32 10.4375V21.5625H0V10.4375Z" fill="#FFDA44"/>
<path d="M0 0H32V10.4375H0V0Z" fill="#6DA544"/>
<path d="M16 23.65C20.225 23.65 23.65 20.225 23.65 16C23.65 11.775 20.225 8.34998 16 8.34998C11.775 8.34998 8.34998 11.775 8.34998 16C8.34998 20.225 11.775 23.65 16 23.65Z" fill="#0052B4"/>
<path d="M16 10.075L17.375 14.325H21.8562L18.2312 16.95L19.625 21.2187L16 18.575L12.375 21.2125L13.7625 16.9562L10.1375 14.3312H14.625L16 10.075Z" fill="#FFDA44"/>
<path d="M21.5062 17.0624L17.1312 15.6312L19.8312 11.9062L18.7062 11.0937L15.9999 14.8124L13.2937 11.0812L12.1687 11.8999L14.8749 15.6312L10.4937 17.0499L10.9249 18.3749L15.2999 16.9499V21.5624H16.6937V16.9562L21.0749 18.3812L21.5062 17.0624Z" fill="#FFDA44"/>
</g>
</g>
<defs>
<clipPath id="clip0_859_6401">
<rect width="32" height="32" fill="white"/>
</clipPath>
</defs>
</svg>
