<svg width="32" height="32" viewBox="0 0 32 32" fill="none" xmlns="http://www.w3.org/2000/svg">
<g clip-path="url(#clip0_859_6444)">
<mask id="mask0_859_6444" style="mask-type:alpha" maskUnits="userSpaceOnUse" x="0" y="0" width="32" height="32">
<path d="M16 32C24.8366 32 32 24.8366 32 16C32 7.16344 24.8366 0 16 0C7.16344 0 0 7.16344 0 16C0 24.8366 7.16344 32 16 32Z" fill="white"/>
</mask>
<g mask="url(#mask0_859_6444)">
<path d="M0 0H32V32H0V0Z" fill="#338AF3"/>
<path d="M16 6.9563L16.6875 9.0813H18.925L17.1125 10.3938L17.8063 12.5188L16 11.2063L14.1875 12.5188L14.8813 10.3938L13.0688 9.0813H15.3125L16 6.9563ZM6.9563 16L9.0813 15.3125V13.075L10.3938 14.8875L12.5188 14.1938L11.2063 16L12.5188 17.8125L10.3938 17.1188L9.0813 18.9313V16.6875L6.9563 16ZM16 25.0438L15.3125 22.9188H13.075L14.8875 21.6063L14.1938 19.4813L16 20.7938L17.8125 19.4813L17.1188 21.6063L18.9313 22.9188H16.6875L16 25.0438ZM25.0438 16L22.9188 16.6875V18.925L21.6063 17.1125L19.4813 17.8063L20.7938 16L19.4813 14.1875L21.6063 14.8813L22.9188 13.0688V15.3125L25.0438 16Z" fill="#EEEEEE"/>
</g>
</g>
<defs>
<clipPath id="clip0_859_6444">
<rect width="32" height="32" fill="white"/>
</clipPath>
</defs>
</svg>
