<svg width="32" height="32" viewBox="0 0 32 32" fill="none" xmlns="http://www.w3.org/2000/svg">
<g clip-path="url(#clip0_859_6529)">
<mask id="mask0_859_6529" style="mask-type:alpha" maskUnits="userSpaceOnUse" x="0" y="0" width="32" height="32">
<path d="M16 32C24.8366 32 32 24.8366 32 16C32 7.16344 24.8366 0 16 0C7.16344 0 0 7.16344 0 16C0 24.8366 7.16344 32 16 32Z" fill="white"/>
</mask>
<g mask="url(#mask0_859_6529)">
<path d="M0 21.5625L16.0187 19.6062L32 21.5625V32H0V21.5625Z" fill="#D80027"/>
<path d="M0 0H32V21.5625H0V0Z" fill="#EEEEEE"/>
<path d="M22.2625 13.2188V11.125H22.9562V9.7313H21.5625V10.4375H20.175V9.73755H18.7812V11.1313H19.4812V13.2188H18.0875V8.3438H18.7812V6.9563H17.3937V7.65005H16.6875V6.96255H15.3125V7.65005H14.6125V6.96255H13.225V8.35005H13.9187V13.2188H12.525V11.125H13.225V9.7313H11.8312V10.4375H10.4375V9.73755H9.04373V11.1313H9.73748V13.2188H8.34998V18.7813H23.65V13.2188H22.2625Z" fill="#D80027"/>
<path d="M16 18.0875C15.5074 18.0876 15.0307 18.2618 14.6543 18.5795C14.2778 18.8971 14.0257 19.3376 13.9427 19.8231C13.8596 20.3086 13.9509 20.8079 14.2005 21.2326C14.45 21.6572 14.8417 21.98 15.3062 22.1438V25.0438H13.2188V27.825H16.6875V22.1375C17.1477 21.9707 17.5347 21.6475 17.7808 21.2243C18.0268 20.8012 18.1164 20.305 18.0337 19.8225C17.9511 19.34 17.7015 18.9019 17.3286 18.5848C16.9557 18.2676 16.4832 18.0916 15.9937 18.0875H16ZM16 20.8688C15.9089 20.8688 15.8187 20.8508 15.7345 20.816C15.6503 20.7811 15.5739 20.73 15.5094 20.6656C15.445 20.6012 15.3939 20.5247 15.3591 20.4405C15.3242 20.3563 15.3062 20.2661 15.3062 20.175C15.3062 20.0839 15.3242 19.9937 15.3591 19.9095C15.3939 19.8254 15.445 19.7489 15.5094 19.6845C15.5739 19.62 15.6503 19.5689 15.7345 19.5341C15.8187 19.4992 15.9089 19.4813 16 19.4813C16.184 19.4813 16.3605 19.5544 16.4906 19.6845C16.6207 19.8146 16.6938 19.991 16.6938 20.175C16.6938 20.359 16.6207 20.5355 16.4906 20.6656C16.3605 20.7957 16.184 20.8688 16 20.8688Z" fill="#FFDA44"/>
</g>
</g>
<defs>
<clipPath id="clip0_859_6529">
<rect width="32" height="32" fill="white"/>
</clipPath>
</defs>
</svg>
