<svg width="32" height="32" viewBox="0 0 32 32" fill="none" xmlns="http://www.w3.org/2000/svg">
<g clip-path="url(#clip0_859_6547)">
<mask id="mask0_859_6547" style="mask-type:alpha" maskUnits="userSpaceOnUse" x="0" y="0" width="32" height="32">
<path d="M16 32C24.8366 32 32 24.8366 32 16C32 7.16344 24.8366 0 16 0C7.16344 0 0 7.16344 0 16C0 24.8366 7.16344 32 16 32Z" fill="white"/>
</mask>
<g mask="url(#mask0_859_6547)">
<path d="M0 9.73745L15.9375 7.82495L32 9.73745V11.825L30.2687 16.025L32 20.175V22.2625L16 24.2875L0 22.2625V20.175L1.8 15.8937L0 11.825V9.73745Z" fill="#EEEEEE"/>
<path d="M0 0H32V9.7375H0V0Z" fill="#A2001D"/>
<path d="M0 11.825H32V20.175H0V11.825Z" fill="#0052B4"/>
<path d="M0 22.2625H32V32H0V22.2625Z" fill="#496E2D"/>
</g>
</g>
<defs>
<clipPath id="clip0_859_6547">
<rect width="32" height="32" fill="white"/>
</clipPath>
</defs>
</svg>
