<svg width="32" height="32" viewBox="0 0 32 32" fill="none" xmlns="http://www.w3.org/2000/svg">
<g clip-path="url(#clip0_859_6616)">
<mask id="mask0_859_6616" style="mask-type:alpha" maskUnits="userSpaceOnUse" x="0" y="0" width="32" height="32">
<path d="M16 32C24.8366 32 32 24.8366 32 16C32 7.16344 24.8366 0 16 0C7.16344 0 0 7.16344 0 16C0 24.8366 7.16344 32 16 32Z" fill="white"/>
</mask>
<g mask="url(#mask0_859_6616)">
<path d="M0 0H32V2.7875L29.425 15.7375L32 29.225V32H0V29.225L2.375 15.5375L0 2.7875V0Z" fill="#D80027"/>
<path d="M0 2.78748H32V29.225H0V2.78748Z" fill="#0052B4"/>
<path d="M15.0937 26.1062C14.875 25.9187 9.73749 21.45 9.73749 16.0062C9.73749 10.5687 14.875 6.09373 15.0937 5.90623L16 5.13123L16.9062 5.90623C17.125 6.09373 22.2625 10.5562 22.2625 16.0062C22.2625 21.4562 17.125 25.9187 16.9062 26.1062L16 26.8812L15.0937 26.1062Z" fill="#D80027"/>
<path d="M20.875 16.0063C20.875 11.1313 16 6.96252 16 6.96252C16 6.96252 11.125 11.1375 11.125 16.0063C11.1599 17.4641 11.5344 18.8936 12.2188 20.1813H19.7812C20.4634 18.8931 20.8358 17.4636 20.8687 16.0063H20.875Z" fill="#338AF3"/>
<path d="M20.875 16.0062C20.84 17.464 20.4655 18.8936 19.7812 20.1812L16 20.875L12.2187 20.1875C11.5356 18.8974 11.1633 17.4656 11.1312 16.0062H20.8687H20.875Z" fill="#0052B4"/>
<path d="M16 25.05C16 25.05 18.3438 23.0375 19.7812 20.175H12.2188C13.6562 23.0375 16 25.05 16 25.05Z" fill="#FFDA44"/>
<path d="M12.875 13.225H19.125L16 16.35L12.875 13.225Z" fill="#6DA544"/>
<path d="M14.9562 15.3125H17.0437V21.5688H14.9562V15.3125Z" fill="#A2001D"/>
</g>
</g>
<defs>
<clipPath id="clip0_859_6616">
<rect width="32" height="32" fill="white"/>
</clipPath>
</defs>
</svg>
