<svg width="32" height="32" viewBox="0 0 32 32" fill="none" xmlns="http://www.w3.org/2000/svg">
<g clip-path="url(#clip0_859_6711)">
<mask id="mask0_859_6711" style="mask-type:alpha" maskUnits="userSpaceOnUse" x="0" y="0" width="32" height="32">
<path d="M16 32C24.8366 32 32 24.8366 32 16C32 7.16344 24.8366 0 16 0C7.16344 0 0 7.16344 0 16C0 24.8366 7.16344 32 16 32Z" fill="white"/>
</mask>
<g mask="url(#mask0_859_6711)">
<path d="M0 0H32V3.48125L30.4375 5.525L32 7.65V24.35L30.375 26.6L32 28.5187V32H0V28.5187L1.55 26.3875L0 24.35V7.65L1.7 5.575L0 3.48125V0Z" fill="#EEEEEE"/>
<path d="M0 3.4812V7.64995H32V3.4812H0ZM0 24.35V28.5187H32V24.35H0ZM22.025 12.5187H18L16 9.0437L13.9937 12.5187H9.975L11.9812 16L9.98125 19.4812H13.9937L16 22.9562L18.0063 19.4812H22.025L20.0187 16L22.0187 12.5187H22.025ZM18.4625 16L17.2313 18.1375H14.7688L13.5312 16L14.7688 13.8625H17.2313L18.4688 16H18.4625ZM16 11.725L16.4562 12.5187H15.5437L16 11.725ZM12.3 13.8625H13.2188L12.7563 14.6562L12.3 13.8625ZM12.3 18.1375L12.7563 17.3437L13.2188 18.1375H12.3ZM16 20.275L15.5437 19.4812H16.4562L16 20.275ZM19.7 18.1375H18.7812L19.2437 17.3437L19.7 18.1375ZM18.7812 13.8625H19.7L19.2437 14.6562L18.7812 13.8625Z" fill="#0052B4"/>
</g>
</g>
<defs>
<clipPath id="clip0_859_6711">
<rect width="32" height="32" fill="white"/>
</clipPath>
</defs>
</svg>
