<svg width="32" height="32" viewBox="0 0 32 32" fill="none" xmlns="http://www.w3.org/2000/svg">
<g clip-path="url(#clip0_859_6725)">
<mask id="mask0_859_6725" style="mask-type:alpha" maskUnits="userSpaceOnUse" x="0" y="0" width="32" height="32">
<path d="M16 32C24.8366 32 32 24.8366 32 16C32 7.16344 24.8366 0 16 0C7.16344 0 0 7.16344 0 16C0 24.8366 7.16344 32 16 32Z" fill="white"/>
</mask>
<g mask="url(#mask0_859_6725)">
<path d="M0 9.0437L15.9563 6.76245L32 9.0437V22.9562L15.6562 25.4375L0 22.9562V9.0437Z" fill="#EEEEEE"/>
<path d="M0 0H32V9.04375H0V0Z" fill="#FF9811"/>
<path d="M0 22.9563H32V32H0V22.9563Z" fill="#6DA544"/>
<path d="M16 21.5625C19.0721 21.5625 21.5625 19.0721 21.5625 16C21.5625 12.9279 19.0721 10.4375 16 10.4375C12.9279 10.4375 10.4375 12.9279 10.4375 16C10.4375 19.0721 12.9279 21.5625 16 21.5625Z" fill="#0052B4"/>
<path d="M16 19.4813C17.9227 19.4813 19.4813 17.9227 19.4813 16C19.4813 14.0774 17.9227 12.5188 16 12.5188C14.0774 12.5188 12.5188 14.0774 12.5188 16C12.5188 17.9227 14.0774 19.4813 16 19.4813Z" fill="#EEEEEE"/>
<path d="M16 11.7063L17.075 14.1438L19.7188 13.8563L18.1437 16L19.7188 18.1438L17.075 17.8563L16 20.2938L14.925 17.8563L12.2812 18.1438L13.8562 16L12.2812 13.8563L14.925 14.1438L16 11.7063Z" fill="#0052B4"/>
</g>
</g>
<defs>
<clipPath id="clip0_859_6725">
<rect width="32" height="32" fill="white"/>
</clipPath>
</defs>
</svg>
