<svg width="32" height="32" viewBox="0 0 32 32" fill="none" xmlns="http://www.w3.org/2000/svg">
<g clip-path="url(#clip0_859_6750)">
<mask id="mask0_859_6750" style="mask-type:alpha" maskUnits="userSpaceOnUse" x="0" y="0" width="32" height="32">
<path d="M16 32C24.8366 32 32 24.8366 32 16C32 7.16344 24.8366 0 16 0C7.16344 0 0 7.16344 0 16C0 24.8366 7.16344 32 16 32Z" fill="white"/>
</mask>
<g mask="url(#mask0_859_6750)">
<path d="M0 10.4375L15.8625 9.2312L32 10.4375V21.5625L16.0688 23.5812L0 21.5625V10.4375Z" fill="#EEEEEE"/>
<path d="M0 0H32V10.4375H0V0Z" fill="#A2001D"/>
<path d="M0 21.5625H32V32H0V21.5625Z" fill="#333333"/>
<path d="M12.175 14.9562H9.0875C9.16506 14.6572 9.33974 14.3925 9.58409 14.2036C9.82845 14.0147 10.1286 13.9122 10.4375 13.9125V11.825C8.51875 11.825 6.95625 13.3875 6.95625 15.3062V17.0437H12.175C12.2667 17.0453 12.3542 17.0829 12.4185 17.1484C12.4827 17.2139 12.5188 17.3019 12.5188 17.3937V18.0812H5.5625V20.175H14.6062V17.3937C14.6062 16.7472 14.3494 16.1272 13.8923 15.6701C13.4352 15.213 12.8152 14.9562 12.1687 14.9562H12.175ZM17.3937 18.0812V11.8312H15.3062V20.175H18.7812V18.0875L17.3937 18.0812ZM24.35 18.0812V11.8312H22.2625V18.0812H21.5625V16H19.4813V20.175H25.7375V18.0875L24.35 18.0812Z" fill="#496E2D"/>
</g>
</g>
<defs>
<clipPath id="clip0_859_6750">
<rect width="32" height="32" fill="white"/>
</clipPath>
</defs>
</svg>
