<svg width="32" height="32" viewBox="0 0 32 32" fill="none" xmlns="http://www.w3.org/2000/svg">
<g clip-path="url(#clip0_859_6759)">
<mask id="mask0_859_6759" style="mask-type:alpha" maskUnits="userSpaceOnUse" x="0" y="0" width="32" height="32">
<path d="M16 32C24.8366 32 32 24.8366 32 16C32 7.16344 24.8366 0 16 0C7.16344 0 0 7.16344 0 16C0 24.8366 7.16344 32 16 32Z" fill="white"/>
</mask>
<g mask="url(#mask0_859_6759)">
<path d="M0 9.04373L16.175 2.47498L32 9.04373V22.9562L16.0625 30.8125L0 22.9562V9.04373Z" fill="#EEEEEE"/>
<path d="M0 0V9.04375H6.6V7.65625H8.7V9.04375H10.7812V7.65625H12.8813V9.04375H14.9625V7.65625H17.0625V9.04375H19.125V7.65625H21.225V9.04375H23.3V7.65625H25.4V9.04375H32V0H0Z" fill="#6DA544"/>
<path d="M0 22.9563V32H32V22.9563H25.4V24.3563H23.3V22.9563H21.225V24.3563H19.125V22.9563H17.0625V24.3563H14.9625V22.9563H12.8813V24.3563H10.7812V22.9563H8.7V24.3563H6.6V22.9563H0ZM21.1938 11.8313H19.1063C19.1188 12.0625 19.1313 12.2938 19.1313 12.525C19.1313 14.075 18.7437 15.575 18.0688 16.65C17.8625 16.975 17.5063 17.4375 17.0438 17.75V11.8313H14.9563V17.7563C14.4875 17.4438 14.1437 16.9813 13.9312 16.65C13.2562 15.5875 12.8687 14.0875 12.8687 12.5313C12.8687 12.3 12.8813 12.0688 12.8938 11.8438H10.8125C10.7975 12.0727 10.7892 12.3019 10.7875 12.5313C10.7875 16.825 13.0813 20.1875 16.0063 20.1875C18.9312 20.1875 21.225 16.825 21.225 12.5313C21.225 12.3 21.2188 12.0688 21.2 11.8438L21.1938 11.8313Z" fill="#D80027"/>
</g>
</g>
<defs>
<clipPath id="clip0_859_6759">
<rect width="32" height="32" fill="white"/>
</clipPath>
</defs>
</svg>
