<svg width="32" height="32" viewBox="0 0 32 32" fill="none" xmlns="http://www.w3.org/2000/svg">
<g clip-path="url(#clip0_859_6817)">
<mask id="mask0_859_6817" style="mask-type:alpha" maskUnits="userSpaceOnUse" x="0" y="0" width="32" height="32">
<path d="M16 32C24.8366 32 32 24.8366 32 16C32 7.16344 24.8366 0 16 0C7.16344 0 0 7.16344 0 16C0 24.8366 7.16344 32 16 32Z" fill="white"/>
</mask>
<g mask="url(#mask0_859_6817)">
<path d="M0 9.04375L15.8375 7.28125L32 9.04375V11.125L29.75 15.9L32 20.875V22.9562L15.9187 25L0 22.9562V20.875L2.4375 16L0 11.125V9.04375Z" fill="#EEEEEE"/>
<path d="M0 0H32V9.04375H0V0Z" fill="#333333"/>
<path d="M0 11.125H32V20.875H0V11.125Z" fill="#A2001D"/>
<path d="M0 22.9563H32V32H0V22.9563Z" fill="#496E2D"/>
<path d="M20.9937 7.3938L19.1 6.5188L16.0125 13.5125L12.925 6.5188L11.0312 7.3938L14.8625 16L11.0312 24.6063L12.925 25.4813L16.0125 18.4875L19.1 25.4813L20.9937 24.6063L17.1625 16L20.9937 7.3938Z" fill="#EEEEEE"/>
<path d="M16.0125 6.9563C16.0125 6.9563 15.575 7.3188 14.9688 7.9563L13.9688 15.9313L14.9688 24.0438C15.575 24.6813 16.0125 25.0438 16.0125 25.0438C16.0125 25.0438 16.45 24.6813 17.0562 24.0438L17.9937 15.875L17.0562 7.9563C16.45 7.3188 16.0125 6.9563 16.0125 6.9563Z" fill="#EEEEEE"/>
<path d="M19.4937 11.2L18.8687 15.9187L19.4937 20.8C20.3563 19.3441 20.8318 17.6916 20.875 16C20.875 14.2375 20.2687 12.5937 19.4875 11.2H19.4937ZM12.5312 11.2L13.0875 15.8437L12.525 20.8C11.6624 19.3441 11.1869 17.6916 11.1437 16C11.1437 14.2375 11.75 12.5937 12.5312 11.2Z" fill="#333333"/>
<path d="M12.5312 11.2V20.8C13.2098 21.9757 14.0283 23.0649 14.9688 24.0438V7.9563C14.2563 8.7063 13.3062 9.8313 12.5312 11.2063V11.2ZM19.4937 11.2C18.8152 10.0244 17.9967 8.93518 17.0562 7.9563V24.0438C17.7687 23.2938 18.7125 22.1688 19.4937 20.7938V11.2063V11.2Z" fill="#A2001D"/>
</g>
</g>
<defs>
<clipPath id="clip0_859_6817">
<rect width="32" height="32" fill="white"/>
</clipPath>
</defs>
</svg>
