<svg width="32" height="32" viewBox="0 0 32 32" fill="none" xmlns="http://www.w3.org/2000/svg">
<g clip-path="url(#clip0_859_6847)">
<mask id="mask0_859_6847" style="mask-type:alpha" maskUnits="userSpaceOnUse" x="0" y="0" width="32" height="32">
<path d="M16 32C24.8366 32 32 24.8366 32 16C32 7.16344 24.8366 0 16 0C7.16344 0 0 7.16344 0 16C0 24.8366 7.16344 32 16 32Z" fill="white"/>
</mask>
<g mask="url(#mask0_859_6847)">
<path d="M0 0H32L31.9937 14.675L16.075 30.9813L0.01875 14.675L0 0Z" fill="#D80027"/>
<path d="M21.5625 14.875L19.2938 15.95L20.5 18.15L18.0312 17.6813L17.7188 20.175L16 18.3375L14.2812 20.175L13.9688 17.675L11.5 18.15L12.7063 15.95L10.4375 14.875L12.7063 13.8063L11.5 11.6L13.9688 12.075L14.2812 9.57502L16 11.4125L17.7188 9.58127L18.0312 12.075L20.5 11.6L19.2938 13.8063L21.5625 14.875ZM20.175 5.22502H17.0438C17.0438 4.9482 16.9338 4.68272 16.738 4.48698C16.5423 4.29124 16.2768 4.18127 16 4.18127C15.7232 4.18127 15.4577 4.29124 15.262 4.48698C15.0662 4.68272 14.9563 4.9482 14.9563 5.22502H11.8313C11.8313 5.80002 12.3312 6.26877 12.9062 6.26877H12.8687C12.8687 6.84377 13.3375 7.31252 13.9125 7.31252C13.9125 7.88752 14.3813 8.35627 14.9563 8.35627H17.0438C17.6188 8.35627 18.0875 7.88752 18.0875 7.31252C18.6625 7.31252 19.1313 6.84377 19.1313 6.26877H19.0938C19.675 6.26877 20.175 5.80002 20.175 5.22502Z" fill="#FFDA44"/>
<path d="M5.3313 14.675C4.00005 14.675 4.00005 15.8938 2.66255 15.8938C1.33755 15.8938 1.3313 14.6875 0.0187988 14.675V16.8188L0.787549 17.9563L0.0187988 18.9625V21L0.818799 22.1375L0.0187988 23.1438V25.1688L2.46255 28.2563L30.0375 28.4438L31.9938 25.1688V23.1438L31.4813 22.1188L31.9938 21V18.9625L31.35 18.0875L31.9938 16.8188V14.675C30.6688 14.675 30.6688 15.8938 29.3375 15.8938C28.0063 15.8938 28 14.675 26.6688 14.675C25.3376 14.675 25.3375 15.8938 24 15.8938C22.6688 15.8938 22.6688 14.675 21.3375 14.675C20 14.675 20 15.8938 18.6688 15.8938C17.3376 15.8938 17.3375 14.675 16 14.675C14.6625 14.675 14.6625 15.8938 13.3313 15.8938C12 15.8938 12 14.675 10.6625 14.675C9.3313 14.675 9.3313 15.8938 8.00005 15.8938C6.6688 15.8938 6.66255 14.675 5.3313 14.675Z" fill="#EEEEEE"/>
<path d="M5.33125 16.8187C4 16.8187 4 18.0375 2.6625 18.0375C1.3375 18.0375 1.33125 16.8312 0.01875 16.8187V18.9625C1.33125 18.975 1.3375 20.1812 2.6625 20.1812C4 20.1812 4 18.9625 5.33125 18.9625C6.6625 18.9625 6.6625 20.1812 8 20.1812C9.3375 20.1812 9.33125 18.9625 10.6625 18.9625C12 18.9625 12 20.1812 13.3313 20.1812C14.6625 20.1812 14.6625 18.9625 16 18.9625C17.3375 18.9625 17.3375 20.1812 18.6688 20.1812C20 20.1812 20 18.9625 21.3375 18.9625C22.6687 18.9625 22.6688 20.1812 24 20.1812C25.3375 20.1812 25.3375 18.9625 26.6688 18.9625C28 18.9625 28 20.1812 29.3375 20.1812C30.675 20.1812 30.6687 18.9687 31.9937 18.9625V16.8187C30.6687 16.8187 30.6687 18.0375 29.3375 18.0375C28.0063 18.0375 28 16.8187 26.6688 16.8187C25.3375 16.8187 25.3375 18.0375 24 18.0375C22.6688 18.0375 22.6687 16.8187 21.3375 16.8187C20 16.8187 20 18.0375 18.6688 18.0375C17.3375 18.0375 17.3375 16.8187 16 16.8187C14.6625 16.8187 14.6625 18.0375 13.3313 18.0375C12 18.0375 12 16.8187 10.6625 16.8187C9.33125 16.8187 9.33125 18.0375 8 18.0375C6.66875 18.0375 6.6625 16.8187 5.33125 16.8187ZM5.33125 21C4 21 4 22.2187 2.6625 22.2187C1.3375 22.2187 1.33125 21.0125 0.01875 21V23.1437C1.33125 23.1562 1.3375 24.3625 2.6625 24.3625C4 24.3625 4 23.1437 5.33125 23.1437C6.6625 23.1437 6.6625 24.3625 8 24.3625C9.3375 24.3625 9.33125 23.1437 10.6625 23.1437C12 23.1437 12 24.3625 13.3313 24.3625C14.6625 24.3625 14.6625 23.1437 16 23.1437C17.3375 23.1437 17.3375 24.3625 18.6688 24.3625C20 24.3625 20 23.1437 21.3375 23.1437C22.6687 23.1437 22.6688 24.3625 24 24.3625C25.3375 24.3625 25.3375 23.1437 26.6688 23.1437C28 23.1437 28 24.3625 29.3375 24.3625C30.675 24.3625 30.6687 23.15 31.9937 23.1437V21C30.6687 21 30.6687 22.2187 29.3375 22.2187C28.0063 22.2187 28 21 26.6688 21C25.3375 21 25.3375 22.2187 24 22.2187C22.6688 22.2187 22.6687 21 21.3375 21C20 21 20 22.2187 18.6688 22.2187C17.3375 22.2187 17.3375 21 16 21C14.6625 21 14.6625 22.2187 13.3313 22.2187C12 22.2187 12 21 10.6625 21C9.33125 21 9.33125 22.2187 8 22.2187C6.66875 22.2187 6.6625 21 5.33125 21ZM5.33125 25.1687C4 25.1687 4 26.3875 2.6625 26.3875C1.3375 26.3875 1.33125 25.1812 0.01875 25.1687L0 32H32L31.9937 25.1687C30.6687 25.1687 30.6687 26.3875 29.3375 26.3875C28.0063 26.3875 28 25.1687 26.6688 25.1687C25.3375 25.1687 25.3375 26.3875 24 26.3875C22.6688 26.3875 22.6687 25.1687 21.3375 25.1687C20 25.1687 20 26.3875 18.6688 26.3875C17.3375 26.3875 17.3375 25.1687 16 25.1687C14.6625 25.1687 14.6625 26.3875 13.3313 26.3875C12 26.3875 12 25.1687 10.6625 25.1687C9.33125 25.1687 9.33125 26.3875 8 26.3875C6.66875 26.3875 6.6625 25.1687 5.33125 25.1687Z" fill="#0052B4"/>
</g>
</g>
<defs>
<clipPath id="clip0_859_6847">
<rect width="32" height="32" fill="white"/>
</clipPath>
</defs>
</svg>
