<svg width="32" height="32" viewBox="0 0 32 32" fill="none" xmlns="http://www.w3.org/2000/svg">
<g clip-path="url(#clip0_859_6856)">
<mask id="mask0_859_6856" style="mask-type:alpha" maskUnits="userSpaceOnUse" x="0" y="0" width="32" height="32">
<path d="M16 32C24.8366 32 32 24.8366 32 16C32 7.16344 24.8366 0 16 0C7.16344 0 0 7.16344 0 16C0 24.8366 7.16344 32 16 32Z" fill="white"/>
</mask>
<g mask="url(#mask0_859_6856)">
<path d="M7.775 9.35625L32 8.3V0H0L7.775 9.35625Z" fill="#FFDA44"/>
<path d="M7.03125 8.30005H32V15.95L13.6125 16.9875L7.03125 8.30005Z" fill="#EEEEEE"/>
<path d="M32 15.9563H14.6562L6.15625 24.6938L32 23.6063V16V15.9563Z" fill="#D80027"/>
<path d="M6.7625 23.6062L0 31.95L32 32V23.6062H6.7625Z" fill="#0052B4"/>
<path d="M0.05 0L0 31.95L16 15.95L0.05 0Z" fill="#6DA544"/>
<path d="M4.21879 15.9562C4.2212 14.8475 4.60145 13.7728 5.29681 12.9092C5.99218 12.0457 6.96112 11.445 8.04379 11.2062C7.70138 11.1271 7.35144 11.0852 7.00004 11.0812C6.31117 11.0739 5.62857 11.2126 4.99723 11.4883C4.36589 11.764 3.80015 12.1704 3.3373 12.6806C2.87446 13.1909 2.52501 13.7935 2.312 14.4486C2.099 15.1038 2.02726 15.7966 2.10153 16.4815C2.17581 17.1664 2.39439 17.8278 2.74289 18.422C3.09138 19.0163 3.56187 19.5299 4.12334 19.9291C4.68481 20.3283 5.32451 20.604 6.00027 20.7379C6.67603 20.8718 7.37251 20.861 8.04379 20.7062C6.96112 20.4674 5.99218 19.8667 5.29681 19.0032C4.60145 18.1397 4.2212 17.0649 4.21879 15.9562Z" fill="#EEEEEE"/>
<path d="M7.9938 11.7812L8.25005 12.575H9.08755L8.41255 13.075L8.6688 13.8687L7.9938 13.3687L7.31255 13.8687L7.57505 13.0688L6.8938 12.575H7.7313L7.9938 11.7812ZM7.9938 13.8687L8.25005 14.6625H9.08755L8.41255 15.1625L8.6688 15.9563L7.9938 15.4563L7.31255 15.9563L7.57505 15.1562L6.8938 14.6625H7.7313L7.9938 13.8687ZM7.9938 15.9563L8.25005 16.75H9.08755L8.41255 17.25L8.6688 18.0375L7.9938 17.55L7.31255 18.0375L7.57505 17.2437L6.8938 16.75H7.7313L7.9938 15.9563ZM7.9938 18.0375L8.25005 18.8375H9.08755L8.41255 19.3375L8.6688 20.125L7.9938 19.6375L7.31255 20.125L7.57505 19.3312L6.8938 18.8375H7.7313L7.9938 18.0375Z" fill="#EEEEEE"/>
</g>
</g>
<defs>
<clipPath id="clip0_859_6856">
<rect width="32" height="32" fill="white"/>
</clipPath>
</defs>
</svg>
