<svg width="32" height="32" viewBox="0 0 32 32" fill="none" xmlns="http://www.w3.org/2000/svg">
<g clip-path="url(#clip0_859_6889)">
<mask id="mask0_859_6889" style="mask-type:alpha" maskUnits="userSpaceOnUse" x="0" y="0" width="32" height="32">
<path d="M16 32C24.8366 32 32 24.8366 32 16C32 7.16344 24.8366 0 16 0C7.16344 0 0 7.16344 0 16C0 24.8366 7.16344 32 16 32Z" fill="white"/>
</mask>
<g mask="url(#mask0_859_6889)">
<path d="M0 0H32V32H0V0Z" fill="#EEEEEE"/>
<path d="M21.5625 16C21.5625 17.3938 19.075 20.875 16 20.875C12.925 20.875 10.4375 17.3938 10.4375 16C10.4375 14.5247 11.0235 13.1099 12.0667 12.0667C13.1099 11.0235 14.5247 10.4375 16 10.4375C17.4753 10.4375 18.8901 11.0235 19.9333 12.0667C20.9765 13.1099 21.5625 14.5247 21.5625 16Z" fill="#D80027"/>
<path d="M21.5625 16C21.5625 17.4753 20.9765 18.8901 19.9333 19.9333C18.8901 20.9765 17.4753 21.5625 16 21.5625C14.5247 21.5625 13.1099 20.9765 12.0667 19.9333C11.0235 18.8901 10.4375 17.4753 10.4375 16" fill="#0052B4"/>
<path d="M21.9 20.9188L23.3813 19.4438L24.3625 20.425L22.8875 21.9L21.9 20.9188ZM19.4438 23.3813L20.9188 21.9L21.9 22.8875L20.425 24.3625L19.4438 23.3813ZM24.8563 23.8688L26.3313 22.3938L27.3125 23.375L25.8375 24.8563L24.8563 23.8688ZM22.3938 26.3313L23.8688 24.8563L24.8563 25.8375L23.375 27.3125L22.3938 26.3313ZM23.3813 22.3938L24.8563 20.9188L25.8375 21.9L24.3625 23.3813L23.3813 22.3938ZM20.9188 24.8563L22.3938 23.3813L23.3813 24.3625L21.9 25.8375L20.9188 24.8563ZM24.8563 11.0813L20.9188 7.14377L21.9063 6.16252L25.8438 10.1L24.8563 11.0813ZM20.9188 10.1L19.4438 8.61877L20.425 7.63752L21.9063 9.11252L20.9188 10.1ZM23.3813 12.5563L21.9 11.0813L22.8875 10.1L24.3625 11.575L23.3813 12.5563ZM23.8688 7.14377L22.3938 5.66877L23.375 4.68752L24.8563 6.16252L23.8688 7.14377ZM26.3313 9.60627L24.8563 8.12502L25.8375 7.13752L27.3125 8.62502L26.3313 9.60627ZM5.66877 22.3938L9.60627 26.3313L8.61877 27.3125L4.68127 23.375L5.66877 22.3938ZM9.60627 23.375L11.0813 24.8563L10.1 25.8375L8.61877 24.3625L9.60627 23.375ZM7.14377 20.9188L8.61877 22.3938L7.63752 23.3813L6.16252 21.9L7.14377 20.9188ZM8.61877 19.4438L12.5563 23.3813L11.575 24.3625L7.63752 20.425L8.61877 19.4438ZM9.60627 5.66877L5.66877 9.60627L4.68752 8.61877L8.62502 4.68127L9.60627 5.66877ZM11.0813 7.14377L7.14377 11.0813L6.16252 10.0938L10.1 6.15627L11.0813 7.14377ZM12.5563 8.61877L8.61877 12.5563L7.63752 11.575L11.575 7.63752L12.5563 8.61877Z" fill="#333333"/>
</g>
</g>
<defs>
<clipPath id="clip0_859_6889">
<rect width="32" height="32" fill="white"/>
</clipPath>
</defs>
</svg>
