<svg width="32" height="32" viewBox="0 0 32 32" fill="none" xmlns="http://www.w3.org/2000/svg">
<g clip-path="url(#clip0_859_6921)">
<mask id="mask0_859_6921" style="mask-type:alpha" maskUnits="userSpaceOnUse" x="0" y="0" width="32" height="32">
<path d="M16 32C24.8366 32 32 24.8366 32 16C32 7.16344 24.8366 0 16 0C7.16344 0 0 7.16344 0 16C0 24.8366 7.16344 32 16 32Z" fill="white"/>
</mask>
<g mask="url(#mask0_859_6921)">
<path d="M0 0H32V32H0V0Z" fill="#338AF3"/>
<path d="M25.0437 16.175H6.95624C6.95624 17.425 8.04374 18.4375 9.29374 18.4375H9.21874C9.21874 19.6875 10.2312 20.6938 11.4812 20.6938C11.4812 21.9438 12.4875 22.9563 13.7375 22.9563H18.2625C19.5125 22.9563 20.5187 21.9438 20.5187 20.6938C21.7687 20.6938 22.7812 19.6813 22.7812 18.4375H22.7062C23.9562 18.4375 25.0437 17.425 25.0437 16.175Z" fill="#FFDA44"/>
<path d="M22.2625 13.2188C22.2625 14.8797 21.6027 16.4726 20.4282 17.647C19.2538 18.8215 17.6609 19.4813 16 19.4813C14.3391 19.4813 12.7462 18.8215 11.5717 17.647C10.3973 16.4726 9.73749 14.8797 9.73749 13.2188" fill="#338AF3"/>
<path d="M20.7813 13.2187L18.825 14.1375L19.8688 16.0312L17.7438 15.625L17.475 17.7687L16 16.1875L14.525 17.7687L14.25 15.625L12.125 16.0312L13.1625 14.1375L11.2125 13.2187L13.1625 12.3L12.125 10.4062L14.25 10.8125L14.5188 8.6687L15.9938 10.2437L17.4688 8.6687L17.75 10.8125L19.875 10.4062L18.8375 12.3L20.7813 13.2187Z" fill="#FFDA44"/>
</g>
</g>
<defs>
<clipPath id="clip0_859_6921">
<rect width="32" height="32" fill="white"/>
</clipPath>
</defs>
</svg>
