<svg width="32" height="32" viewBox="0 0 32 32" fill="none" xmlns="http://www.w3.org/2000/svg">
<g clip-path="url(#clip0_859_6955)">
<mask id="mask0_859_6955" style="mask-type:alpha" maskUnits="userSpaceOnUse" x="0" y="0" width="32" height="32">
<path d="M16 32C24.8366 32 32 24.8366 32 16C32 7.16344 24.8366 0 16 0C7.16344 0 0 7.16344 0 16C0 24.8366 7.16344 32 16 32Z" fill="white"/>
</mask>
<g mask="url(#mask0_859_6955)">
<path d="M0 16L15.95 13.525L32 16V32H0V16Z" fill="#D80027"/>
<path d="M0 0H32V16H0V0Z" fill="#0052B4"/>
<path d="M11.825 11.125C11.8231 10.7233 11.7054 10.3307 11.486 9.9942C11.2666 9.65775 10.9547 9.39176 10.5879 9.22813C10.221 9.0645 9.81476 9.01019 9.41781 9.0717C9.02086 9.13322 8.6501 9.30796 8.34999 9.57495V8.34995H9.04374V6.9562H8.34999V6.26245H6.95624V6.9562H6.26249V8.34995H6.95624V9.57495C6.54152 9.21968 6.0041 9.04106 5.45923 9.07741C4.91436 9.11375 4.40542 9.36215 4.04156 9.76935C3.6777 10.1765 3.48789 10.7101 3.51283 11.2556C3.53777 11.8011 3.77549 12.3152 4.17499 12.6875V13.9125H11.125V12.6875C11.55 12.3062 11.8187 11.75 11.8187 11.125H11.825Z" fill="#FFDA44"/>
</g>
</g>
<defs>
<clipPath id="clip0_859_6955">
<rect width="32" height="32" fill="white"/>
</clipPath>
</defs>
</svg>
