<svg width="32" height="32" viewBox="0 0 32 32" fill="none" xmlns="http://www.w3.org/2000/svg">
<g clip-path="url(#clip0_859_6963)">
<mask id="mask0_859_6963" style="mask-type:alpha" maskUnits="userSpaceOnUse" x="0" y="0" width="32" height="32">
<path d="M16 32C24.8366 32 32 24.8366 32 16C32 7.16344 24.8366 0 16 0C7.16344 0 0 7.16344 0 16C0 24.8366 7.16344 32 16 32Z" fill="white"/>
</mask>
<g mask="url(#mask0_859_6963)">
<path d="M5.08749 1.69995H13.5375V30.2312H5.08749V1.69995Z" fill="#FF9811"/>
<path d="M0 2.78125L6.2625 1.40625V30.3438L0 29.2188V2.78125Z" fill="#6DA544"/>
<path d="M13.6625 1.65625L32 2.78125V8.60625L30.8375 15.2437L32 21.3312V29.2188L13.6625 30.3438V1.65625Z" fill="#A2001D"/>
<path d="M0 0V2.78125H12.5188V29.2188H0V32H32V29.2188H14.6062V2.78125H32V0H0Z" fill="#FFDA44"/>
<path d="M18.7812 5.91248C17.6312 5.91248 16.6937 6.84998 16.6937 7.99998V17.0375C16.6917 17.3329 16.7532 17.6252 16.874 17.8948C16.9947 18.1644 17.172 18.4048 17.3937 18.6V21.9125H18.7812V20.175H25.0437V22.9562H23.65V24.35H26.4375V21.5625L27.7125 20.175H30.725C31.0727 20.6379 31.5054 21.0303 32 21.3312V8.60623C31.4815 8.78306 31.0035 9.06139 30.5937 9.42498C29.8943 10.0705 29.4326 10.9327 29.283 11.8726C29.1333 12.8125 29.3044 13.7754 29.7687 14.6062C28.4375 14.6 27.2062 14.6187 26.4375 14.6062V10.4375C26.4375 9.73748 25.3937 9.04373 25.3937 9.04373C25.3937 9.04373 24.35 9.73748 24.35 10.4375H20.175V14.6062H22.2625V16.6937C22.2625 17.1375 22.35 17.575 22.5187 17.9875L21.5625 18.7875H18.7812V5.91248Z" fill="#FFDA44"/>
</g>
</g>
<defs>
<clipPath id="clip0_859_6963">
<rect width="32" height="32" fill="white"/>
</clipPath>
</defs>
</svg>
