<svg width="32" height="32" viewBox="0 0 32 32" fill="none" xmlns="http://www.w3.org/2000/svg">
<g clip-path="url(#clip0_859_6982)">
<mask id="mask0_859_6982" style="mask-type:alpha" maskUnits="userSpaceOnUse" x="0" y="0" width="32" height="32">
<path d="M16 32C24.8366 32 32 24.8366 32 16C32 7.16344 24.8366 0 16 0C7.16344 0 0 7.16344 0 16C0 24.8366 7.16344 32 16 32Z" fill="white"/>
</mask>
<g mask="url(#mask0_859_6982)">
<path d="M0 9.0437L15.9563 6.76245L32 9.0437V22.9562L15.6562 25.4375L0 22.9562V9.0437Z" fill="#EEEEEE"/>
<path d="M0 0H32V9.04375H0V0Z" fill="#0052B4"/>
<path d="M0 22.9563H32V32H0V22.9563Z" fill="#6DA544"/>
<path d="M17.0438 15.65V11.825H14.9563V15.65L12.4375 18.175C12.8093 18.7867 13.3324 19.2925 13.9563 19.6434C14.5803 19.9944 15.2841 20.1787 16 20.1787C16.7159 20.1787 17.4197 19.9944 18.0437 19.6434C18.6676 19.2925 19.1907 18.7867 19.5625 18.175L17.0438 15.65Z" fill="#333333"/>
</g>
</g>
<defs>
<clipPath id="clip0_859_6982">
<rect width="32" height="32" fill="white"/>
</clipPath>
</defs>
</svg>
