<svg width="32" height="32" viewBox="0 0 32 32" fill="none" xmlns="http://www.w3.org/2000/svg">
<g clip-path="url(#clip0_859_7014)">
<mask id="mask0_859_7014" style="mask-type:alpha" maskUnits="userSpaceOnUse" x="0" y="0" width="32" height="32">
<path d="M16 32C24.8366 32 32 24.8366 32 16C32 7.16344 24.8366 0 16 0C7.16344 0 0 7.16344 0 16C0 24.8366 7.16344 32 16 32Z" fill="white"/>
</mask>
<g mask="url(#mask0_859_7014)">
<path d="M0 9.0438L16.0625 7.6438L32 9.0438V22.9563L16.0688 24.8938L0 22.9563V9.0438Z" fill="#333333"/>
<path d="M0 0H32V9.04375H0V0Z" fill="#D80027"/>
<path d="M0 22.9563H32V32H0V22.9563Z" fill="#496E2D"/>
<path d="M19.7251 13.0813L21.0376 14.8938L23.1626 14.2063L21.8501 16.0188L23.1626 17.8188L21.0376 17.1313L19.7251 18.9438V16.6938L17.6001 16.0063L19.7251 15.3188V13.0813Z" fill="#EEEEEE"/>
<path d="M16.1438 20.5251C15.4571 20.5231 14.7799 20.3647 14.1636 20.0619C13.5473 19.7591 13.0081 19.3198 12.587 18.7773C12.1659 18.2349 11.8739 17.6036 11.7333 16.9315C11.5928 16.2593 11.6072 15.564 11.7756 14.8982C11.944 14.2325 12.2619 13.6139 12.7052 13.0894C13.1484 12.565 13.7054 12.1484 14.3337 11.8714C14.9621 11.5945 15.6453 11.4643 16.3315 11.491C17.0177 11.5176 17.6888 11.7002 18.2938 12.0251C17.5109 11.2599 16.5196 10.7428 15.4441 10.5384C14.3686 10.3341 13.2568 10.4517 12.2478 10.8764C11.2388 11.3011 10.3776 12.0141 9.77199 12.9261C9.16641 13.8381 8.84338 14.9084 8.84338 16.0032C8.84338 17.0979 9.16641 18.1683 9.77199 19.0803C10.3776 19.9922 11.2388 20.7052 12.2478 21.13C13.2568 21.5547 14.3686 21.6723 15.4441 21.4679C16.5196 21.2636 17.5109 20.7465 18.2938 19.9813C17.6337 20.3391 16.8946 20.526 16.1438 20.5251Z" fill="#EEEEEE"/>
</g>
</g>
<defs>
<clipPath id="clip0_859_7014">
<rect width="32" height="32" fill="white"/>
</clipPath>
</defs>
</svg>
