<svg width="32" height="32" viewBox="0 0 32 32" fill="none" xmlns="http://www.w3.org/2000/svg">
<g clip-path="url(#clip0_859_7039)">
<mask id="mask0_859_7039" style="mask-type:alpha" maskUnits="userSpaceOnUse" x="0" y="0" width="32" height="32">
<path d="M16 32C24.8366 32 32 24.8366 32 16C32 7.16344 24.8366 0 16 0C7.16344 0 0 7.16344 0 16C0 24.8366 7.16344 32 16 32Z" fill="white"/>
</mask>
<g mask="url(#mask0_859_7039)">
<path d="M0 0H9.04375L11.2937 15.9125L9.04375 32H0V0Z" fill="#0052B4"/>
<path d="M22.9562 0H32V32H22.9562L21.1 15.9187L22.9562 0Z" fill="#D80027"/>
<path d="M9.04376 0H22.9563V32H9.04376V0Z" fill="#FFDA44"/>
<path d="M21.5688 12.5875H17.75C17.75 12.1267 17.567 11.6847 17.2411 11.3589C16.9153 11.033 16.4733 10.85 16.0125 10.85C15.5517 10.85 15.1098 11.033 14.7839 11.3589C14.4581 11.6847 14.275 12.1267 14.275 12.5875H10.45C10.4631 13.0473 10.6553 13.4838 10.9858 13.8037C11.3163 14.1237 11.7588 14.3018 12.2188 14.3H12.1563C12.1563 14.5254 12.2008 14.7486 12.2872 14.9568C12.3737 15.1649 12.5004 15.354 12.66 15.5131C12.8197 15.6722 13.0093 15.7982 13.2177 15.8839C13.4262 15.9696 13.6496 16.0133 13.875 16.0125C13.875 16.85 14.475 17.5437 15.2688 17.7L13.9188 20.7437C14.5839 21.0132 15.2949 21.1512 16.0125 21.15C16.7301 21.1512 17.4412 21.0132 18.1063 20.7437L16.7563 17.6875C17.1479 17.6133 17.5015 17.4047 17.7559 17.0978C18.0103 16.7909 18.1497 16.4049 18.15 16.0062C18.6042 16.0062 19.0398 15.8258 19.3609 15.5046C19.6821 15.1835 19.8625 14.7479 19.8625 14.2937H19.8063C20.2663 14.2955 20.7087 14.1175 21.0392 13.7975C21.3697 13.4775 21.562 13.041 21.575 12.5812L21.5688 12.5875Z" fill="#FF9811"/>
<path d="M16.0063 14.9563L13.75 16V18.0875L16.0125 19.4813L18.275 18.0875V16L16.0063 14.9563Z" fill="#0052B4"/>
<path d="M13.75 13.9125H18.2687V16H13.75V13.9125Z" fill="#D80027"/>
</g>
</g>
<defs>
<clipPath id="clip0_859_7039">
<rect width="32" height="32" fill="white"/>
</clipPath>
</defs>
</svg>
