<svg width="32" height="32" viewBox="0 0 32 32" fill="none" xmlns="http://www.w3.org/2000/svg">
<g clip-path="url(#clip0_859_7050)">
<mask id="mask0_859_7050" style="mask-type:alpha" maskUnits="userSpaceOnUse" x="0" y="0" width="32" height="32">
<path d="M16 32C24.8366 32 32 24.8366 32 16C32 7.16344 24.8366 0 16 0C7.16344 0 0 7.16344 0 16C0 24.8366 7.16344 32 16 32Z" fill="white"/>
</mask>
<g mask="url(#mask0_859_7050)">
<path d="M0 0H32V2.78125L29.275 15.8875L32 29.2188V32H0V29.2188L2.9125 15.9688L0 2.78125V0Z" fill="#FFDA44"/>
<path d="M0 2.78125H32V29.2188H0V2.78125Z" fill="#A2001D"/>
<path d="M12.5187 11.825H19.4812V9.04377L18.0875 9.73752L16 7.65002L13.9125 9.73752L12.5187 9.04377V11.825ZM22.2625 16H18.7812C18.9235 15.7573 18.999 15.4813 19 15.2C18.9981 14.8434 18.8776 14.4975 18.6574 14.217C18.4373 13.9364 18.13 13.7371 17.7841 13.6504C17.4382 13.5637 17.0732 13.5947 16.7468 13.7383C16.4204 13.882 16.151 14.1302 15.9812 14.4438C15.8791 14.2591 15.7415 14.0964 15.5764 13.9649C15.4113 13.8333 15.222 13.7356 15.0191 13.6773C14.8163 13.619 14.604 13.6012 14.3942 13.6249C14.1845 13.6487 13.9815 13.7135 13.7969 13.8156C13.6122 13.9178 13.4495 14.0554 13.3179 14.2205C13.1864 14.3855 13.0887 14.5749 13.0304 14.7777C12.9721 14.9806 12.9543 15.1929 12.978 15.4026C13.0017 15.6124 13.0666 15.8154 13.1687 16H9.73749C9.73749 17.0625 10.6687 17.925 11.7312 17.925H11.6687C11.6687 18.8 12.2437 19.5375 13.0437 19.775L11.4812 21.3375L12.9562 22.8125L15.05 20.7188C15.1312 20.75 15.2125 20.775 15.3 20.7875L14.0375 23.6438C14.6604 23.8987 15.3269 24.0303 16 24.0313C16.6731 24.0303 17.3396 23.8987 17.9625 23.6438L16.7 20.7875C16.7851 20.7715 16.8687 20.7485 16.95 20.7188L19.0437 22.8125L20.5187 21.3375L18.9562 19.775C19.3544 19.6563 19.7034 19.412 19.9512 19.0786C20.1991 18.7451 20.3324 18.3405 20.3312 17.925H20.2687C21.3312 17.925 22.2625 17.0625 22.2625 16Z" fill="#FFDA44"/>
<path d="M16 17.0437L13.7375 18.0875V20.1749L16 21.5625L18.2625 20.1749V18.0875L16 17.0437Z" fill="#6DA544"/>
<path d="M13.7375 16H18.2625V18.7812H13.7375V16Z" fill="#0052B4"/>
</g>
</g>
<defs>
<clipPath id="clip0_859_7050">
<rect width="32" height="32" fill="white"/>
</clipPath>
</defs>
</svg>
