<svg width="32" height="32" viewBox="0 0 32 32" fill="none" xmlns="http://www.w3.org/2000/svg">
<g clip-path="url(#clip0_859_7078)">
<mask id="mask0_859_7078" style="mask-type:alpha" maskUnits="userSpaceOnUse" x="0" y="0" width="32" height="32">
<path d="M16 32C24.8366 32 32 24.8366 32 16C32 7.16344 24.8366 0 16 0C7.16344 0 0 7.16344 0 16C0 24.8366 7.16344 32 16 32Z" fill="white"/>
</mask>
<g mask="url(#mask0_859_7078)">
<path d="M0 0H24.85L32 7.1375V32H0V0Z" fill="#0052B4"/>
<path d="M32 0H24.85L0 32L30.8375 3.35625L32 0Z" fill="#EEEEEE"/>
<path d="M0 32L32 7.1375V0L0 32Z" fill="#FF9811"/>
<path d="M13.8875 9.3813L11.9375 10.3L12.9812 12.1938L10.8562 11.7875L10.5875 13.9313L9.11249 12.3563L7.63124 13.9313L7.36249 11.7875L5.24374 12.1938L6.28124 10.3L4.33124 9.3813L6.28124 8.46255L5.24999 6.5688L7.37499 6.97505L7.63749 4.8313L9.11874 6.41255L10.5937 4.8313L10.8625 6.97505L12.9875 6.5688L11.9437 8.46255L13.8875 9.3813Z" fill="#EEEEEE"/>
</g>
</g>
<defs>
<clipPath id="clip0_859_7078">
<rect width="32" height="32" fill="white"/>
</clipPath>
</defs>
</svg>
