<svg width="32" height="32" viewBox="0 0 32 32" fill="none" xmlns="http://www.w3.org/2000/svg">
<g clip-path="url(#clip0_859_7125)">
<mask id="mask0_859_7125" style="mask-type:alpha" maskUnits="userSpaceOnUse" x="0" y="0" width="32" height="32">
<path d="M16 32C24.8366 32 32 24.8366 32 16C32 7.16344 24.8366 0 16 0C7.16344 0 0 7.16344 0 16C0 24.8366 7.16344 32 16 32Z" fill="white"/>
</mask>
<g mask="url(#mask0_859_7125)">
<path d="M0 0H32V32H0V0Z" fill="#496E2D"/>
<path d="M18.7813 15.3312C18.3875 15.3312 18.0188 15.4125 17.6688 15.5375C17.8563 15.1125 17.9875 14.6437 17.9875 14.1375C17.9875 12.15 16 10.6625 16 10.6625C16 10.6625 14.0125 12.15 14.0125 14.1375C14.0125 14.6375 14.1375 15.1125 14.325 15.5375C13.9813 15.4125 13.6125 15.3312 13.2188 15.3312C11.2313 15.3312 9.73755 17.3187 9.73755 17.3187C9.73755 17.3187 11.2313 19.3062 13.2188 19.3062C14.375 19.3125 15.375 18.625 16 18.0625C16.625 18.6312 17.6188 19.3125 18.7813 19.3125C20.7688 19.3125 22.2625 17.325 22.2625 17.325C22.2625 17.325 20.7688 15.3375 18.7813 15.3375V15.3312Z" fill="#EEEEEE"/>
<path d="M16 6.26245L16.4125 7.52495H17.7375L16.6625 8.3062L17.075 9.5687L16 8.78745L14.925 9.5687L15.3375 8.3062L14.2625 7.52495H15.5875L16 6.26245ZM10.95 8.4687L11.7375 9.1812L12.6562 8.64995L12.225 9.6187L13.0188 10.3312L11.9563 10.2187L11.525 11.1937L11.3062 10.15L10.2437 10.0437L11.1687 9.51245L10.95 8.4687ZM7.25 12.1687L8.2875 12.3875L8.81875 11.4687L8.93125 12.5312L9.96875 12.75L9 13.1812L9.1125 14.2375L8.4 13.45L7.43125 13.8812L7.9625 12.9562L7.25 12.1687ZM21.05 8.4687L20.2625 9.18745L19.3438 8.6562L19.775 9.62495L18.9813 10.3375L20.0438 10.225L20.475 11.2L20.6938 10.1562L21.7563 10.05L20.8312 9.5187L21.05 8.4687ZM24.75 12.1687L23.7125 12.3875L23.1812 11.4687L23.0688 12.5312L22.0312 12.75L23 13.1812L22.8875 14.2375L23.6 13.45L24.5688 13.8812L24.0375 12.9562L24.75 12.1687Z" fill="#FFDA44"/>
<path d="M16 24.875C17.5813 24.875 19.0313 24.3437 20.2 23.4625H11.8C12.9688 24.3437 14.425 24.875 16 24.875ZM9.625 20.7C9.84349 21.2016 10.1204 21.6757 10.45 22.1124H21.55C21.8796 21.6757 22.1565 21.2016 22.375 20.7H9.625Z" fill="#EEEEEE"/>
</g>
</g>
<defs>
<clipPath id="clip0_859_7125">
<rect width="32" height="32" fill="white"/>
</clipPath>
</defs>
</svg>
