<svg width="32" height="32" viewBox="0 0 32 32" fill="none" xmlns="http://www.w3.org/2000/svg">
<g clip-path="url(#clip0_859_7134)">
<mask id="mask0_859_7134" style="mask-type:alpha" maskUnits="userSpaceOnUse" x="0" y="0" width="32" height="32">
<path d="M16 32C24.8366 32 32 24.8366 32 16C32 7.16344 24.8366 0 16 0C7.16344 0 0 7.16344 0 16C0 24.8366 7.16344 32 16 32Z" fill="white"/>
</mask>
<g mask="url(#mask0_859_7134)">
<path d="M0 0H32V32H0V0Z" fill="#338AF3"/>
<path d="M15.4999 26.075C15.2931 26.0663 15.0935 25.9963 14.9266 25.8739C14.7597 25.7515 14.6329 25.5822 14.5624 25.3875C14.4378 25.5486 14.2687 25.6697 14.076 25.7359C13.8834 25.802 13.6756 25.8104 13.4783 25.7599C13.2809 25.7094 13.1027 25.6022 12.9655 25.4517C12.8283 25.3011 12.7382 25.1137 12.7062 24.9125C12.5514 25.0463 12.3607 25.1317 12.1578 25.158C11.9549 25.1844 11.7487 25.1505 11.5649 25.0606C11.3811 24.9707 11.2278 24.8287 11.124 24.6524C11.0202 24.476 10.9706 24.2731 10.9812 24.0688C10.802 24.1693 10.5972 24.2147 10.3924 24.1994C10.1875 24.184 9.99174 24.1086 9.82959 23.9824C9.66743 23.8563 9.5461 23.6851 9.48079 23.4904C9.41548 23.2956 9.4091 23.0859 9.46244 22.8875C9.26684 22.9508 9.05692 22.9549 8.859 22.8993C8.66109 22.8437 8.484 22.7309 8.34995 22.575C8.21631 22.4196 8.13142 22.2282 8.10585 22.0248C8.08029 21.8214 8.11519 21.615 8.20619 21.4313C8.00291 21.453 7.79773 21.4145 7.61612 21.3206C7.43451 21.2267 7.28447 21.0816 7.18462 20.9032C7.08477 20.7248 7.03951 20.521 7.05445 20.3171C7.0694 20.1132 7.1439 19.9182 7.26869 19.7563C7.06387 19.7371 6.86929 19.6578 6.7094 19.5283C6.5495 19.3989 6.43141 19.2251 6.36998 19.0288C6.30854 18.8324 6.30649 18.6223 6.36409 18.4248C6.42168 18.2274 6.53635 18.0513 6.69369 17.9188C6.49951 17.8572 6.32757 17.7402 6.19907 17.5822C6.07056 17.4241 5.99112 17.2319 5.97052 17.0293C5.94992 16.8266 5.98907 16.6224 6.08315 16.4417C6.17722 16.261 6.32211 16.1118 6.49994 16.0125C6.32002 15.9145 6.17295 15.7656 6.07705 15.5845C5.98115 15.4034 5.94068 15.1981 5.96067 14.9942C5.98066 14.7903 6.06024 14.5967 6.18948 14.4377C6.31872 14.2787 6.4919 14.1613 6.68744 14.1C6.5301 13.9675 6.41543 13.7914 6.35784 13.5939C6.30024 13.3964 6.30229 13.1863 6.36373 12.99C6.42517 12.7937 6.54325 12.6199 6.70315 12.4904C6.86304 12.361 7.05762 12.2817 7.26244 12.2625C7.13557 12.1007 7.05933 11.905 7.04328 11.7C7.02724 11.495 7.0721 11.2898 7.17225 11.1102C7.2724 10.9306 7.42336 10.7846 7.6062 10.6905C7.78903 10.5964 7.99559 10.5584 8.19994 10.5813C8.1081 10.3982 8.07216 10.1921 8.09661 9.9887C8.12106 9.78532 8.20482 9.59363 8.33744 9.43751C8.61869 9.11251 9.0562 9.00001 9.4437 9.12501C9.39146 8.92604 9.39919 8.71606 9.4659 8.52147C9.53262 8.32687 9.65536 8.15633 9.8187 8.03126C9.97997 7.90658 10.1742 7.83185 10.3775 7.81631C10.5807 7.80076 10.7841 7.84506 10.9624 7.94376C10.9505 7.7389 10.9992 7.53506 11.1025 7.35773C11.2058 7.1804 11.359 7.03745 11.5431 6.94674C11.7272 6.85604 11.9339 6.82161 12.1374 6.84776C12.341 6.87391 12.5323 6.95947 12.6874 7.09376C12.7184 6.8921 12.8079 6.70395 12.9447 6.55257C13.0815 6.40119 13.2596 6.29322 13.4571 6.24202C13.6546 6.19082 13.8628 6.19862 14.0559 6.26447C14.249 6.33031 14.4186 6.45132 14.5437 6.61251C14.6139 6.42006 14.7391 6.25251 14.9038 6.13074C15.0685 6.00896 15.2654 5.93835 15.47 5.92768C15.6745 5.91702 15.8777 5.96679 16.0542 6.07078C16.2307 6.17478 16.3727 6.3284 16.4624 6.51251C16.5698 6.33799 16.7262 6.19893 16.912 6.11267C17.0979 6.02641 17.305 5.99675 17.5076 6.02741C17.7102 6.05806 17.8993 6.14767 18.0513 6.28506C18.2033 6.42245 18.3115 6.60154 18.3624 6.80001C18.5025 6.64973 18.6837 6.54411 18.8835 6.49636C19.0833 6.44862 19.2927 6.46088 19.4855 6.53161C19.6783 6.60234 19.846 6.72839 19.9676 6.89398C20.0891 7.05957 20.159 7.25734 20.1687 7.46251C20.3361 7.34503 20.5344 7.27932 20.7388 7.27355C20.9433 7.26779 21.1449 7.32221 21.3187 7.43008C21.4925 7.53794 21.6307 7.69448 21.7163 7.88025C21.8018 8.06603 21.8309 8.27284 21.7999 8.47501C22.1749 8.31251 22.6249 8.38126 22.9374 8.67501C23.086 8.81657 23.1896 8.99879 23.2352 9.19888C23.2807 9.39898 23.2663 9.60807 23.1937 9.80001C23.3936 9.75732 23.6017 9.7743 23.7921 9.84882C23.9825 9.92335 24.1468 10.0522 24.2646 10.2192C24.3824 10.3863 24.4486 10.5843 24.4549 10.7887C24.4612 10.9931 24.4073 11.1948 24.2999 11.3688C24.5046 11.368 24.7049 11.4275 24.8761 11.5397C25.0472 11.652 25.1816 11.812 25.2624 12C25.3448 12.1883 25.3697 12.3966 25.3341 12.5989C25.2985 12.8013 25.204 12.9886 25.0624 13.1375C25.2615 13.1791 25.4441 13.278 25.5878 13.422C25.7314 13.5659 25.8299 13.7488 25.8711 13.9479C25.9122 14.1471 25.8943 14.354 25.8195 14.5431C25.7447 14.7322 25.6162 14.8954 25.4499 15.0125C25.8249 15.175 26.0874 15.5438 26.0874 15.975V16C26.0874 16.4313 25.8249 16.8 25.4499 16.9625C25.6162 17.0792 25.7448 17.2419 25.82 17.4306C25.8952 17.6193 25.9136 17.8258 25.8732 18.0248C25.8327 18.2239 25.735 18.4068 25.5921 18.5511C25.4492 18.6955 25.2673 18.795 25.0687 18.8375C25.2117 18.9856 25.3077 19.1727 25.3447 19.3752C25.3817 19.5778 25.3579 19.7867 25.2764 19.9758C25.1949 20.1648 25.0593 20.3256 24.8866 20.4378C24.714 20.5499 24.5121 20.6086 24.3062 20.6063C24.4165 20.78 24.4729 20.9824 24.4685 21.1882C24.464 21.3939 24.3989 21.5937 24.2812 21.7625C24.1643 21.9303 24.0006 22.0599 23.8106 22.1355C23.6206 22.2111 23.4126 22.2291 23.2124 22.1875C23.2843 22.38 23.2977 22.5895 23.251 22.7896C23.2043 22.9898 23.0996 23.1717 22.9499 23.3125C22.6374 23.6063 22.1874 23.6688 21.8187 23.5125C21.85 23.7142 21.8215 23.9206 21.7368 24.1063C21.652 24.292 21.5147 24.4487 21.3417 24.5571C21.1688 24.6655 20.9679 24.7208 20.7638 24.7162C20.5598 24.7117 20.3616 24.6473 20.1937 24.5313C20.184 24.7356 20.1145 24.9326 19.9937 25.0978C19.873 25.263 19.7064 25.389 19.5146 25.4603C19.3228 25.5315 19.1143 25.5448 18.9151 25.4986C18.7158 25.4523 18.5345 25.3485 18.3937 25.2C18.3439 25.4002 18.2359 25.5811 18.0833 25.7199C17.9307 25.8587 17.7405 25.9492 17.5365 25.9799C17.3326 26.0107 17.1241 25.9803 16.9374 25.8927C16.7506 25.8051 16.5941 25.6641 16.4874 25.4875C16.398 25.6723 16.2559 25.8267 16.0792 25.9312C15.9024 26.0357 15.6988 26.0857 15.4937 26.075H15.4999Z" fill="#EEEEEE"/>
<path d="M16 22.9562C19.8418 22.9562 22.9562 19.8418 22.9562 16C22.9562 12.1581 19.8418 9.0437 16 9.0437C12.1581 9.0437 9.0437 12.1581 9.0437 16C9.0437 19.8418 12.1581 22.9562 16 22.9562Z" fill="#338AF3"/>
<path d="M17.525 13.6375C17.8625 13.3875 18.0875 12.9813 18.0875 12.5188V11.8313C18.0875 11.0563 17.4625 10.4375 16.6938 10.4375H15.3125C14.5438 10.4375 13.9187 11.0625 13.9187 11.825V12.5188C13.9187 12.9813 14.1437 13.3875 14.4812 13.6438L13.2188 26.4375C13.2188 26.4375 13.9125 27.125 16 27.125C18.0875 27.125 18.7812 26.4375 18.7812 26.4375L17.525 13.6375Z" fill="#ACABB1"/>
<path d="M16 10.4375L17.2062 14.1562H21.125L17.9625 16.4562L19.1687 20.175L16 17.875L12.8375 20.175L14.0437 16.4562L10.8812 14.1562H14.7937L16 10.4375Z" fill="#EEEEEE"/>
</g>
</g>
<defs>
<clipPath id="clip0_859_7134">
<rect width="32" height="32" fill="white"/>
</clipPath>
</defs>
</svg>
