<svg width="32" height="32" viewBox="0 0 32 32" fill="none" xmlns="http://www.w3.org/2000/svg">
<g clip-path="url(#clip0_859_7173)">
<mask id="mask0_859_7173" style="mask-type:alpha" maskUnits="userSpaceOnUse" x="0" y="0" width="32" height="32">
<path d="M16 32C24.8366 32 32 24.8366 32 16C32 7.16344 24.8366 0 16 0C7.16344 0 0 7.16344 0 16C0 24.8366 7.16344 32 16 32Z" fill="white"/>
</mask>
<g mask="url(#mask0_859_7173)">
<path d="M0 0H16L19.25 16.2L16 32H0V0Z" fill="#EEEEEE"/>
<path d="M16 0H32V32H16V0Z" fill="#D80027"/>
<path d="M11.125 6.26255V4.17505H9.0438V6.26255H6.9563V8.35005H9.0438V10.4375H11.1313V8.35005H13.2188V6.26255H11.125Z" fill="#ACABB1"/>
</g>
</g>
<defs>
<clipPath id="clip0_859_7173">
<rect width="32" height="32" fill="white"/>
</clipPath>
</defs>
</svg>
