<svg width="32" height="32" viewBox="0 0 32 32" fill="none" xmlns="http://www.w3.org/2000/svg">
<g clip-path="url(#clip0_859_7190)">
<mask id="mask0_859_7190" style="mask-type:alpha" maskUnits="userSpaceOnUse" x="0" y="0" width="32" height="32">
<path d="M16 32C24.8366 32 32 24.8366 32 16C32 7.16344 24.8366 0 16 0C7.16344 0 0 7.16344 0 16C0 24.8366 7.16344 32 16 32Z" fill="white"/>
</mask>
<g mask="url(#mask0_859_7190)">
<path d="M0 0H32V32H0V0Z" fill="#D80027"/>
<path d="M5.5625 8.34998H26.4375V23.65H5.5625V8.34998Z" fill="#6DA544"/>
<path d="M18.575 20.5187C17.8883 20.5168 17.2111 20.3584 16.5948 20.0556C15.9785 19.7527 15.4393 19.3134 15.0182 18.771C14.5971 18.2285 14.3051 17.5973 14.1646 16.9251C14.024 16.253 14.0384 15.5576 14.2068 14.8919C14.3752 14.2262 14.6931 13.6076 15.1364 13.0831C15.5796 12.5586 16.1366 12.1421 16.765 11.8651C17.3933 11.5881 18.0765 11.458 18.7627 11.4846C19.4489 11.5112 20.12 11.6939 20.725 12.0187C19.9421 11.2535 18.9508 10.7364 17.8753 10.5321C16.7998 10.3278 15.688 10.4453 14.679 10.87C13.67 11.2948 12.8088 12.0078 12.2032 12.9197C11.5976 13.8317 11.2746 14.9021 11.2746 15.9968C11.2746 17.0916 11.5976 18.1619 12.2032 19.0739C12.8088 19.9859 13.67 20.6989 14.679 21.1236C15.688 21.5483 16.7998 21.6659 17.8753 21.4616C18.9508 21.2572 19.9421 20.7401 20.725 19.975C20.0649 20.3327 19.3258 20.5197 18.575 20.5187Z" fill="#EEEEEE"/>
</g>
</g>
<defs>
<clipPath id="clip0_859_7190">
<rect width="32" height="32" fill="white"/>
</clipPath>
</defs>
</svg>
