<svg width="32" height="32" viewBox="0 0 32 32" fill="none" xmlns="http://www.w3.org/2000/svg">
<g clip-path="url(#clip0_859_7228)">
<mask id="mask0_859_7228" style="mask-type:alpha" maskUnits="userSpaceOnUse" x="0" y="0" width="32" height="32">
<path d="M16 32C24.8366 32 32 24.8366 32 16C32 7.16344 24.8366 0 16 0C7.16344 0 0 7.16344 0 16C0 24.8366 7.16344 32 16 32Z" fill="white"/>
</mask>
<g mask="url(#mask0_859_7228)">
<path d="M0 16L16 0H32V3.48125L30.7812 5.54375L32 7.65V11.825L30.6187 14.1812L32 16V20.175L30.7375 22.5812L32 24.35V28.5187L16.0938 30.2812L0 28.5187V24.35L1.625 22.1562L0 20.175V16Z" fill="#EEEEEE"/>
<path d="M16 16H32V11.825H13.9312L16 16ZM13.9312 7.64995H32V3.4812H13.9312V7.64995ZM32 32V28.5187H0V32H32ZM0 24.35H32V20.1749H0V24.35Z" fill="#D80027"/>
<path d="M0 0H16V16H0V0Z" fill="#0052B4"/>
<path d="M10.6375 13.6938C10.0355 13.6935 9.44152 13.5559 8.90075 13.2914C8.35998 13.0268 7.88671 12.6424 7.51699 12.1673C7.14726 11.6922 6.89084 11.139 6.76724 10.5498C6.64364 9.96065 6.65612 9.35103 6.80375 8.76741C6.95137 8.18378 7.23023 7.64154 7.6191 7.18199C8.00797 6.72243 8.49658 6.35768 9.04773 6.11552C9.59888 5.87335 10.198 5.76015 10.7995 5.78455C11.401 5.80895 11.9891 5.97029 12.5188 6.2563C11.8332 5.58422 10.9644 5.12953 10.0215 4.94926C9.07848 4.76899 8.10327 4.87117 7.21813 5.24297C6.33299 5.61477 5.57734 6.23965 5.04594 7.03923C4.51455 7.83881 4.23108 8.7775 4.23108 9.73755C4.23108 10.6976 4.51455 11.6363 5.04594 12.4359C5.57734 13.2355 6.33299 13.8603 7.21813 14.2321C8.10327 14.6039 9.07848 14.7061 10.0215 14.5258C10.9644 14.3456 11.8332 13.8909 12.5188 13.2188C11.943 13.5306 11.2986 13.6938 10.6438 13.6938H10.6375Z" fill="#FFDA44"/>
<path d="M11.75 6.9563L12.4563 8.42505L14.0438 8.0563L13.3313 9.52505L14.6063 10.5375L13.0188 10.8938L13.025 12.5188L11.7563 11.5063L10.4813 12.5188L10.4875 10.8938L8.90002 10.5375L10.175 9.52505L9.46252 8.0563L11.05 8.4313L11.75 6.9563Z" fill="#FFDA44"/>
</g>
</g>
<defs>
<clipPath id="clip0_859_7228">
<rect width="32" height="32" fill="white"/>
</clipPath>
</defs>
</svg>
