<svg width="32" height="32" viewBox="0 0 32 32" fill="none" xmlns="http://www.w3.org/2000/svg">
<g clip-path="url(#clip0_859_7239)">
<mask id="mask0_859_7239" style="mask-type:alpha" maskUnits="userSpaceOnUse" x="0" y="0" width="32" height="32">
<path d="M16 32C24.8366 32 32 24.8366 32 16C32 7.16344 24.8366 0 16 0C7.16344 0 0 7.16344 0 16C0 24.8366 7.16344 32 16 32Z" fill="white"/>
</mask>
<g mask="url(#mask0_859_7239)">
<path d="M6.1875 8.55005L32 9.80005V11.7688L29.7563 15.9L32.0187 20.175L32 22.2L6.1875 23.575V8.55005Z" fill="#EEEEEE"/>
<path d="M32 9.8V0H0L7.625 9.8H32Z" fill="#496E2D"/>
<path d="M10.4375 11.7688V20.175H32.0187L32 11.7688H10.4375Z" fill="#333333"/>
<path d="M32 22.2V32H0L7.625 22.2H32Z" fill="#FFDA44"/>
<path d="M0 0V32L16 16L0 0Z" fill="#A2001D"/>
<path d="M6.47502 11.825L7.51252 15.0125H10.8625L8.15002 16.9875L9.18752 20.175L6.47502 18.2062L3.76252 20.175L4.80002 16.9875L2.08752 15.0125H5.43752L6.47502 11.825Z" fill="#FFDA44"/>
<path d="M3.44373 16H9.50623V18.7812H3.44373V16Z" fill="#EEEEEE"/>
<path d="M10.6563 12.8125L9.67501 11.825L6.47501 15.025L3.28126 11.825L2.29376 12.8125L5.50001 16L2.30001 19.2062L3.28751 20.175L6.48126 16.9875L9.68126 20.175L10.6625 19.2062L7.46251 16.0062L10.6563 12.8125Z" fill="#333333"/>
</g>
</g>
<defs>
<clipPath id="clip0_859_7239">
<rect width="32" height="32" fill="white"/>
</clipPath>
</defs>
</svg>
