<svg width="32" height="32" viewBox="0 0 32 32" fill="none" xmlns="http://www.w3.org/2000/svg">
<g clip-path="url(#clip0_859_7272)">
<mask id="mask0_859_7272" style="mask-type:alpha" maskUnits="userSpaceOnUse" x="0" y="0" width="32" height="32">
<path d="M16 32C24.8366 32 32 24.8366 32 16C32 7.16344 24.8366 0 16 0C7.16344 0 0 7.16344 0 16C0 24.8366 7.16344 32 16 32Z" fill="white"/>
</mask>
<g mask="url(#mask0_859_7272)">
<path d="M0 9.0437L15.9563 6.76245L32 9.0437V22.9562L15.6562 25.4375L0 22.9562V9.0437Z" fill="#EEEEEE"/>
<path d="M0 0H32V9.04375H0V0Z" fill="#FF9811"/>
<path d="M0 22.9563H32V32H0V22.9563Z" fill="#6DA544"/>
<path d="M16 21.5687C19.0721 21.5687 21.5625 19.0783 21.5625 16.0062C21.5625 12.9341 19.0721 10.4437 16 10.4437C12.9279 10.4437 10.4375 12.9341 10.4375 16.0062C10.4375 19.0783 12.9279 21.5687 16 21.5687Z" fill="#FF9811"/>
</g>
</g>
<defs>
<clipPath id="clip0_859_7272">
<rect width="32" height="32" fill="white"/>
</clipPath>
</defs>
</svg>
