<svg width="32" height="32" viewBox="0 0 32 32" fill="none" xmlns="http://www.w3.org/2000/svg">
<g clip-path="url(#clip0_859_7323)">
<mask id="mask0_859_7323" style="mask-type:alpha" maskUnits="userSpaceOnUse" x="0" y="0" width="32" height="32">
<path d="M16 32C24.8366 32 32 24.8366 32 16C32 7.16344 24.8366 0 16 0C7.16344 0 0 7.16344 0 16C0 24.8366 7.16344 32 16 32Z" fill="white"/>
</mask>
<g mask="url(#mask0_859_7323)">
<path d="M14.275 0H32V32H30.2875L9.96252 16.1562L14.275 0Z" fill="#EEEEEE"/>
<path d="M31.9063 17.7375L14.2813 0H11.825L7.3938 15.8625L27.8251 32H30.2875L16.025 17.7375H31.9H31.9063Z" fill="#0052B4"/>
<path d="M27.825 16L11.825 0H0V32H27.825L11.825 16H27.825Z" fill="#D80027"/>
<path d="M15.2188 23.625L13.2625 22.7062L14.3125 20.8125L12.1875 21.2188L11.9188 19.075L10.4438 20.65L8.96252 19.075L8.69377 21.2188L6.56877 20.8125L7.61252 22.7062L5.65002 23.625L7.60627 24.5438L6.56877 26.4375L8.69377 26.0312L8.95627 28.175L10.4375 26.6L11.9125 28.175L12.1813 26.0312L14.3063 26.4375L13.2625 24.5438L15.2188 23.625ZM9.36252 5.5625L9.16252 7.125L7.61877 6.83125L8.37502 8.20625L6.95627 8.875H6.26252C6.30428 9.95351 6.76208 10.9739 7.53989 11.7222C8.31771 12.4705 9.35508 12.8885 10.4344 12.8885C11.5137 12.8885 12.5511 12.4705 13.3289 11.7222C14.1067 10.9739 14.5645 9.95351 14.6063 8.875H13.9125L12.5 8.20625L13.25 6.83125L11.7125 7.125L11.5188 5.5625L10.4438 6.7125L9.36252 5.5625Z" fill="#EEEEEE"/>
</g>
</g>
<defs>
<clipPath id="clip0_859_7323">
<rect width="32" height="32" fill="white"/>
</clipPath>
</defs>
</svg>
