<svg width="32" height="32" viewBox="0 0 32 32" fill="none" xmlns="http://www.w3.org/2000/svg">
<g clip-path="url(#clip0_859_7406)">
<mask id="mask0_859_7406" style="mask-type:alpha" maskUnits="userSpaceOnUse" x="0" y="0" width="32" height="32">
<path d="M16 32C24.8366 32 32 24.8366 32 16C32 7.16344 24.8366 0 16 0C7.16344 0 0 7.16344 0 16C0 24.8366 7.16344 32 16 32Z" fill="white"/>
</mask>
<g mask="url(#mask0_859_7406)">
<path d="M0 0H32V16L15.4375 18.825L0 0Z" fill="#0052B4"/>
<path d="M13.125 16H32V32H0L13.125 16Z" fill="#D80027"/>
<path d="M0 0V32L16 16L0 0Z" fill="#EEEEEE"/>
<path d="M10.9562 16L8.99999 15.0812L10.0437 13.1875L7.91874 13.5937L7.64999 11.45L6.17499 13.025L4.68749 11.45L4.41874 13.5937L2.29374 13.1875L3.33749 15.0812L1.39374 16L3.34374 16.9187L2.31249 18.8125L4.43749 18.4062L4.69999 20.55L6.18124 18.975L7.65624 20.55L7.92499 18.4062L10.05 18.8125L9.00624 16.9187L10.9562 16ZM4.26874 6.26245L4.91874 7.1687L5.98124 6.8312L5.31874 7.7312L5.96874 8.63745L4.90624 8.28745L4.24999 9.18745L4.26249 8.0687L3.19999 7.7187L4.26249 7.3812L4.26874 6.26245ZM4.26874 22.8125L4.91874 23.725L5.98124 23.3875L5.31874 24.2812L5.96874 25.1937L4.90624 24.8375L4.24999 25.7374L4.26249 24.6187L3.19999 24.2687L4.26249 23.9312L4.26874 22.8125ZM13.5437 14.5375L12.8937 15.4375L11.8312 15.1L12.4875 16L11.8375 16.9125L12.9 16.5562L13.5625 17.4562L13.5562 16.3375L14.6187 15.9875L13.55 15.65L13.5437 14.5375Z" fill="#FFDA44"/>
</g>
</g>
<defs>
<clipPath id="clip0_859_7406">
<rect width="32" height="32" fill="white"/>
</clipPath>
</defs>
</svg>
