<svg width="32" height="32" viewBox="0 0 32 32" fill="none" xmlns="http://www.w3.org/2000/svg">
<g clip-path="url(#clip0_859_7415)">
<mask id="mask0_859_7415" style="mask-type:alpha" maskUnits="userSpaceOnUse" x="0" y="0" width="32" height="32">
<path d="M16 32C24.8366 32 32 24.8366 32 16C32 7.16344 24.8366 0 16 0C7.16344 0 0 7.16344 0 16C0 24.8366 7.16344 32 16 32Z" fill="white"/>
</mask>
<g mask="url(#mask0_859_7415)">
<path d="M0 0H8.35L11.4875 15.7812L8.35 32H0V0Z" fill="#EEEEEE"/>
<path d="M8.35001 0H32V32H8.35001V0Z" fill="#496E2D"/>
<path d="M22.8437 18.6437C22.2864 19.046 21.6445 19.3159 20.9672 19.4327C20.2898 19.5495 19.5946 19.5103 18.9347 19.3179C18.2748 19.1256 17.6674 18.7852 17.1589 18.3227C16.6503 17.8602 16.254 17.2878 16.0001 16.649C15.7461 16.0102 15.6413 15.322 15.6935 14.6365C15.7457 13.9511 15.9536 13.2867 16.3013 12.6937C16.649 12.1008 17.1275 11.595 17.7002 11.2148C18.2729 10.8347 18.9248 10.5902 19.6062 10.5C18.5236 10.3389 17.4175 10.5008 16.4264 10.9655C15.4353 11.4301 14.6034 12.1768 14.0347 13.1121C13.4661 14.0473 13.186 15.1296 13.2295 16.2233C13.2731 17.317 13.6384 18.3736 14.2796 19.2606C14.9208 20.1477 15.8096 20.8259 16.8344 21.2102C17.8593 21.5946 18.9748 21.668 20.0412 21.4213C21.1076 21.1747 22.0776 20.6188 22.8296 19.8235C23.5816 19.0281 24.0822 18.0286 24.2687 16.95C23.943 17.6267 23.4532 18.2111 22.8437 18.65V18.6437ZM22.75 10.4375L23.8875 11.6625L25.4062 10.9563L24.5937 12.425L25.7312 13.65L24.0875 13.3313L23.275 14.7937L23.0687 13.125L21.4375 12.8125L22.9625 12.1062L22.75 10.4375Z" fill="#EEEEEE"/>
</g>
</g>
<defs>
<clipPath id="clip0_859_7415">
<rect width="32" height="32" fill="white"/>
</clipPath>
</defs>
</svg>
