<svg width="32" height="32" viewBox="0 0 32 32" fill="none" xmlns="http://www.w3.org/2000/svg">
<g clip-path="url(#clip0_859_7488)">
<mask id="mask0_859_7488" style="mask-type:alpha" maskUnits="userSpaceOnUse" x="0" y="0" width="32" height="32">
<path d="M16 32C24.8366 32 32 24.8366 32 16C32 7.16344 24.8366 0 16 0C7.16344 0 0 7.16344 0 16C0 24.8366 7.16344 32 16 32Z" fill="white"/>
</mask>
<g mask="url(#mask0_859_7488)">
<path d="M0 0H32V32H0V0Z" fill="#338AF3"/>
<path d="M12.5188 22.9562C16.3606 22.9562 19.475 19.8418 19.475 16C19.475 12.1581 16.3606 9.0437 12.5188 9.0437C8.67692 9.0437 5.5625 12.1581 5.5625 16C5.5625 19.8418 8.67692 22.9562 12.5188 22.9562Z" fill="#FFDA44"/>
</g>
</g>
<defs>
<clipPath id="clip0_859_7488">
<rect width="32" height="32" fill="white"/>
</clipPath>
</defs>
</svg>
