<svg width="32" height="32" viewBox="0 0 32 32" fill="none" xmlns="http://www.w3.org/2000/svg">
<g clip-path="url(#clip0_859_7557)">
<mask id="mask0_859_7557" style="mask-type:alpha" maskUnits="userSpaceOnUse" x="0" y="0" width="32" height="32">
<path d="M16 32C24.8366 32 32 24.8366 32 16C32 7.16344 24.8366 0 16 0C7.16344 0 0 7.16344 0 16C0 24.8366 7.16344 32 16 32Z" fill="white"/>
</mask>
<g mask="url(#mask0_859_7557)">
<path d="M0 0H32V32H0V0Z" fill="#496E2D"/>
<path d="M9.04375 19.125C9.04375 20.2812 9.98125 21.2187 11.1313 21.2187H17.3937C17.3937 21.6795 17.5768 22.1215 17.9027 22.4473C18.2285 22.7731 18.6704 22.9562 19.1313 22.9562H21.2188C21.6796 22.9562 22.1215 22.7731 22.4473 22.4473C22.7732 22.1215 22.9562 21.6795 22.9562 21.2187V19.125H9.04375ZM23.1313 9.0437V13.9187C23.1313 14.6812 22.5062 15.3062 21.7375 15.3062V17.3937C23.6562 17.3937 25.2188 15.8312 25.2188 13.9125V9.0437H23.125H23.1313ZM8.175 13.9187C8.175 14.6812 7.55 15.3062 6.78125 15.3062V17.3937C8.7 17.3937 10.2625 15.8312 10.2625 13.9125V9.0437H8.175V13.9187Z" fill="#EEEEEE"/>
<path d="M20 9.0437H22.0875V13.9187H20V9.0437ZM16.875 11.825C16.875 11.9178 16.8381 12.0068 16.7725 12.0724C16.7068 12.1381 16.6178 12.175 16.525 12.175C16.4322 12.175 16.3431 12.1381 16.2775 12.0724C16.2119 12.0068 16.175 11.9178 16.175 11.825V9.0437H14.0875V11.825C14.0762 11.9089 14.0348 11.986 13.971 12.0418C13.9072 12.0975 13.8254 12.1283 13.7406 12.1283C13.6559 12.1283 13.574 12.0975 13.5102 12.0418C13.4464 11.986 13.405 11.9089 13.3937 11.825V9.0437H11.3062V11.825C11.3062 12.4714 11.5631 13.0914 12.0202 13.5485C12.4773 14.0056 13.0973 14.2625 13.7437 14.2625C14.2402 14.2625 14.7246 14.1097 15.1312 13.825C15.5379 14.1097 16.0223 14.2625 16.5187 14.2625C16.625 14.2625 16.7312 14.2562 16.8312 14.2437C16.7572 14.5462 16.5841 14.8151 16.3394 15.0077C16.0947 15.2003 15.7926 15.3053 15.4812 15.3062V17.3937C17.3937 17.3937 18.9562 15.8312 18.9562 13.9125V9.0437H16.875V11.825Z" fill="#EEEEEE"/>
<path d="M11.3062 15.3062H14.4312V17.3937H11.3062V15.3062Z" fill="#EEEEEE"/>
</g>
</g>
<defs>
<clipPath id="clip0_859_7557">
<rect width="32" height="32" fill="white"/>
</clipPath>
</defs>
</svg>
