<svg width="32" height="32" viewBox="0 0 32 32" fill="none" xmlns="http://www.w3.org/2000/svg">
<g clip-path="url(#clip0_859_7709)">
<mask id="mask0_859_7709" style="mask-type:alpha" maskUnits="userSpaceOnUse" x="0" y="0" width="32" height="32">
<path d="M16 32C24.8366 32 32 24.8366 32 16C32 7.16344 24.8366 0 16 0C7.16344 0 0 7.16344 0 16C0 24.8366 7.16344 32 16 32Z" fill="white"/>
</mask>
<g mask="url(#mask0_859_7709)">
<path d="M0 0H32V16L15.4375 18.825L0 0Z" fill="#D80027"/>
<path d="M13.125 16H32V32H0L13.125 16Z" fill="#0052B4"/>
<path d="M0 0V32L16 16L0 0Z" fill="#EEEEEE"/>
<path d="M1.75 16C1.74137 16.1165 1.7372 16.2332 1.7375 16.35C1.78392 17.5476 2.30418 18.6777 3.18384 19.4918C3.61941 19.8948 4.1301 20.2082 4.68675 20.4139C5.24341 20.6196 5.83513 20.7136 6.42813 20.6906C7.02113 20.6676 7.6038 20.5281 8.14286 20.2799C8.68193 20.0318 9.16684 19.6799 9.5699 19.2443C9.97297 18.8087 10.2863 18.298 10.492 17.7414C10.6977 17.1847 10.7917 16.593 10.7688 16H1.75Z" fill="#FFDA44"/>
<path d="M6.26249 13.9125C7.03224 13.9125 7.65624 13.2885 7.65624 12.5188C7.65624 11.749 7.03224 11.125 6.26249 11.125C5.49275 11.125 4.86874 11.749 4.86874 12.5188C4.86874 13.2885 5.49275 13.9125 6.26249 13.9125Z" fill="#FFDA44"/>
<path d="M3.125 12.175V16.6875C3.125 19.0875 6.2625 19.8125 6.2625 19.8125C6.2625 19.8125 9.3875 19.0875 9.3875 16.6875V12.1687H3.1375L3.125 12.175Z" fill="#D80027"/>
<path d="M6.26251 18.375C5.68126 18.1625 4.51251 17.625 4.51251 16.6875V13.5625H8.00001V16.6875C8.00001 17.625 6.83751 18.1625 6.26251 18.3687V18.375Z" fill="#338AF3"/>
<path d="M6.95625 15.3062V14.6062L6.2625 14.2625L5.5625 14.6062V15.3125L5.21875 15.6562V17.05H7.30625V15.6562L6.95625 15.3062Z" fill="#EEEEEE"/>
</g>
</g>
<defs>
<clipPath id="clip0_859_7709">
<rect width="32" height="32" fill="white"/>
</clipPath>
</defs>
</svg>
