<svg width="32" height="32" viewBox="0 0 32 32" fill="none" xmlns="http://www.w3.org/2000/svg">
<g clip-path="url(#clip0_859_7732)">
<mask id="mask0_859_7732" style="mask-type:alpha" maskUnits="userSpaceOnUse" x="0" y="0" width="32" height="32">
<path d="M16 32C24.8366 32 32 24.8366 32 16C32 7.16344 24.8366 0 16 0C7.16344 0 0 7.16344 0 16C0 24.8366 7.16344 32 16 32Z" fill="white"/>
</mask>
<g mask="url(#mask0_859_7732)">
<path d="M0 9.0437L16 7.76245L32 9.0437V11.125L29.6625 16.0625L32 20.875V22.9562L16 24.4625L0 22.9562V20.875L2.35625 16.0437L0 11.125V9.0437Z" fill="#FFDA44"/>
<path d="M0 0H32V9.04375H0V0Z" fill="#333333"/>
<path d="M0 22.9563H32V32H0V22.9563Z" fill="#0052B4"/>
<path d="M0 11.125H32V20.875H0V11.125Z" fill="#A2001D"/>
<path d="M5.57501 15.3063H26.45V16.6875H5.57501V15.3063ZM8.36251 12.5188H23.6625V13.9125H8.36251V12.5188Z" fill="#FFDA44"/>
<path d="M16.0125 11.825L14.8875 15.9L16.0125 20.175C20.1875 20.175 23.7625 16 23.7625 16C23.7625 16 20.1875 11.825 16.0125 11.825Z" fill="#EEEEEE"/>
<path d="M16.0125 20.175C11.8375 20.175 8.26251 16 8.26251 16C8.26251 16 11.8375 11.825 16.0125 11.825" fill="#333333"/>
<path d="M13.2313 14.6062H14.6188V17.3937H13.2313V14.6062Z" fill="#EEEEEE"/>
<path d="M17.4062 14.6062H18.7938V17.3937H17.4062V14.6062Z" fill="#333333"/>
<path d="M5.57499 17.3937C6.34474 17.3937 6.96874 16.7697 6.96874 16C6.96874 15.2302 6.34474 14.6062 5.57499 14.6062C4.80525 14.6062 4.18124 15.2302 4.18124 16C4.18124 16.7697 4.80525 17.3937 5.57499 17.3937Z" fill="#0052B4"/>
<path d="M26.45 17.3937C27.2197 17.3937 27.8437 16.7697 27.8437 16C27.8437 15.2302 27.2197 14.6062 26.45 14.6062C25.6802 14.6062 25.0562 15.2302 25.0562 16C25.0562 16.7697 25.6802 17.3937 26.45 17.3937Z" fill="#0052B4"/>
</g>
</g>
<defs>
<clipPath id="clip0_859_7732">
<rect width="32" height="32" fill="white"/>
</clipPath>
</defs>
</svg>
