<svg width="32" height="32" viewBox="0 0 32 32" fill="none" xmlns="http://www.w3.org/2000/svg">
<g clip-path="url(#clip0_859_7800)">
<mask id="mask0_859_7800" style="mask-type:alpha" maskUnits="userSpaceOnUse" x="0" y="0" width="32" height="32">
<path d="M16 32C24.8366 32 32 24.8366 32 16C32 7.16344 24.8366 0 16 0C7.16344 0 0 7.16344 0 16C0 24.8366 7.16344 32 16 32Z" fill="white"/>
</mask>
<g mask="url(#mask0_859_7800)">
<path d="M0 9.0437L15.9563 6.76245L32 9.0437V22.9562L15.6562 25.4375L0 22.9562V9.0437Z" fill="#EEEEEE"/>
<path d="M0 0H32V9.04375H0V0Z" fill="#D80027"/>
<path d="M0 22.9563H32V32H0V22.9563Z" fill="#6DA544"/>
<path d="M13.2188 20.1875H18.7812V17.8125L17.6688 18.375L16 16.6938L14.3313 18.3625L13.2188 17.8063V20.1875ZM10.0312 17.4L10.2937 18.1938H11.125L10.4438 18.6938L10.7063 19.4875L10.025 18.9875L9.35 19.4875L9.60625 18.6875L8.9375 18.1938H9.775L10.0312 17.4ZM10.8375 14.6125L11.0938 15.4125H11.9375L11.2625 15.9125L11.5188 16.7L10.8438 16.2063L10.1625 16.7063L10.425 15.9063L9.74375 15.4063H10.5813L10.8375 14.6125ZM13.1313 12.525L13.3938 13.325H14.2312L13.55 13.825L13.8125 14.6125L13.125 14.1313L12.45 14.6188L12.7063 13.825L12.0312 13.3313H12.875L13.1313 12.525ZM21.9688 17.4L21.7062 18.1938H20.875L21.5562 18.6938L21.2938 19.4875L21.975 18.9875L22.65 19.4875L22.3937 18.6875L23.0625 18.1938H22.225L21.9688 17.4ZM21.1625 14.6125L20.9062 15.4125H20.0625L20.7375 15.9125L20.4813 16.7L21.1562 16.2063L21.8375 16.7063L21.575 15.9063L22.2563 15.4063H21.4188L21.1625 14.6125ZM18.875 12.525L18.6125 13.325H17.775L18.4562 13.825L18.1938 14.6125L18.875 14.1313L19.55 14.6188L19.2938 13.825L19.9688 13.3313H19.125L18.875 12.525ZM16 11.4875L16.2563 12.2813H17.1L16.4188 12.7813L16.675 13.5688L16 13.0813L15.325 13.5688L15.5813 12.775L14.9 12.2813H15.75L16 11.4875Z" fill="#FFDA44"/>
</g>
</g>
<defs>
<clipPath id="clip0_859_7800">
<rect width="32" height="32" fill="white"/>
</clipPath>
</defs>
</svg>
