<svg width="32" height="32" viewBox="0 0 32 32" fill="none" xmlns="http://www.w3.org/2000/svg">
<g clip-path="url(#clip0_859_7846)">
<mask id="mask0_859_7846" style="mask-type:alpha" maskUnits="userSpaceOnUse" x="0" y="0" width="32" height="32">
<path d="M16 32C24.8366 32 32 24.8366 32 16C32 7.16344 24.8366 0 16 0C7.16344 0 0 7.16344 0 16C0 24.8366 7.16344 32 16 32Z" fill="white"/>
</mask>
<g mask="url(#mask0_859_7846)">
<path d="M0 0H32V32H0V0Z" fill="#D80027"/>
<path d="M16 23.65C20.225 23.65 23.65 20.225 23.65 16C23.65 11.775 20.225 8.34998 16 8.34998C11.775 8.34998 8.34998 11.775 8.34998 16C8.34998 20.225 11.775 23.65 16 23.65Z" fill="#EEEEEE"/>
<path d="M16.9375 13.075L18.25 14.8875L20.3813 14.1937L19.0688 16.0062L20.3813 17.8125L18.2563 17.1187L16.9438 18.9312V16.6875L14.8125 16L16.9375 15.3125V13.075Z" fill="#D80027"/>
<path d="M17.7375 20.5187C17.0508 20.5168 16.3736 20.3584 15.7573 20.0556C15.1409 19.7527 14.6018 19.3134 14.1807 18.771C13.7596 18.2285 13.4676 17.5973 13.327 16.9251C13.1864 16.253 13.2009 15.5576 13.3693 14.8919C13.5377 14.2262 13.8556 13.6076 14.2988 13.0831C14.7421 12.5586 15.2991 12.1421 15.9274 11.8651C16.5558 11.5881 17.239 11.458 17.9252 11.4846C18.6114 11.5112 19.2825 11.6939 19.8875 12.0187C19.1046 11.2535 18.1133 10.7364 17.0378 10.5321C15.9623 10.3278 14.8504 10.4453 13.8415 10.87C12.8325 11.2948 11.9713 12.0078 11.3657 12.9197C10.7601 13.8317 10.4371 14.9021 10.4371 15.9968C10.4371 17.0916 10.7601 18.1619 11.3657 19.0739C11.9713 19.9859 12.8325 20.6989 13.8415 21.1236C14.8504 21.5483 15.9623 21.6659 17.0378 21.4616C18.1133 21.2572 19.1046 20.7401 19.8875 19.975C19.2274 20.3327 18.4883 20.5197 17.7375 20.5187Z" fill="#D80027"/>
</g>
</g>
<defs>
<clipPath id="clip0_859_7846">
<rect width="32" height="32" fill="white"/>
</clipPath>
</defs>
</svg>
