<svg width="32" height="32" viewBox="0 0 32 32" fill="none" xmlns="http://www.w3.org/2000/svg">
<g clip-path="url(#clip0_859_7856)">
<mask id="mask0_859_7856" style="mask-type:alpha" maskUnits="userSpaceOnUse" x="0" y="0" width="32" height="32">
<path d="M16 32C24.8366 32 32 24.8366 32 16C32 7.16344 24.8366 0 16 0C7.16344 0 0 7.16344 0 16C0 24.8366 7.16344 32 16 32Z" fill="white"/>
</mask>
<g mask="url(#mask0_859_7856)">
<path d="M0 16L16 0H32V32H0V16Z" fill="#D80027"/>
<path d="M0 0H16V16H0V0Z" fill="#EEEEEE"/>
<path d="M10.4375 8.34995V6.26245H8.35001V8.34995H6.26251V10.4375H8.35001V12.5187H10.4375V10.4375H12.5188V8.34995H10.4375Z" fill="#D80027"/>
</g>
</g>
<defs>
<clipPath id="clip0_859_7856">
<rect width="32" height="32" fill="white"/>
</clipPath>
</defs>
</svg>
