<svg width="32" height="32" viewBox="0 0 32 32" fill="none" xmlns="http://www.w3.org/2000/svg">
<g clip-path="url(#clip0_859_7864)">
<mask id="mask0_859_7864" style="mask-type:alpha" maskUnits="userSpaceOnUse" x="0" y="0" width="32" height="32">
<path d="M16 32C24.8366 32 32 24.8366 32 16C32 7.16344 24.8366 0 16 0C7.16344 0 0 7.16344 0 16C0 24.8366 7.16344 32 16 32Z" fill="white"/>
</mask>
<g mask="url(#mask0_859_7864)">
<path d="M0 0H32V32H0V0Z" fill="#D80027"/>
<path d="M15.3438 13.075L16.6562 14.8875L18.7812 14.1937L17.4688 16.0062L18.7812 17.8125L16.6562 17.1187L15.3438 18.9312V16.6875L13.2188 15.9937L15.3438 15.3062V13.075Z" fill="#EEEEEE"/>
<path d="M11.7625 20.5187C11.0758 20.5168 10.3986 20.3584 9.78228 20.0556C9.16597 19.7527 8.62678 19.3134 8.20568 18.771C7.78458 18.2285 7.49265 17.5973 7.35206 16.9251C7.21147 16.253 7.22591 15.5576 7.3943 14.8919C7.5627 14.2262 7.8806 13.6076 8.32387 13.0831C8.76713 12.5586 9.3241 12.1421 9.95246 11.8651C10.5808 11.5881 11.264 11.458 11.9502 11.4846C12.6364 11.5112 13.3075 11.6939 13.9125 12.0187C13.1296 11.2535 12.1383 10.7364 11.0628 10.5321C9.98734 10.3278 8.87547 10.4453 7.86649 10.87C6.85751 11.2948 5.99629 12.0078 5.39071 12.9197C4.78512 13.8317 4.4621 14.9021 4.4621 15.9968C4.4621 17.0916 4.78512 18.1619 5.39071 19.0739C5.99629 19.9859 6.85751 20.6989 7.86649 21.1236C8.87547 21.5483 9.98734 21.6659 11.0628 21.4616C12.1383 21.2572 13.1296 20.7401 13.9125 19.975C13.2524 20.3327 12.5133 20.5197 11.7625 20.5187Z" fill="#EEEEEE"/>
</g>
</g>
<defs>
<clipPath id="clip0_859_7864">
<rect width="32" height="32" fill="white"/>
</clipPath>
</defs>
</svg>
