<svg width="32" height="32" viewBox="0 0 32 32" fill="none" xmlns="http://www.w3.org/2000/svg">
<g clip-path="url(#clip0_859_7881)">
<mask id="mask0_859_7881" style="mask-type:alpha" maskUnits="userSpaceOnUse" x="0" y="0" width="32" height="32">
<path d="M16 32C24.8366 32 32 24.8366 32 16C32 7.16344 24.8366 0 16 0C7.16344 0 0 7.16344 0 16C0 24.8366 7.16344 32 16 32Z" fill="white"/>
</mask>
<g mask="url(#mask0_859_7881)">
<path d="M0 16L16 0H32V32H0V16Z" fill="#338AF3"/>
<path d="M0 0H2.0875L4.0875 1.05625L6.26875 0H16V2.0875L15.075 4.18125L16 6.2625V8.35L15.4187 10.4563L16 13.05V14.0312L15.6125 14.7563L16 16H13.05L10.5938 15.5625L8.35 16.0063L6.2625 16L4.225 14.9625L2.0875 16H0V6.2625L0.8875 4.025L0 2.0875V0Z" fill="#EEEEEE"/>
<path d="M16 14.0312L10.3125 8.34375H8.35001L16 16V14.0312Z" fill="#D80027"/>
<path d="M2.0875 0V2.0875H0V6.2625H2.0875V16H6.2625V6.2625H16V2.0875H6.2625V0H2.0875Z" fill="#D80027"/>
<path d="M17.4625 26.4375L17.8062 27.5H18.9312L18.0187 28.1562L18.3687 29.2187L17.4625 28.5625L16.5562 29.2187L16.9062 28.1562L16 27.5H17.1187L17.4625 26.4375ZM26.3625 19.4812L26.7062 20.5437H27.8312L26.925 21.2L27.2687 22.2625L26.3625 21.6062L25.4562 22.2625L25.8062 21.2L24.9 20.5437H26.0187L26.3625 19.4812ZM28.5938 9.0437L28.9375 10.1062H30.0625L29.1562 10.7625L29.5063 11.825L28.6 11.1687L27.6938 11.825L28.0438 10.7625L27.1375 10.1062H28.25L28.5938 9.0437ZM29.1437 16.6937L29.4937 17.7562H30.6063L29.7062 18.4125L30.05 19.475L29.1437 18.8187L28.2437 19.4812L28.5875 18.4187L27.6812 17.7562H28.8062L29.1437 16.6937ZM19.0625 23.9375L20.0625 24.4375L20.85 23.65L20.675 24.7562L21.675 25.2625L20.5625 25.4375L20.3875 26.5437L19.8813 25.5437L18.775 25.7187L19.5688 24.9312L19.0625 23.9375ZM19.0625 19.7625L20.0625 20.2687L20.85 19.4812L20.675 20.5812L21.675 21.0875L20.5688 21.2625L20.3937 22.3687L19.8875 21.3687L18.7812 21.55L19.575 20.7562L19.0625 19.7625ZM22.5438 22.4375L23.5438 22.9437L24.3312 22.1562L24.1562 23.2562L25.1562 23.7625L24.0438 23.9375L23.875 25.0437L23.3625 24.0437L22.2625 24.225L23.05 23.4312L22.5438 22.4375ZM22.5438 13.5L23.5438 14.0062L24.3312 13.2187L24.1562 14.3187L25.1562 14.8312L24.0438 15.0062L23.875 16.1062L23.3625 15.1062L22.2625 15.2875L23.05 14.4937L22.5438 13.5ZM25.9188 13.3937L26.9125 13.9L27.7 13.1125L27.525 14.2125L28.525 14.7187L27.4188 14.8937L27.2437 16L26.7375 15L25.625 15.1875L26.4188 14.3937L25.9188 13.3937Z" fill="#FFDA44"/>
<path d="M11.3 8.34998H16V13.05L11.3 8.34998ZM8.35001 11.3V16.0062L13.05 16L8.35001 11.3Z" fill="#0052B4"/>
</g>
</g>
<defs>
<clipPath id="clip0_859_7881">
<rect width="32" height="32" fill="white"/>
</clipPath>
</defs>
</svg>
