<svg width="32" height="32" viewBox="0 0 32 32" fill="none" xmlns="http://www.w3.org/2000/svg">
<g clip-path="url(#clip0_859_7892)">
<mask id="mask0_859_7892" style="mask-type:alpha" maskUnits="userSpaceOnUse" x="0" y="0" width="32" height="32">
<path d="M16 32C24.8366 32 32 24.8366 32 16C32 7.16344 24.8366 0 16 0C7.16344 0 0 7.16344 0 16C0 24.8366 7.16344 32 16 32Z" fill="white"/>
</mask>
<g mask="url(#mask0_859_7892)">
<path d="M0 16L16 0H32V32H0V16Z" fill="#D80027"/>
<path d="M16 16V0H0V16H16Z" fill="#0052B4"/>
<path d="M13.9125 9.3625L11.9563 10.2812L13 12.175L10.875 11.7688L10.6063 13.9125L9.13126 12.3375L7.65001 13.9125L7.38126 11.7688L5.25626 12.175L6.30001 10.2812L4.35001 9.3625L6.30001 8.44375L5.26251 6.55L7.38751 6.95625L7.65001 4.8125L9.13126 6.39375L10.6063 4.8125L10.875 6.95625L13 6.55L11.9563 8.44375L13.9125 9.3625Z" fill="#EEEEEE"/>
<path d="M9.13124 12.3437C10.7777 12.3437 12.1125 11.009 12.1125 9.36248C12.1125 7.71598 10.7777 6.38123 9.13124 6.38123C7.48475 6.38123 6.14999 7.71598 6.14999 9.36248C6.14999 11.009 7.48475 12.3437 9.13124 12.3437Z" fill="#0052B4"/>
<path d="M9.12499 10.95C8.91652 10.9492 8.71025 10.9073 8.51796 10.8268C8.32567 10.7463 8.15113 10.6286 8.00429 10.4806C7.85746 10.3327 7.74121 10.1572 7.66219 9.96427C7.58317 9.77135 7.54292 9.56476 7.54374 9.35629C7.54456 9.14781 7.58644 8.94154 7.66698 8.74925C7.74751 8.55696 7.86514 8.38242 8.01313 8.23559C8.16113 8.08875 8.33659 7.97251 8.52951 7.89349C8.72243 7.81446 8.92902 7.77422 9.13749 7.77504C9.55853 7.77587 9.96198 7.94391 10.2591 8.24221C10.5562 8.54051 10.7227 8.94463 10.7219 9.36566C10.721 9.78669 10.553 10.1902 10.2547 10.4873C9.95639 10.7844 9.55228 10.9509 9.13124 10.95H9.12499Z" fill="#EEEEEE"/>
</g>
</g>
<defs>
<clipPath id="clip0_859_7892">
<rect width="32" height="32" fill="white"/>
</clipPath>
</defs>
</svg>
