<svg width="32" height="32" viewBox="0 0 32 32" fill="none" xmlns="http://www.w3.org/2000/svg">
<g clip-path="url(#clip0_859_7958)">
<mask id="mask0_859_7958" style="mask-type:alpha" maskUnits="userSpaceOnUse" x="0" y="0" width="32" height="32">
<path d="M16 32C24.8366 32 32 24.8366 32 16C32 7.16344 24.8366 0 16 0C7.16344 0 0 7.16344 0 16C0 24.8366 7.16344 32 16 32Z" fill="white"/>
</mask>
<g mask="url(#mask0_859_7958)">
<path d="M0 0H16L19.2313 15.9187L16 32H0V0Z" fill="#FFDA44"/>
<path d="M16 0H32V32H16V0Z" fill="#EEEEEE"/>
<path d="M22.125 13.925L25.1312 17.9C24.8587 18.3099 24.7397 18.8028 24.7953 19.2918C24.8509 19.7808 25.0775 20.2345 25.4351 20.5727C25.7926 20.9108 26.2582 21.1118 26.7496 21.1401C27.2409 21.1683 27.7264 21.0221 28.1204 20.7271C28.5144 20.4322 28.7916 20.0075 28.9029 19.5281C29.0142 19.0487 28.9525 18.5454 28.7287 18.107C28.505 17.6686 28.1336 17.3234 27.68 17.1323C27.2265 16.9412 26.72 16.9165 26.25 17.0625L21.5625 10.8625L20.4562 11.7L18.7875 12.9625L20.4687 15.1813L22.1312 13.925H22.125ZM26.4562 18.4938C26.5293 18.4388 26.6124 18.3987 26.701 18.3759C26.7895 18.353 26.8817 18.3479 26.9722 18.3606C27.0627 18.3734 27.1499 18.4039 27.2286 18.4503C27.3074 18.4967 27.3762 18.5583 27.4312 18.6313C27.4862 18.7043 27.5263 18.7875 27.5491 18.876C27.572 18.9646 27.5772 19.0567 27.5644 19.1473C27.5516 19.2378 27.5212 19.3249 27.4747 19.4037C27.4283 19.4825 27.3668 19.5513 27.2937 19.6063C27.1462 19.7174 26.9606 19.7653 26.7777 19.7395C26.5949 19.7137 26.4298 19.6163 26.3187 19.4688C26.2077 19.3213 26.1598 19.1357 26.1855 18.9528C26.2113 18.77 26.3087 18.6049 26.4562 18.4938Z" fill="#ACABB1"/>
<path d="M27.2875 15.1813L28.9625 12.9625L27.3 11.7L26.1875 10.8625L21.5 17.0625C21.0304 16.9146 20.5236 16.9374 20.0691 17.1269C19.6147 17.3164 19.2418 17.6605 19.0165 18.0983C18.7912 18.5362 18.7279 19.0395 18.8378 19.5195C18.9477 19.9995 19.2238 20.4252 19.6172 20.7213C20.0105 21.0174 20.496 21.165 20.9876 21.1379C21.4792 21.1108 21.9455 20.9107 22.3039 20.5731C22.6624 20.2355 22.8899 19.7821 22.9464 19.2929C23.0029 18.8038 22.8846 18.3104 22.6125 17.9L25.6125 13.925L27.2875 15.175V15.1813ZM21.425 19.4688C21.37 19.5418 21.3012 19.6033 21.2224 19.6498C21.1437 19.6962 21.0565 19.7267 20.966 19.7395C20.8755 19.7522 20.7833 19.7471 20.6948 19.7242C20.6062 19.7014 20.5231 19.6613 20.45 19.6063C20.377 19.5513 20.3155 19.4825 20.269 19.4037C20.2226 19.3249 20.1921 19.2378 20.1793 19.1473C20.1666 19.0567 20.1718 18.9646 20.1946 18.876C20.2175 18.7875 20.2575 18.7043 20.3125 18.6313C20.4236 18.4838 20.5887 18.3864 20.7715 18.3606C20.9544 18.3348 21.14 18.3827 21.2875 18.4938C21.435 18.6049 21.5324 18.77 21.5582 18.9528C21.584 19.1357 21.5361 19.3213 21.425 19.4688Z" fill="#FFDA44"/>
</g>
</g>
<defs>
<clipPath id="clip0_859_7958">
<rect width="32" height="32" fill="white"/>
</clipPath>
</defs>
</svg>
