<svg width="32" height="32" viewBox="0 0 32 32" fill="none" xmlns="http://www.w3.org/2000/svg">
<g clip-path="url(#clip0_859_7975)">
<mask id="mask0_859_7975" style="mask-type:alpha" maskUnits="userSpaceOnUse" x="0" y="0" width="32" height="32">
<path d="M16 32C24.8366 32 32 24.8366 32 16C32 7.16344 24.8366 0 16 0C7.16344 0 0 7.16344 0 16C0 24.8366 7.16344 32 16 32Z" fill="white"/>
</mask>
<g mask="url(#mask0_859_7975)">
<path d="M0 9.0437L15.9563 6.76245L32 9.0437V22.9562L15.6562 25.4375L0 22.9562V9.0437Z" fill="#0052B4"/>
<path d="M0 0H32V9.04375H0V0Z" fill="#FFDA44"/>
<path d="M0 22.9563H32V32H0V22.9563Z" fill="#D80027"/>
<path d="M27.7125 19.15L26.8625 19.8125L27.2375 20.8187L26.3437 20.2187L25.5 20.8875L25.7937 19.8562L24.9062 19.2562L25.975 19.2187L26.2687 18.1875L26.6437 19.1937L27.7125 19.15ZM25.5437 15.4L24.9812 16.3062L25.6687 17.1312L24.625 16.875L24.0625 17.7875L23.9812 16.725L22.9437 16.4562L23.9375 16.0562L23.8625 14.9937L24.55 15.8062L25.5437 15.4ZM22.2312 12.6187L22.0062 13.6687L22.9375 14.1937L21.875 14.3062L21.65 15.3562L21.2125 14.375L20.15 14.4875L20.9437 13.7687L20.5062 12.7937L21.4312 13.3312L22.2312 12.6187ZM18.1687 11.1375L18.3125 12.2L19.375 12.3875L18.4062 12.8562L18.5562 13.9187L17.8062 13.1437L16.8437 13.6187L17.3437 12.6687L16.6062 11.9L17.6625 12.0875L18.1687 11.1375ZM13.8375 11.1375L14.3375 12.0812L15.4 11.8937L14.65 12.6687L15.15 13.6187L14.1875 13.1437L13.4437 13.9187L13.5937 12.8562L12.6312 12.3875L13.6875 12.2L13.8375 11.1375ZM9.77498 12.6187L10.5687 13.3375L11.4937 12.8L11.0562 13.7812L11.8562 14.4937L10.7937 14.3812L10.3562 15.3625L10.125 14.3187L9.06248 14.2062L9.98748 13.675L9.77498 12.6187ZM6.45623 15.4L7.44998 15.8L8.13748 14.9875L8.06248 16.05L9.06248 16.45L8.01873 16.7125L7.94373 17.775L7.37498 16.875L6.33123 17.1375L7.01873 16.3125L6.45623 15.4ZM4.28748 19.15L5.36248 19.1812L5.73123 18.1812L6.02498 19.2062L7.09373 19.2437L6.20623 19.8437L6.49998 20.8812L5.65623 20.2187L4.76873 20.8187L5.13748 19.8187L4.28748 19.15Z" fill="#EEEEEE"/>
</g>
</g>
<defs>
<clipPath id="clip0_859_7975">
<rect width="32" height="32" fill="white"/>
</clipPath>
</defs>
</svg>
