<svg width="32" height="32" viewBox="0 0 32 32" fill="none" xmlns="http://www.w3.org/2000/svg">
<g clip-path="url(#clip0_859_7998)">
<mask id="mask0_859_7998" style="mask-type:alpha" maskUnits="userSpaceOnUse" x="0" y="0" width="32" height="32">
<path d="M16 32C24.8366 32 32 24.8366 32 16C32 7.16344 24.8366 0 16 0C7.16344 0 0 7.16344 0 16C0 24.8366 7.16344 32 16 32Z" fill="white"/>
</mask>
<g mask="url(#mask0_859_7998)">
<path d="M0 0H32V32H0V0Z" fill="#EEEEEE"/>
<path d="M18.7188 11.175C18.7188 10.454 18.4323 9.76247 17.9224 9.2526C17.4126 8.74274 16.7211 8.4563 16 8.4563C15.2789 8.4563 14.5874 8.74274 14.0776 9.2526C13.5677 9.76247 13.2812 10.454 13.2812 11.175H7.3125C7.33049 11.8946 7.62985 12.5784 8.14633 13.0797C8.66282 13.581 9.35525 13.8598 10.075 13.8563H9.9875C9.9875 14.5658 10.2693 15.2461 10.771 15.7478C11.2726 16.2495 11.953 16.5313 12.6625 16.5313L16.0063 19.1563L19.35 16.5313C19.7013 16.5313 20.0491 16.4621 20.3737 16.3277C20.6982 16.1932 20.9931 15.9962 21.2415 15.7478C21.4899 15.4994 21.6869 15.2045 21.8214 14.88C21.9558 14.5554 22.025 14.2076 22.025 13.8563H21.9375C22.6572 13.8598 23.3497 13.581 23.8662 13.0797C24.3826 12.5784 24.682 11.8946 24.7 11.175H18.725H18.7188Z" fill="#FFDA44"/>
<path d="M14.8063 18.8938L13.1188 22.7001C14.0337 23.0724 15.0122 23.2634 16 23.2626C16.9857 23.2626 17.9621 23.0716 18.875 22.7001L17.1938 18.8938H14.8125H14.8063Z" fill="#FFDA44"/>
<path d="M15.9562 13.375L12.5187 14.7188V17.2C12.5304 17.6986 12.6634 18.1868 12.9063 18.6224C13.1491 19.0581 13.4945 19.4279 13.9125 19.7L14.6187 19.5562L15.3062 20.45C15.5328 20.5387 15.7645 20.6138 16 20.675C16 20.675 16.2875 20.6063 16.6937 20.45L17.2812 19.5688L18.0937 19.7C18.511 19.4262 18.8554 19.055 19.0972 18.6183C19.3389 18.1817 19.4707 17.6927 19.4812 17.1938V14.7188L15.9562 13.375Z" fill="#EEEEEE"/>
<path d="M3.87499 16.1125L5.76874 21.375L7.63124 16.1125H9.04999L6.33749 23.0688H5.18749L2.45624 16.1125H3.88124H3.87499ZM25.7375 23.0688V16.1125H27.0937V23.0688H25.7375Z" fill="#338AF3"/>
<path d="M13.9125 14.025V19.7C14.3419 20.0105 14.8106 20.2627 15.3062 20.45V14.0188L13.9125 14.025ZM18.0875 14.025V19.7C17.6573 20.0093 17.1888 20.2614 16.6937 20.45V14.0188L18.0875 14.025Z" fill="#D80027"/>
<path d="M12.5187 12.5125H19.4812V14.7187H12.5187V12.5125Z" fill="#0052B4"/>
</g>
</g>
<defs>
<clipPath id="clip0_859_7998">
<rect width="32" height="32" fill="white"/>
</clipPath>
</defs>
</svg>
