<svg width="32" height="32" viewBox="0 0 32 32" fill="none" xmlns="http://www.w3.org/2000/svg">
<g clip-path="url(#clip0_859_8018)">
<mask id="mask0_859_8018" style="mask-type:alpha" maskUnits="userSpaceOnUse" x="0" y="0" width="32" height="32">
<path d="M16 32C24.8366 32 32 24.8366 32 16C32 7.16344 24.8366 0 16 0C7.16344 0 0 7.16344 0 16C0 24.8366 7.16344 32 16 32Z" fill="white"/>
</mask>
<g mask="url(#mask0_859_8018)">
<path d="M32 13.9125V0H0L13.475 14.9625L32 13.9125Z" fill="#D80027"/>
<path d="M32 18.0875V32H0L13.5312 17L32 18.0875Z" fill="#6DA544"/>
<path d="M0 0L13.9125 13.9125H32V15.3L31.3188 16.0375L32 16.6875V18.0875H13.9125L0 32V30.0312L0.5 28.5938L0 28.0562V3.9375L0.59375 3.2875L0 1.975V0Z" fill="#333333"/>
<path d="M32 15.3H13.325L0 1.9812V3.93745L12.05 16L0 28.0625V30.0312L13.325 16.6875H32V15.3Z" fill="#FFDA44"/>
<path d="M3.88752 19.4124V18.0624C4.53067 18.0624 5.14748 17.8069 5.60226 17.3521C6.05703 16.8974 6.31252 16.2806 6.31252 15.6374C6.30759 15.1848 6.12433 14.7524 5.80253 14.4342C5.48074 14.1159 5.04639 13.9374 4.59377 13.9374C4.2838 13.9374 3.98653 14.0605 3.76734 14.2797C3.54816 14.4989 3.42502 14.7962 3.42502 15.1062C3.42502 15.3051 3.50404 15.4958 3.64469 15.6365C3.78535 15.7771 3.97611 15.8562 4.17502 15.8562C4.40627 15.8562 4.60002 15.6687 4.60002 15.4312H5.93752C5.93587 15.8975 5.74945 16.3442 5.4191 16.6734C5.08874 17.0026 4.64139 17.1874 4.17502 17.1874C3.02502 17.1874 2.08752 16.2499 2.08752 15.0999C2.08752 13.7124 3.21252 12.5874 4.58752 12.5874C5.39975 12.5874 6.17871 12.9101 6.75304 13.4844C7.32737 14.0587 7.65002 14.8377 7.65002 15.6499C7.65002 17.7187 5.96252 19.4124 3.88752 19.4124Z" fill="#FFDA44"/>
</g>
</g>
<defs>
<clipPath id="clip0_859_8018">
<rect width="32" height="32" fill="white"/>
</clipPath>
</defs>
</svg>
