<svg width="32" height="32" viewBox="0 0 32 32" fill="none" xmlns="http://www.w3.org/2000/svg">
<g clip-path="url(#clip0_859_8039)">
<mask id="mask0_859_8039" style="mask-type:alpha" maskUnits="userSpaceOnUse" x="0" y="0" width="32" height="32">
<path d="M16 32C24.8366 32 32 24.8366 32 16C32 7.16344 24.8366 0 16 0C7.16344 0 0 7.16344 0 16C0 24.8366 7.16344 32 16 32Z" fill="white"/>
</mask>
<g mask="url(#mask0_859_8039)">
<path d="M0 16L16 0H32V32H0V16Z" fill="#D80027"/>
<path d="M0 0H16V16H0V0Z" fill="#0052B4"/>
<path d="M12.8125 10.4375L13.075 11.2313H13.9125L13.2375 11.725L13.4937 12.5188L12.8187 12.0313L12.1375 12.5188L12.3937 11.725L11.7187 11.2313H12.5562L12.8125 10.4375ZM8.61249 4.17505L9.04999 5.50005H10.4375L9.30624 6.32505L9.73749 7.65005L8.60624 6.8313L7.48124 7.65005L7.90624 6.32505L6.78124 5.50005H8.17499L8.61249 4.17505ZM12.7812 5.56255L13.2125 6.8938H14.6062L13.4812 7.71255L13.9125 9.0438L12.7812 8.22505L11.65 9.0438L12.0875 7.71255L10.95 6.8938H12.35L12.7812 5.56255ZM9.48124 11.125L9.91249 12.4563H11.3125L10.1812 13.2813L10.6125 14.6063L9.48124 13.7875L8.35624 14.6063L8.78124 13.2813L7.65624 12.4563H9.04999L9.48124 11.125ZM5.82499 7.65005L6.25624 8.9813H7.64999L6.52499 9.80005L6.95624 11.1313L5.82499 10.3063L4.68749 11.1313L5.11874 9.80005L3.99374 8.9813H5.38749L5.82499 7.65005Z" fill="#EEEEEE"/>
</g>
</g>
<defs>
<clipPath id="clip0_859_8039">
<rect width="32" height="32" fill="white"/>
</clipPath>
</defs>
</svg>
