<svg width="32" height="32" viewBox="0 0 32 32" fill="none" xmlns="http://www.w3.org/2000/svg">
<g clip-path="url(#clip0_859_8085)">
<mask id="mask0_859_8085" style="mask-type:alpha" maskUnits="userSpaceOnUse" x="0" y="0" width="32" height="32">
<path d="M16 32C24.8366 32 32 24.8366 32 16C32 7.16344 24.8366 0 16 0C7.16344 0 0 7.16344 0 16C0 24.8366 7.16344 32 16 32Z" fill="white"/>
</mask>
<g mask="url(#mask0_859_8085)">
<path d="M0 0H32V16L16 32H0V0Z" fill="#496E2D"/>
<path d="M29.5625 10.4375H25.3937C25.3937 10.0678 25.2469 9.7133 24.9855 9.45192C24.7242 9.19054 24.3696 9.0437 24 9.0437C23.6304 9.0437 23.2758 9.19054 23.0145 9.45192C22.7531 9.7133 22.6063 10.0678 22.6063 10.4375H18.4375C18.4505 10.81 18.6076 11.1629 18.8758 11.4217C19.144 11.6806 19.5023 11.8252 19.875 11.825H19.825C19.825 12.5937 20.45 13.2187 21.2188 13.2187C21.2188 13.9875 21.8438 14.6062 22.6063 14.6062H25.3937C26.1625 14.6062 26.7812 13.9812 26.7812 13.2187C27.55 13.2187 28.175 12.5937 28.175 11.825H28.125C28.4977 11.8252 28.856 11.6806 29.1242 11.4217C29.3924 11.1629 29.5495 10.81 29.5625 10.4375Z" fill="#FF9811"/>
<path d="M21.3313 16H26.6688L27.9875 23.8937L26.6688 32H21.3313L19.8625 24L21.3313 16Z" fill="#333333"/>
<path d="M16 16H21.3312V32H16V16Z" fill="#D80027"/>
<path d="M26.6687 16H32V32H26.6687V16Z" fill="#FF9811"/>
</g>
</g>
<defs>
<clipPath id="clip0_859_8085">
<rect width="32" height="32" fill="white"/>
</clipPath>
</defs>
</svg>
