<svg width="32" height="32" viewBox="0 0 32 32" fill="none" xmlns="http://www.w3.org/2000/svg">
<g clip-path="url(#clip0_859_8095)">
<mask id="mask0_859_8095" style="mask-type:alpha" maskUnits="userSpaceOnUse" x="0" y="0" width="32" height="32">
<path d="M16 32C24.8366 32 32 24.8366 32 16C32 7.16344 24.8366 0 16 0C7.16344 0 0 7.16344 0 16C0 24.8366 7.16344 32 16 32Z" fill="white"/>
</mask>
<g mask="url(#mask0_859_8095)">
<path d="M1.96252 0H32V32H1.96252V0Z" fill="#6DA544"/>
<path d="M3.61255 4.5813H32V9.16255L27.9313 16.0375L32 22.9125V27.4938H3.61255V4.5813Z" fill="#FFDA44"/>
<path d="M8.25 9.16248H32V13.7437L30.3125 15.9937L32 18.325V22.9062H8.25V9.16248Z" fill="#D80027"/>
<path d="M0 0V32L17.4875 16L0 0Z" fill="#EEEEEE"/>
<path d="M6.43745 11.825L7.4687 15.0125H10.8187L8.1062 16.9875L9.1437 20.175L6.4312 18.2062L3.7187 20.175L4.7562 16.9875L2.0437 15.0125H5.3937L6.43745 11.825Z" fill="#D80027"/>
<path d="M9.28127 16.2625L6.58127 15.3063L6.36877 13.3688C6.34193 13.231 6.28759 13.1001 6.20899 12.9838C6.13039 12.8676 6.02915 12.7684 5.91132 12.6921C5.7935 12.6159 5.66151 12.5642 5.52324 12.5401C5.38498 12.5161 5.24328 12.5201 5.10663 12.5521C4.96997 12.584 4.84116 12.6432 4.72791 12.7261C4.61465 12.809 4.51927 12.9138 4.44747 13.0344C4.37567 13.155 4.32893 13.2888 4.31004 13.4279C4.29115 13.567 4.3005 13.7084 4.33752 13.8438L3.58752 14.6H4.93127C4.93127 16 3.88752 16 3.88752 17.3938L4.46252 18.7813H7.94377L8.52502 17.3938C8.58146 17.2626 8.6173 17.1234 8.63127 16.9813C9.13127 16.7813 9.28127 16.2625 9.28127 16.2625Z" fill="#FFDA44"/>
<path d="M1.9625 0L15.7125 13.75H32V18.325H15.6375L1.9625 32H0L16 16L0 0H1.9625Z" fill="#333333"/>
</g>
</g>
<defs>
<clipPath id="clip0_859_8095">
<rect width="32" height="32" fill="white"/>
</clipPath>
</defs>
</svg>
